SplineFontDB: 3.2
FontName: JAWI_BIXIE
FullName: JAWI BIXIE
FamilyName: JAWI BIXIE
Weight: Book
Copyright: 
Version: v2.872 JAWI 2024
ItalicAngle: 0
UnderlinePosition: -292
UnderlineWidth: 150
Ascent: 1638
Descent: 410
InvalidEm: 0
sfntRevision: 0x00010000
LayerCount: 2
Layer: 0 1 "Back" 1
Layer: 1 1 "Fore" 0
XUID: [1021 382 1457897002 17867]
StyleMap: 0x0040
FSType: 8
OS2Version: 4
OS2_WeightWidthSlopeOnly: 1
OS2_UseTypoMetrics: 0
CreationTime: 1391161551
ModificationTime: 1716524835
PfmFamily: 17
TTFWeight: 400
TTFWidth: 5
LineGap: 222
VLineGap: 0
Panose: 2 0 5 0 0 0 0 0 0 0
OS2TypoAscent: 1434
OS2TypoAOffset: 0
OS2TypoDescent: -410
OS2TypoDOffset: 0
OS2TypoLinegap: 205
OS2WinAscent: 1600
OS2WinAOffset: 0
OS2WinDescent: 1050
OS2WinDOffset: 0
HheadAscent: 1716
HheadAOffset: 0
HheadDescent: -418
HheadDOffset: 0
OS2SubXSize: 1434
OS2SubYSize: 1331
OS2SubXOff: 0
OS2SubYOff: 283
OS2SupXSize: 1434
OS2SupYSize: 1331
OS2SupXOff: 0
OS2SupYOff: 977
OS2StrikeYSize: 102
OS2StrikeYPos: 530
OS2CapHeight: 1200
OS2XHeight: 851
OS2Vendor: 'any '
OS2CodePages: 00000041.00000000
OS2UnicodeRanges: 00002001.00000000.00000008.00000000
Lookup: 2 1 0 "'ccmp' Gabung" { "'ccmp' tandaV"  } ['ccmp' ('DFLT' <'dflt' > 'arab' <'dflt' > 'latn' <'dflt' > ) ]
Lookup: 1 9 0 "'isol' Isolated Forms in Arabic lookup 0" { "'isol' Isolated Forms in Arabic lookup 0 subtable"  } ['isol' ('arab' <'dflt' > ) ]
Lookup: 1 9 0 "'init' Initial Forms in Arabic lookup 1" { "'init' Initial Forms in Arabic lookup 1 subtable"  "'init' JAWI"  } ['init' ('arab' <'dflt' > ) ]
Lookup: 1 9 0 "'medi' Medial Forms in Arabic lookup 2" { "'medi' Medial Forms in Arabic lookup 2 subtable"  "'medi' JAWI"  } ['medi' ('arab' <'dflt' > ) ]
Lookup: 1 9 0 "'fina' Terminal Forms in Arabic lookup 3" { "'fina' Terminal Forms in Arabic lookup 3 subtable"  "'fina' JAWI"  } ['fina' ('arab' <'dflt' > ) ]

StartChar: seru
Encoding: 1 33 2
Width: 312
GlyphClass: 2
Flags: W
LayerCount: 2
Fore
SplineSet
256 553 m 1,0,-1
 256 553 l 1,1,2
 256 554 256 554 255 555 c 0,3,4
 254 555 254 555 253 555 c 2,5,-1
 122 424 l 2,6,7
 113 411 113 411 128 353.5 c 128,-1,8
 143 296 143 296 160 215 c 128,-1,9
 177 134 177 134 174.5 49.5 c 128,-1,10
 172 -35 172 -35 128 -102 c 0,11,12
 127 -103 127 -103 128 -104 c 256,13,14
 129 -105 129 -105 130 -104 c 2,15,-1
 241 7 l 2,16,17
 297 67 297 67 307 149.5 c 128,-1,18
 317 232 317 232 302.5 316 c 128,-1,19
 288 400 288 400 271 464.5 c 128,-1,20
 254 529 254 529 256 553 c 1,0,-1
270 -246 m 1,21,-1
 270 -246 l 1,22,-1
 177 -339 l 2,23,24
 176 -339 176 -339 175 -339 c 0,25,26
 174 -338 174 -338 174 -337 c 0,27,28
 180 -305 180 -305 146 -269 c 128,-1,29
 112 -233 112 -233 91 -216 c 1,30,-1
 194 -113 l 1,31,32
 208 -125 208 -125 233 -149 c 128,-1,33
 258 -173 258 -173 272.5 -199.5 c 128,-1,34
 287 -226 287 -226 270 -246 c 1,21,-1
EndSplineSet
EndChar

StartChar: quotedbl
Encoding: 2 34 3
Width: 493
GlyphClass: 2
Flags: W
LayerCount: 2
Fore
SplineSet
269 1163 m 2,0,-1
 176 1070 l 2,1,2
 175 1070 175 1070 174 1070 c 0,3,4
 173 1071 173 1071 173 1072 c 0,5,6
 179 1104 179 1104 145 1140 c 128,-1,7
 111 1176 111 1176 90 1193 c 1,8,-1
 193 1296 l 1,9,10
 207 1284 207 1284 232 1260 c 128,-1,11
 257 1236 257 1236 271.5 1209.5 c 128,-1,12
 286 1183 286 1183 269 1163 c 2,0,-1
107 1007 m 1,13,14
 150 1058 150 1058 152 1095 c 128,-1,15
 154 1132 154 1132 138 1148 c 1,16,17
 161 1167 161 1167 161.5 1177 c 128,-1,18
 162 1187 162 1187 152 1192 c 128,-1,19
 142 1197 142 1197 133 1201 c 128,-1,20
 124 1205 124 1205 127 1211.5 c 128,-1,21
 130 1218 130 1218 158 1231 c 1,22,-1
 171 1232 l 2,23,24
 172 1233 172 1233 173 1232 c 256,25,26
 174 1231 174 1231 174 1230 c 1,27,28
 168 1234 168 1234 174 1226.5 c 128,-1,29
 180 1219 180 1219 189.5 1203.5 c 128,-1,30
 199 1188 199 1188 205.5 1167 c 128,-1,31
 212 1146 212 1146 208 1122.5 c 128,-1,32
 204 1099 204 1099 181 1075 c 2,33,-1
 110 1005 l 2,34,35
 109 1005 109 1005 108 1005 c 0,36,37
 107 1006 107 1006 107 1007 c 1,38,-1
 107 1007 l 1,13,14
484 1163 m 2,39,-1
 391 1070 l 2,40,41
 390 1070 390 1070 389 1070 c 0,42,43
 388 1071 388 1071 388 1072 c 0,44,45
 394 1104 394 1104 360 1140 c 128,-1,46
 326 1176 326 1176 305 1193 c 1,47,-1
 408 1296 l 1,48,49
 422 1284 422 1284 447 1260 c 128,-1,50
 472 1236 472 1236 486.5 1209.5 c 128,-1,51
 501 1183 501 1183 484 1163 c 2,39,-1
322 1007 m 1,52,53
 365 1058 365 1058 367 1095 c 128,-1,54
 369 1132 369 1132 353 1148 c 1,55,56
 376 1167 376 1167 376.5 1177 c 128,-1,57
 377 1187 377 1187 367 1192 c 128,-1,58
 357 1197 357 1197 348 1201 c 128,-1,59
 339 1205 339 1205 342 1211.5 c 128,-1,60
 345 1218 345 1218 373 1231 c 1,61,-1
 386 1232 l 2,62,63
 387 1233 387 1233 388 1232 c 256,64,65
 389 1231 389 1231 389 1230 c 1,66,67
 383 1234 383 1234 389 1226.5 c 128,-1,68
 395 1219 395 1219 404.5 1203.5 c 128,-1,69
 414 1188 414 1188 420.5 1167 c 128,-1,70
 427 1146 427 1146 423 1122.5 c 128,-1,71
 419 1099 419 1099 396 1075 c 2,72,-1
 325 1005 l 2,73,74
 324 1005 324 1005 323 1005 c 0,75,76
 322 1006 322 1006 322 1007 c 1,77,-1
 322 1007 l 1,52,53
EndSplineSet
EndChar

StartChar: percent
Encoding: 4 37 4
Width: 680
GlyphClass: 2
Flags: W
LayerCount: 2
Fore
SplineSet
563 707 m 1,0,-1
 395 610 l 1,1,2
 288 209 288 209 180 -191 c 1,3,-1
 348 -94 l 1,4,5
 455 306 455 306 563 707 c 1,0,-1
671 94 m 2,6,-1
 578 1 l 2,7,8
 577 1 577 1 576 1 c 0,9,10
 575 2 575 2 575 3 c 0,11,12
 581 35 581 35 547 71 c 128,-1,13
 513 107 513 107 492 124 c 1,14,-1
 595 227 l 1,15,16
 609 215 609 215 634 191 c 128,-1,17
 659 167 659 167 673.5 140.5 c 128,-1,18
 688 114 688 114 671 94 c 2,6,-1
269 398 m 2,19,-1
 176 305 l 2,20,21
 175 305 175 305 174 305 c 0,22,23
 173 306 173 306 173 307 c 0,24,25
 179 339 179 339 145 375 c 128,-1,26
 111 411 111 411 90 428 c 1,27,-1
 193 531 l 1,28,29
 207 519 207 519 232 495 c 128,-1,30
 257 471 257 471 271.5 444.5 c 128,-1,31
 286 418 286 418 269 398 c 2,19,-1
EndSplineSet
EndChar

StartChar: quotesingle
Encoding: 5 39 5
Width: 278
GlyphClass: 2
Flags: W
LayerCount: 2
Fore
SplineSet
176 1070 m 1,0,-1
 110 1005 l 1,1,-1
 108 1005 l 2,2,3
 107 1006 107 1006 107 1007 c 0,4,5
 150 1058 150 1058 152 1095 c 0,6,7
 154 1125 154 1125 143 1141 c 0,8,9
 123 1164 123 1164 103 1181 c 0,10,11
 95 1188 95 1188 90 1193 c 1,12,-1
 193 1296 l 1,13,14
 198 1291 198 1291 206 1284 c 0,15,16
 235 1260 235 1260 262.5 1225 c 128,-1,17
 290 1190 290 1190 269 1163 c 1,18,-1
 176 1070 l 1,0,-1
EndSplineSet
EndChar

StartChar: parenleft
Encoding: 6 40 6
Width: 288
GlyphClass: 2
Flags: W
LayerCount: 2
Fore
SplineSet
91 220 m 1,0,1
 87 98 87 98 99.5 -22.5 c 128,-1,2
 112 -143 112 -143 171 -210 c 1,3,-1
 285 -324 l 2,4,5
 286 -325 286 -325 288 -324 c 0,6,7
 289 -323 289 -323 288 -322 c 0,8,9
 252 -266 252 -266 240 -184.5 c 128,-1,10
 228 -103 228 -103 228.5 -13.5 c 128,-1,11
 229 76 229 76 229 152 c 2,12,-1
 229 289 l 2,13,14
 229 365 229 365 228.5 454.5 c 128,-1,15
 228 544 228 544 240 625.5 c 128,-1,16
 252 707 252 707 288 762 c 0,17,18
 289 764 289 764 288 765 c 0,19,20
 286 765 286 765 285 764 c 2,21,-1
 171 651 l 1,22,23
 112 584 112 584 99.5 463 c 128,-1,24
 87 342 87 342 91 220 c 1,25,-1
 91 220 l 1,0,1
EndSplineSet
EndChar

StartChar: parenright
Encoding: 7 41 7
Width: 288
GlyphClass: 2
Flags: W
LayerCount: 2
Fore
SplineSet
288 220 m 1,0,-1
 288 220 l 1,1,2
 292 342 292 342 279.5 463 c 128,-1,3
 267 584 267 584 207 651 c 1,4,-1
 94 764 l 2,5,6
 93 765 93 765 91 765 c 0,7,8
 90 764 90 764 91 762 c 0,9,10
 126 707 126 707 138.5 625.5 c 128,-1,11
 151 544 151 544 150.5 454.5 c 128,-1,12
 150 365 150 365 150 289 c 2,13,-1
 150 152 l 2,14,15
 150 76 150 76 150.5 -13.5 c 128,-1,16
 151 -103 151 -103 138.5 -184.5 c 128,-1,17
 126 -266 126 -266 91 -322 c 0,18,19
 90 -323 90 -323 91 -324 c 0,20,21
 93 -325 93 -325 94 -324 c 2,22,-1
 207 -210 l 1,23,24
 267 -143 267 -143 279.5 -22.5 c 128,-1,25
 292 98 292 98 288 220 c 1,0,-1
EndSplineSet
EndChar

StartChar: asterisk
Encoding: 8 42 8
Width: 740
GlyphClass: 2
Flags: W
LayerCount: 2
Fore
SplineSet
542 127 m 2,0,-1
 417 2 l 2,1,2
 416 2 416 2 415 2 c 0,3,4
 414 3 414 3 414 4 c 0,5,6
 423 37 423 37 384 80 c 128,-1,7
 345 123 345 123 315 173 c 1,8,9
 297 136 297 136 263 143 c 2,10,-1
 92 189 l 2,11,12
 91 189 91 189 91 190 c 256,13,14
 91 191 91 191 92 192 c 0,15,16
 125 201 125 201 143 256 c 128,-1,17
 161 311 161 311 189 362 c 1,18,19
 148 359 148 359 137 392 c 2,20,-1
 91 563 l 2,21,22
 91 564 91 564 92 565 c 0,23,24
 93 565 93 565 94 564 c 0,25,26
 119 540 119 540 175 552 c 128,-1,27
 231 564 231 564 290 566 c 1,28,29
 267 600 267 600 290 626 c 2,30,-1
 415 751 l 2,31,32
 416 752 416 752 417 751 c 256,33,34
 418 750 418 750 417 749 c 0,35,36
 409 716 409 716 447.5 673 c 128,-1,37
 486 630 486 630 516 580 c 1,38,39
 534 617 534 617 569 610 c 2,40,-1
 739 565 l 2,41,42
 740 564 740 564 740 563 c 256,43,44
 740 562 740 562 739 561 c 0,45,46
 706 552 706 552 688 497 c 128,-1,47
 670 442 670 442 642 391 c 1,48,49
 683 394 683 394 694 361 c 2,50,-1
 740 190 l 2,51,52
 741 189 741 189 739 189 c 0,53,54
 738 188 738 188 737 189 c 0,55,56
 713 213 713 213 656.5 201 c 128,-1,57
 600 189 600 189 542 187 c 1,58,59
 565 153 565 153 542 127 c 2,0,-1
EndSplineSet
EndChar

StartChar: plus
Encoding: 9 43 9
Width: 673
GlyphClass: 2
Flags: W
LayerCount: 2
Fore
SplineSet
673 294 m 1,0,1
 520 294 520 294 481 294 c 128,-1,2
 442 294 442 294 403 294 c 128,-1,3
 364 294 364 294 228 294 c 1,4,-1
 91 157 l 1,5,6
 245 157 245 157 284 157 c 128,-1,7
 323 157 323 157 362 157 c 128,-1,8
 401 157 401 157 537 157 c 1,9,-1
 673 294 l 1,0,1
314 -66 m 1,10,-1
 451 71 l 1,11,12
 451 225 451 225 451 264 c 128,-1,13
 451 303 451 303 451 342 c 128,-1,14
 451 381 451 381 451 517 c 1,15,-1
 314 380 l 1,16,17
 314 226 314 226 314 187 c 128,-1,18
 314 148 314 148 314 109 c 128,-1,19
 314 70 314 70 314 -66 c 1,10,-1
EndSplineSet
EndChar

StartChar: koma
Encoding: 10 44 10
Width: 280
GlyphClass: 2
Flags: W
LayerCount: 2
Fore
SplineSet
176 -60 m 1,0,-1
 110 -125 l 1,1,-1
 108 -125 l 2,2,3
 107 -124 107 -124 107 -123 c 0,4,5
 150 -72 150 -72 152 -35 c 0,6,7
 154 -5 154 -5 143 11 c 0,8,9
 123 34 123 34 103 51 c 0,10,11
 95 58 95 58 90 63 c 1,12,-1
 193 166 l 1,13,14
 198 161 198 161 206 154 c 0,15,16
 235 130 235 130 262.5 95 c 128,-1,17
 290 60 290 60 269 33 c 1,18,-1
 176 -60 l 1,0,-1
EndSplineSet
EndChar

StartChar: hyphen
Encoding: 11 45 11
Width: 672
GlyphClass: 2
Flags: W
LayerCount: 2
Fore
SplineSet
672 265 m 1,0,-1
 535 129 l 1,1,2
 382 129 382 129 343 129 c 128,-1,3
 304 129 304 129 265 129 c 128,-1,4
 226 129 226 129 90 129 c 1,5,-1
 227 265 l 1,6,7
 381 265 381 265 420 265 c 128,-1,8
 459 265 459 265 498 265 c 128,-1,9
 537 265 537 265 672 265 c 1,0,-1
EndSplineSet
EndChar

StartChar: noktah
Encoding: 12 46 12
Width: 278
GlyphClass: 2
Flags: W
LayerCount: 2
Fore
SplineSet
269 94 m 2,0,-1
 176 1 l 2,1,2
 175 1 175 1 174 1 c 0,3,4
 173 2 173 2 173 3 c 0,5,6
 179 35 179 35 145 71 c 128,-1,7
 111 107 111 107 90 124 c 1,8,-1
 193 227 l 1,9,10
 207 215 207 215 232 191 c 128,-1,11
 257 167 257 167 271.5 140.5 c 128,-1,12
 286 114 286 114 269 94 c 2,0,-1
EndSplineSet
EndChar

StartChar: slash
Encoding: 13 47 13
Width: 473
GlyphClass: 2
Flags: W
LayerCount: 2
Fore
SplineSet
473 707 m 1,0,-1
 305 610 l 1,1,2
 198 209 198 209 90 -191 c 1,3,-1
 258 -94 l 1,4,5
 365 306 365 306 473 707 c 1,0,-1
EndSplineSet
EndChar

StartChar: colon
Encoding: 14 58 14
Width: 280
GlyphClass: 2
Flags: W
LayerCount: 2
Fore
SplineSet
269 94 m 2,0,-1
 176 1 l 2,1,2
 175 1 175 1 174 1 c 0,3,4
 173 2 173 2 173 3 c 0,5,6
 179 35 179 35 145 71 c 128,-1,7
 111 107 111 107 90 124 c 1,8,-1
 193 227 l 1,9,10
 207 215 207 215 232 191 c 128,-1,11
 257 167 257 167 271.5 140.5 c 128,-1,12
 286 114 286 114 269 94 c 2,0,-1
269 398 m 2,13,-1
 176 305 l 2,14,15
 175 305 175 305 174 305 c 0,16,17
 173 306 173 306 173 307 c 0,18,19
 179 339 179 339 145 375 c 128,-1,20
 111 411 111 411 90 428 c 1,21,-1
 193 531 l 1,22,23
 207 519 207 519 232 495 c 128,-1,24
 257 471 257 471 271.5 444.5 c 128,-1,25
 286 418 286 418 269 398 c 2,13,-1
EndSplineSet
EndChar

StartChar: koma-bernoktah
Encoding: 15 59 15
Width: 280
GlyphClass: 2
Flags: W
LayerCount: 2
Fore
SplineSet
269 398 m 2,0,-1
 176 305 l 2,1,2
 175 305 175 305 174 305 c 0,3,4
 173 306 173 306 173 307 c 0,5,6
 179 339 179 339 145 375 c 128,-1,7
 111 411 111 411 90 428 c 1,8,-1
 193 531 l 1,9,10
 207 519 207 519 232 495 c 128,-1,11
 257 471 257 471 271.5 444.5 c 128,-1,12
 286 418 286 418 269 398 c 2,0,-1
176 -60 m 1,13,-1
 110 -125 l 1,14,-1
 108 -125 l 2,15,16
 107 -124 107 -124 107 -123 c 0,17,18
 150 -72 150 -72 152 -35 c 0,19,20
 154 -5 154 -5 143 11 c 0,21,22
 123 34 123 34 103 51 c 0,23,24
 95 58 95 58 90 63 c 1,25,-1
 193 166 l 1,26,27
 198 161 198 161 206 154 c 0,28,29
 235 130 235 130 262.5 95 c 128,-1,30
 290 60 290 60 269 33 c 1,31,-1
 176 -60 l 1,13,-1
EndSplineSet
EndChar

StartChar: equal
Encoding: 16 61 16
Width: 672
GlyphClass: 2
Flags: W
LayerCount: 2
Fore
SplineSet
672 368 m 1,0,-1
 535 232 l 1,1,2
 382 232 382 232 343 232 c 128,-1,3
 304 232 304 232 265 232 c 128,-1,4
 226 232 226 232 90 232 c 1,5,-1
 227 368 l 1,6,7
 381 368 381 368 420 368 c 128,-1,8
 459 368 459 368 498 368 c 128,-1,9
 537 368 537 368 672 368 c 1,0,-1
672 158 m 1,10,-1
 535 22 l 1,11,12
 382 22 382 22 343 22 c 128,-1,13
 304 22 304 22 265 22 c 128,-1,14
 226 22 226 22 90 22 c 1,15,-1
 227 158 l 1,16,17
 381 158 381 158 420 158 c 128,-1,18
 459 158 459 158 498 158 c 128,-1,19
 537 158 537 158 672 158 c 1,10,-1
EndSplineSet
EndChar

StartChar: braceleft
Encoding: 17 123 17
Width: 422
GlyphClass: 2
Flags: W
LayerCount: 2
Fore
SplineSet
308 -194 m 2,0,1
 266 -152 266 -152 228 -165 c 1,2,3
 228 220 228 220 228 606 c 1,4,5
 266 592 266 592 308 634 c 2,6,-1
 421 748 l 2,7,8
 422 749 422 749 422 750 c 0,9,10
 421 751 421 751 419 751 c 0,11,12
 380 726 380 726 337 756.5 c 128,-1,13
 294 787 294 787 228 856 c 1,14,-1
 91 720 l 1,15,16
 91 220 91 220 91 -279 c 1,17,-1
 228 -416 l 1,18,19
 294 -346 294 -346 337 -315.5 c 128,-1,20
 380 -285 380 -285 419 -310 c 0,21,22
 421 -311 421 -311 422 -310 c 0,23,24
 422 -309 422 -309 421 -308 c 2,25,-1
 308 -194 l 2,0,1
EndSplineSet
EndChar

StartChar: bar
Encoding: 18 124 18
Width: 227
GlyphClass: 2
Flags: W
LayerCount: 2
Fore
SplineSet
228 866 m 1,0,-1
 91 729 l 1,1,2
 91 269 91 269 91 -292 c 1,3,-1
 228 -155 l 1,4,5
 228 305 228 305 228 866 c 1,0,-1
EndSplineSet
EndChar

StartChar: braceright
Encoding: 19 125 19
Width: 422
GlyphClass: 2
Flags: W
LayerCount: 2
Fore
SplineSet
205 -194 m 2,0,-1
 91 -308 l 2,1,2
 90 -309 90 -309 91 -310 c 256,3,4
 92 -311 92 -311 93 -310 c 0,5,6
 133 -285 133 -285 175.5 -315.5 c 128,-1,7
 218 -346 218 -346 285 -416 c 1,8,-1
 422 -279 l 1,9,10
 422 220 422 220 422 720 c 1,11,-1
 285 856 l 1,12,13
 218 787 218 787 175.5 756.5 c 128,-1,14
 133 726 133 726 93 751 c 0,15,16
 92 751 92 751 91 750 c 256,17,18
 90 749 90 749 91 748 c 2,19,-1
 205 634 l 2,20,21
 247 592 247 592 285 606 c 1,22,23
 285 220 285 220 285 -165 c 1,24,25
 247 -152 247 -152 205 -194 c 2,0,-1
EndSplineSet
EndChar

StartChar: tilde
Encoding: 20 126 20
Width: 832
GlyphClass: 2
Flags: W
LayerCount: 2
Fore
SplineSet
829 417 m 0,0,1
 830 418 830 418 831 417 c 256,2,3
 832 416 832 416 831 415 c 2,4,-1
 722 306 l 2,5,6
 650 238 650 238 568.5 246 c 128,-1,7
 487 254 487 254 403 291 c 128,-1,8
 319 328 319 328 239.5 348.5 c 128,-1,9
 160 369 160 369 93 328 c 0,10,11
 92 327 92 327 91 328 c 256,12,13
 90 329 90 329 91 330 c 2,14,-1
 203 442 l 2,15,16
 267 502 267 502 344.5 490.5 c 128,-1,17
 422 479 422 479 506 441.5 c 128,-1,18
 590 404 590 404 672.5 386.5 c 128,-1,19
 755 369 755 369 829 417 c 0,0,1
EndSplineSet
EndChar

StartChar: koma.arab
Encoding: 22 1548 21
Width: 278
GlyphClass: 2
Flags: W
LayerCount: 2
Fore
SplineSet
192 101 m 1,0,-1
 258 166 l 2,1,2
 259 167 259 167 260 166 c 256,3,4
 261 165 261 165 261 164 c 0,5,6
 218 114 218 114 217 77 c 0,7,8
 215 46 215 46 225 30 c 0,9,10
 245 7 245 7 265 -10 c 0,11,12
 273 -17 273 -17 278 -22 c 1,13,-1
 175 -125 l 1,14,15
 170 -120 170 -120 162 -113 c 0,16,17
 134 -89 134 -89 106.5 -53.5 c 128,-1,18
 79 -18 79 -18 100 8 c 2,19,-1
 187 96 l 1,20,-1
 192 101 l 1,0,-1
EndSplineSet
EndChar

StartChar: koma-bernoktah.arab
Encoding: 23 1563 22
Width: 278
GlyphClass: 2
Flags: W
LayerCount: 2
Fore
SplineSet
100 134 m 2,0,-1
 192 227 l 2,1,2
 193 228 193 228 194 227 c 256,3,4
 195 226 195 226 195 225 c 0,5,6
 189 193 189 193 223.5 157 c 128,-1,7
 258 121 258 121 278 104 c 1,8,-1
 175 1 l 1,9,10
 162 13 162 13 137 37 c 128,-1,11
 112 61 112 61 97 87.5 c 128,-1,12
 82 114 82 114 100 134 c 2,0,-1
192 592 m 1,13,-1
 258 657 l 2,14,15
 259 658 259 658 260 657 c 256,16,17
 261 656 261 656 261 655 c 0,18,19
 218 605 218 605 217 568 c 0,20,21
 215 537 215 537 225 521 c 0,22,23
 245 498 245 498 265 481 c 0,24,25
 273 474 273 474 278 469 c 1,26,-1
 175 366 l 1,27,28
 170 371 170 371 162 378 c 0,29,30
 134 402 134 402 106.5 437.5 c 128,-1,31
 79 473 79 473 100 499 c 2,32,-1
 187 587 l 1,33,-1
 192 592 l 1,13,-1
EndSplineSet
EndChar

StartChar: soal
Encoding: 24 1567 23
Width: 549
GlyphClass: 2
Flags: W
LayerCount: 2
Fore
SplineSet
345 -118 m 1,0,-1
 345 -118 l 1,1,2
 345 -120 345 -120 346 -120 c 0,3,4
 347 -121 347 -121 348 -120 c 2,5,-1
 465 -3 l 2,6,7
 509 44 509 44 478 85.5 c 128,-1,8
 447 127 447 127 385 172.5 c 128,-1,9
 323 218 323 218 273 276.5 c 128,-1,10
 223 335 223 335 229 415 c 1,11,12
 264 386 264 386 312.5 353 c 128,-1,13
 361 320 361 320 392 284.5 c 128,-1,14
 423 249 423 249 406 212 c 0,15,16
 406 211 406 211 407 210 c 256,17,18
 408 209 408 209 409 210 c 2,19,-1
 529 330 l 2,20,21
 564 369 564 369 539.5 406.5 c 128,-1,22
 515 444 515 444 464.5 479 c 128,-1,23
 414 514 414 514 374 545 c 128,-1,24
 334 576 334 576 339 601 c 0,25,26
 339 603 339 603 338 603 c 0,27,28
 337 604 337 604 336 603 c 2,29,-1
 210 476 l 2,30,31
 105 369 105 369 93.5 290 c 128,-1,32
 82 211 82 211 126 153 c 128,-1,33
 170 95 170 95 230.5 50 c 128,-1,34
 291 5 291 5 329 -35 c 128,-1,35
 367 -75 367 -75 345 -118 c 1,0,-1
471 -246 m 1,36,-1
 471 -246 l 1,37,-1
 379 -339 l 2,38,39
 378 -339 378 -339 377 -339 c 0,40,41
 376 -338 376 -338 376 -337 c 0,42,43
 382 -305 382 -305 347.5 -269 c 128,-1,44
 313 -233 313 -233 293 -216 c 1,45,-1
 396 -113 l 1,46,47
 409 -125 409 -125 434 -149 c 128,-1,48
 459 -173 459 -173 474 -199.5 c 128,-1,49
 489 -226 489 -226 471 -246 c 1,36,-1
EndSplineSet
EndChar

StartChar: hamzah
Encoding: 25 1569 24
AltUni2: 00fe80.ffffffff.0
Width: 697
GlyphClass: 2
Flags: W
AnchorPoint: "Anchor-1" 340 -180 basechar 0
AnchorPoint: "Anchor-0" 347 689 basechar 0
LayerCount: 2
Fore
SplineSet
133 107 m 1,0,-1
 11 -16 l 2,1,2
 10 -17 10 -17 11 -18 c 256,3,4
 12 -19 12 -19 13 -18 c 0,5,6
 51 0 51 0 117 2 c 128,-1,7
 183 4 183 4 261 3 c 0,8,9
 406 3 406 3 560 2 c 1,10,11
 646 88 646 88 697 139 c 1,12,13
 579 140 579 140 485.5 168.5 c 128,-1,14
 392 197 392 197 346 253 c 128,-1,15
 300 309 300 309 328 391 c 1,16,17
 367 381 367 381 414.5 353.5 c 128,-1,18
 462 326 462 326 489 288.5 c 128,-1,19
 516 251 516 251 495 210 c 0,20,21
 494 209 494 209 495 208 c 256,22,23
 496 207 496 207 497 208 c 2,24,-1
 615 326 l 2,25,26
 654 368 654 368 635.5 408 c 128,-1,27
 617 448 617 448 570.5 478.5 c 128,-1,28
 524 509 524 509 480 523 c 128,-1,29
 436 537 436 537 424 528 c 2,30,-1
 287 392 l 2,31,32
 208 312 208 312 188.5 247.5 c 128,-1,33
 169 183 169 183 196 136 c 1,34,35
 157 129 157 129 133 107 c 1,0,-1
EndSplineSet
PairPos2: "'kern' Hamzah" ZWNJ dx=1 dy=0 dh=1 dv=0 dx=0 dy=0 dh=0 dv=0
PairPos2: "'kern' Hamzah" yehyehsarabi dx=0 dy=170 dh=0 dv=0 dx=0 dy=0 dh=0 dv=0
PairPos2: "'kern' Hamzah" yehyehhamzaasarabi dx=0 dy=170 dh=0 dv=0 dx=0 dy=0 dh=0 dv=0
PairPos2: "'kern' Hamzah" noonyehhamzaasarabi dx=0 dy=170 dh=0 dv=0 dx=0 dy=0 dh=0 dv=0
PairPos2: "'kern' Hamzah" yehyehhamzaaarabi dx=1 dy=170 dh=1 dv=0 dx=0 dy=0 dh=0 dv=0
PairPos2: "'kern' Hamzah" yehyeharabi dx=1 dy=170 dh=1 dv=0 dx=0 dy=0 dh=0 dv=0
PairPos2: "'kern' Hamzah" yehthehsarabi dx=1 dy=170 dh=1 dv=0 dx=0 dy=0 dh=0 dv=0
PairPos2: "'kern' Hamzah" yehtheharabi dx=1 dy=170 dh=1 dv=0 dx=0 dy=0 dh=0 dv=0
PairPos2: "'kern' Hamzah" yehtehsarabi dx=1 dy=170 dh=1 dv=0 dx=0 dy=0 dh=0 dv=0
PairPos2: "'kern' Hamzah" yehteharabi dx=1 dy=170 dh=1 dv=0 dx=0 dy=0 dh=0 dv=0
PairPos2: "'kern' Hamzah" yehsarabo dx=1 dy=170 dh=1 dv=0 dx=0 dy=0 dh=0 dv=0
PairPos2: "'kern' Hamzah" yehnoonsarabi dx=1 dy=170 dh=1 dv=0 dx=0 dy=0 dh=0 dv=0
PairPos2: "'kern' Hamzah" yehsarabi dx=1 dy=170 dh=1 dv=0 dx=0 dy=0 dh=0 dv=0
PairPos2: "'kern' Hamzah" yehnoonarabi dx=1 dy=170 dh=1 dv=0 dx=0 dy=0 dh=0 dv=0
PairPos2: "'kern' Hamzah" yehbehsarabi dx=1 dy=170 dh=1 dv=0 dx=0 dy=0 dh=0 dv=0
PairPos2: "'kern' Hamzah" yehbeharabi dx=1 dy=170 dh=1 dv=0 dx=0 dy=0 dh=0 dv=0
PairPos2: "'kern' Hamzah" noonsarabo dx=1 dy=170 dh=1 dv=0 dx=0 dy=0 dh=0 dv=0
PairPos2: "'kern' Hamzah" noonyehsarabi dx=1 dy=170 dh=1 dv=0 dx=0 dy=0 dh=0 dv=0
PairPos2: "'kern' Hamzah" noonyehhamzaaarabi dx=1 dy=170 dh=1 dv=0 dx=0 dy=0 dh=0 dv=0
PairPos2: "'kern' Hamzah" noonyeharabi dx=1 dy=170 dh=1 dv=0 dx=0 dy=0 dh=0 dv=0
PairPos2: "'kern' Hamzah" noonthehsarabi dx=1 dy=170 dh=1 dv=0 dx=0 dy=0 dh=0 dv=0
PairPos2: "'kern' Hamzah" noontheharabi dx=1 dy=170 dh=1 dv=0 dx=0 dy=0 dh=0 dv=0
PairPos2: "'kern' Hamzah" noonteharabi dx=1 dy=170 dh=1 dv=0 dx=0 dy=0 dh=0 dv=0
PairPos2: "'kern' Hamzah" noonsarabi dx=1 dy=170 dh=1 dv=0 dx=0 dy=0 dh=0 dv=0
PairPos2: "'kern' Hamzah" noonnoonsarabi dx=1 dy=170 dh=1 dv=0 dx=0 dy=0 dh=0 dv=0
PairPos2: "'kern' Hamzah" noonnoonarabi dx=1 dy=170 dh=1 dv=0 dx=0 dy=0 dh=0 dv=0
PairPos2: "'kern' Hamzah" noonbehsarabi dx=1 dy=170 dh=1 dv=0 dx=0 dy=0 dh=0 dv=0
PairPos2: "'kern' Hamzah" noonbeharabi dx=1 dy=170 dh=1 dv=0 dx=0 dy=0 dh=0 dv=0
PairPos2: "'kern' Hamzah" ya.init dx=0 dy=170 dh=0 dv=0 dx=0 dy=0 dh=0 dv=0
PairPos2: "'kern' Hamzah" ya dx=0 dy=170 dh=0 dv=0 dx=0 dy=0 dh=0 dv=0
PairPos2: "'kern' Hamzah" wau dx=0 dy=170 dh=0 dv=0 dx=0 dy=0 dh=0 dv=0
PairPos2: "'kern' Hamzah" nun.init dx=0 dy=170 dh=0 dv=0 dx=0 dy=0 dh=0 dv=0
PairPos2: "'kern' Hamzah" nun dx=0 dy=170 dh=0 dv=0 dx=0 dy=0 dh=0 dv=0
PairPos2: "'kern' Hamzah" nga dx=0 dy=170 dh=0 dv=0 dx=0 dy=0 dh=0 dv=0
PairPos2: "'kern' Hamzah" hamzah-tigaSuku dx=-1 dy=170 dh=0 dv=0 dx=0 dy=0 dh=0 dv=0
Substitution2: "'isol' Isolated Forms in Arabic lookup 0 subtable" hamzah
EndChar

StartChar: alif-mad
Encoding: 26 1570 25
AltUni2: 00fe81.ffffffff.0
Width: 284
GlyphClass: 2
Flags: W
AnchorPoint: "Anchor-1" 138 -213 basechar 0
AnchorPoint: "Anchor-0" 188 1084 basechar 0
LayerCount: 2
Fore
SplineSet
228 513 m 1,0,-1
 341 626 l 1,2,3
 228 736 228 736 228 883 c 1,4,-1
 91 746 l 1,5,6
 91 286 91 286 91 9 c 0,7,8
 91 -47 91 -47 89 -75.5 c 128,-1,9
 87 -104 87 -104 78 -121 c 0,10,11
 77 -122 77 -122 78 -123 c 0,12,13
 79 -123 79 -123 80 -123 c 0,14,15
 140 -63 140 -63 199 -4 c 0,16,17
 219 15 219 15 223.5 44 c 128,-1,18
 228 73 228 73 228 146 c 2,19,-1
 228 513 l 1,0,-1
92 947 m 1,20,-1
 56 912 l 2,22,23
 55 911 55 911 56 910 c 256,24,25
 57 909 57 909 58 909 c 0,26,27
 92 925 92 925 139 925 c 128,-1,28
 186 925 186 925 228 925 c 128,-1,29
 270 925 270 925 288 940 c 2,30,-1
 328 980 l 2,31,32
 329 981 329 981 328 982 c 0,33,34
 328 983 328 983 326 983 c 0,35,36
 299 973 299 973 254 975 c 128,-1,37
 209 977 209 977 163.5 974 c 128,-1,38
 118 971 118 971 92 947 c 1,20,-1
EndSplineSet
Substitution2: "'fina' Terminal Forms in Arabic lookup 3 subtable" alif.fina_maddah
Substitution2: "'isol' Isolated Forms in Arabic lookup 0 subtable" alif-mad
EndChar

StartChar: alif-hamzah-ats
Encoding: 27 1571 26
AltUni2: 00fe83.ffffffff.0
Width: 284
GlyphClass: 2
Flags: W
AnchorPoint: "Anchor-1" 132 -202 basechar 0
AnchorPoint: "Anchor-0" 160 1209 basechar 0
LayerCount: 2
Fore
SplineSet
228 513 m 1,0,-1
 341 626 l 1,1,2
 228 736 228 736 228 883 c 1,3,-1
 91 746 l 1,4,5
 91 286 91 286 91 9 c 0,6,7
 91 -47 91 -47 89 -75.5 c 128,-1,8
 87 -104 87 -104 78 -121 c 0,9,10
 77 -122 77 -122 78 -123 c 0,11,12
 79 -123 79 -123 80 -123 c 0,13,14
 140 -63 140 -63 199 -4 c 0,15,16
 219 15 219 15 223.5 44 c 128,-1,17
 228 73 228 73 228 146 c 2,18,-1
 228 513 l 1,0,-1
269 923 m 1,19,-1
 321 975 l 1,20,21
 253 975 253 975 210 999.5 c 128,-1,22
 167 1024 167 1024 181 1071 c 1,23,24
 204 1065 204 1065 228.5 1046.5 c 128,-1,25
 253 1028 253 1028 246 1005 c 0,26,27
 246 1004 246 1004 246 1003 c 1,28,29
 247 1003 247 1003 248 1004 c 2,30,-1
 290 1046 l 2,31,32
 309 1067 309 1067 292 1086.5 c 128,-1,33
 275 1106 275 1106 250 1116.5 c 128,-1,34
 225 1127 225 1127 218 1123 c 2,35,-1
 166 1071 l 2,36,37
 108 1010 108 1010 131 974 c 1,38,39
 116 971 116 971 107 963 c 2,40,-1
 64 919 l 2,41,42
 63 919 63 919 64 918 c 0,43,44
 64 917 64 917 65 917 c 0,45,46
 90 925 90 925 162.5 924.5 c 128,-1,47
 235 924 235 924 269 923 c 1,19,-1
EndSplineSet
Substitution2: "'fina' Terminal Forms in Arabic lookup 3 subtable" alif_hamzah-ats
Substitution2: "'isol' Isolated Forms in Arabic lookup 0 subtable" alif-hamzah-ats
EndChar

StartChar: wau-hamzah
Encoding: 28 1572 27
AltUni2: 00fe85.ffffffff.0
Width: 630
GlyphClass: 2
Flags: W
AnchorPoint: "Anchor-1" 302 -436 basechar 0
AnchorPoint: "Anchor-0" 291 1062 basechar 0
LayerCount: 2
Fore
SplineSet
453 781 m 1,0,-1
 505 833 l 1,2,3
 437 833 437 833 394 857 c 128,-1,4
 351 881 351 881 365 928 c 1,5,6
 388 922 388 922 412.5 904 c 128,-1,7
 437 886 437 886 430 862 c 0,8,9
 429 862 429 862 430 861 c 0,10,11
 431 861 431 861 432 861 c 2,12,-1
 474 903 l 2,13,14
 493 925 493 925 476 944.5 c 128,-1,15
 459 964 459 964 433.5 974.5 c 128,-1,16
 408 985 408 985 401 980 c 2,17,-1
 349 928 l 2,18,19
 292 868 292 868 315 831 c 1,20,21
 300 829 300 829 291 820 c 2,22,-1
 248 777 l 2,23,24
 247 776 247 776 248 775 c 2,25,26
 248 775 248 775 249 775 c 0,27,28
 273 782 273 782 346 781.5 c 128,-1,29
 419 781 419 781 453 781 c 1,0,-1
311 -69 m 1,30,-1
 310 -69 l 1,31,32
 375 -6 375 -6 476 95 c 1,33,34
 507 -18 507 -18 465 -142 c 1,35,36
 431 -115 431 -115 396.5 -101.5 c 128,-1,37
 362 -88 362 -88 345 -101 c 2,38,-1
 217 -230 l 2,39,40
 216 -231 216 -231 217 -232 c 0,41,42
 217 -233 217 -233 218 -233 c 0,43,44
 244 -227 244 -227 284.5 -250 c 128,-1,45
 325 -273 325 -273 357 -304 c 1,46,47
 426 -236 426 -236 494 -168 c 0,48,49
 605 -52 605 -52 623 57 c 128,-1,50
 641 166 641 166 603.5 265.5 c 128,-1,51
 566 365 566 365 510.5 450 c 128,-1,52
 455 535 455 535 418 601.5 c 128,-1,53
 381 668 381 668 400 712 c 0,54,55
 400 713 400 713 399 714 c 256,56,57
 398 715 398 715 397 714 c 2,58,-1
 275 592 l 2,59,60
 130 447 130 447 101 341.5 c 128,-1,61
 72 236 72 236 131.5 141 c 128,-1,62
 191 46 191 46 311 -69 c 1,30,-1
254 521 m 1,63,64
 272 452 272 452 324 386 c 128,-1,65
 376 320 376 320 414.5 247.5 c 128,-1,66
 453 175 453 175 428 87 c 1,67,68
 306 205 306 205 254 304.5 c 128,-1,69
 202 404 202 404 254 521 c 1,63,64
EndSplineSet
Substitution2: "'fina' Terminal Forms in Arabic lookup 3 subtable" wau.fina_hamzah-ats
Substitution2: "'isol' Isolated Forms in Arabic lookup 0 subtable" wau-hamzah
EndChar

StartChar: alif-hamzah-bwh
Encoding: 29 1573 28
AltUni2: 00fe87.ffffffff.0
Width: 284
GlyphClass: 2
Flags: W
AnchorPoint: "Anchor-1" 117 -439 basechar 0
AnchorPoint: "Anchor-0" 145 961 basechar 0
LayerCount: 2
Fore
SplineSet
228 513 m 1,0,-1
 341 626 l 1,2,3
 228 736 228 736 228 883 c 1,4,-1
 91 746 l 1,5,6
 91 286 91 286 91 9 c 0,7,8
 91 -47 91 -47 89 -75.5 c 128,-1,9
 87 -104 87 -104 78 -121 c 0,10,11
 77 -122 77 -122 78 -123 c 0,12,13
 79 -123 79 -123 80 -123 c 0,14,15
 140 -63 140 -63 199 -4 c 0,16,17
 219 15 219 15 223.5 44 c 128,-1,18
 228 73 228 73 228 146 c 2,19,-1
 228 513 l 1,0,-1
213 -266 m 1,20,-1
 265 -214 l 1,22,23
 196 -214 196 -214 153 -189.5 c 128,-1,24
 110 -165 110 -165 125 -118 c 1,25,26
 148 -124 148 -124 172.5 -142.5 c 128,-1,27
 197 -161 197 -161 190 -184 c 0,28,29
 189 -185 189 -185 190 -186 c 0,30,31
 191 -186 191 -186 191 -185 c 2,32,-1
 234 -143 l 2,33,34
 253 -122 253 -122 236 -102.5 c 128,-1,35
 219 -83 219 -83 193.5 -72.5 c 128,-1,36
 168 -62 168 -62 161 -66 c 2,37,-1
 109 -118 l 2,38,39
 52 -179 52 -179 75 -215 c 1,40,41
 60 -218 60 -218 51 -226 c 2,42,-1
 8 -270 l 2,43,44
 7 -270 7 -270 7 -271 c 0,45,46
 8 -272 8 -272 9 -272 c 0,47,48
 33 -264 33 -264 106 -264.5 c 128,-1,49
 179 -265 179 -265 213 -266 c 1,20,-1
EndSplineSet
Substitution2: "'fina' Terminal Forms in Arabic lookup 3 subtable" alif.fina_hamzah-bwh
Substitution2: "'isol' Isolated Forms in Arabic lookup 0 subtable" alif-hamzah-bwh
EndChar

StartChar: ye-hamzah
Encoding: 30 1574 29
AltUni2: 00fe89.ffffffff.0
Width: 1052
GlyphClass: 2
Flags: W
AnchorPoint: "Anchor-1" 291 -205 basechar 0
AnchorPoint: "Anchor-0" 216 853 basechar 0
LayerCount: 2
Fore
SplineSet
238 514 m 1,0,-1
 238 514 l 1,1,2
 239 515 239 515 238 516 c 0,3,4
 237 516 237 516 236 515 c 2,5,-1
 111 391 l 2,6,7
 86 362 86 362 92 295 c 128,-1,8
 98 228 98 228 118 148 c 128,-1,9
 138 68 138 68 157 3 c 1,10,11
 536 3 536 3 916 2 c 1,12,-1
 1052 139 l 1,13,-1
 1040 139 l 1,14,15
 918 143 918 143 819 188 c 128,-1,16
 720 233 720 233 678 313 c 128,-1,17
 636 393 636 393 683 500 c 1,18,19
 729 487 729 487 783 436 c 128,-1,20
 837 385 837 385 867 320.5 c 128,-1,21
 897 256 897 256 872 204 c 0,22,23
 871 203 871 203 872 202 c 0,24,25
 873 202 873 202 874 202 c 2,26,-1
 994 322 l 2,27,28
 1033 365 1033 365 1015.5 425 c 128,-1,29
 998 485 998 485 951 540 c 128,-1,30
 904 595 904 595 854.5 622.5 c 128,-1,31
 805 650 805 650 779 629 c 2,32,-1
 642 492 l 2,33,34
 537 384 537 384 524 294.5 c 128,-1,35
 511 205 511 205 565 140 c 1,36,-1
 293 140 l 1,37,38
 266 233 266 233 241.5 344.5 c 128,-1,39
 217 456 217 456 238 514 c 1,0,-1
297 550 m 1,40,-1
 297 550 l 1,41,-1
 349 602 l 1,42,43
 281 602 281 602 238 626 c 128,-1,44
 195 650 195 650 209 697 c 1,45,46
 232 691 232 691 256.5 673 c 128,-1,47
 281 655 281 655 274 631 c 0,48,49
 273 631 273 631 274 630 c 0,50,51
 275 630 275 630 276 630 c 2,52,-1
 318 672 l 2,53,54
 337 694 337 694 320 713.5 c 128,-1,55
 303 733 303 733 277.5 743.5 c 128,-1,56
 252 754 252 754 245 749 c 2,57,-1
 193 697 l 2,58,59
 136 637 136 637 159 600 c 1,60,61
 144 598 144 598 135 589 c 2,62,-1
 92 546 l 2,63,64
 91 545 91 545 92 544 c 2,65,66
 92 544 92 544 93 544 c 0,67,68
 117 551 117 551 190 550.5 c 128,-1,69
 263 550 263 550 297 550 c 1,40,-1
EndSplineSet
Substitution2: "'fina' Terminal Forms in Arabic lookup 3 subtable" ye.fina_hamzah-ats
Substitution2: "'medi' Medial Forms in Arabic lookup 2 subtable" ye.medi_hamzah-ats
Substitution2: "'init' Initial Forms in Arabic lookup 1 subtable" ye.init_hamzah-ats
Substitution2: "'isol' Isolated Forms in Arabic lookup 0 subtable" ye-hamzah
EndChar

StartChar: alif
Encoding: 31 1575 30
AltUni2: 00fe8d.ffffffff.0
Width: 284
GlyphClass: 2
Flags: W
AnchorPoint: "Anchor-1" 124 -210 basechar 0
AnchorPoint: "Anchor-0" 115 964 basechar 0
LayerCount: 2
Fore
SplineSet
228 513 m 1,0,-1
 228 513 l 1,1,-1
 341 626 l 1,2,3
 228 736 228 736 228 883 c 1,4,-1
 91 746 l 1,5,6
 91 286 91 286 91 9 c 0,7,8
 91 -47 91 -47 89 -75.5 c 128,-1,9
 87 -104 87 -104 78 -121 c 0,10,11
 77 -122 77 -122 78 -123 c 0,12,13
 79 -123 79 -123 80 -123 c 0,14,15
 140 -63 140 -63 199 -4 c 0,16,17
 219 15 219 15 223.5 44 c 128,-1,18
 228 73 228 73 228 146 c 2,19,-1
 228 513 l 1,0,-1
EndSplineSet
Substitution2: "'fina' Terminal Forms in Arabic lookup 3 subtable" alif.fina
Substitution2: "'isol' Isolated Forms in Arabic lookup 0 subtable" alif
EndChar

StartChar: ba
Encoding: 32 1576 31
AltUni2: 00fe8f.ffffffff.0
Width: 957
GlyphClass: 2
Flags: W
AnchorPoint: "Anchor-1" 284 -439 basechar 0
AnchorPoint: "Anchor-0" 400 700 basechar 0
LayerCount: 2
Fore
SplineSet
238 514 m 1,0,-1
 238 514 l 1,1,2
 238 515 238 515 237 516 c 0,3,4
 236 516 236 516 235 515 c 2,5,-1
 111 391 l 2,6,7
 86 362 86 362 91.5 295 c 128,-1,8
 97 228 97 228 117.5 148 c 128,-1,9
 138 68 138 68 156 3 c 1,10,11
 397 3 397 3 402 3 c 0,12,13
 446 44 446 44 501 33.5 c 128,-1,14
 556 23 556 23 607.5 -12.5 c 128,-1,15
 659 -48 659 -48 693 -83 c 1,16,17
 781 6 781 6 872 97 c 0,18,19
 963 192 963 192 958 273 c 128,-1,20
 953 354 953 354 904.5 422.5 c 128,-1,21
 856 491 856 491 816.5 548.5 c 128,-1,22
 777 606 777 606 800 654 c 0,23,24
 801 655 801 655 800 656 c 256,25,26
 799 657 799 657 798 656 c 2,27,-1
 679 537 l 2,28,29
 640 495 640 495 662 446 c 128,-1,30
 684 397 684 397 729.5 340 c 128,-1,31
 775 283 775 283 804.5 216.5 c 128,-1,32
 834 150 834 150 811 72 c 1,33,34
 734 143 734 143 659 164.5 c 128,-1,35
 584 186 584 186 534 139 c 1,36,37
 516 140 516 140 293 140 c 1,38,39
 266 233 266 233 241 344.5 c 128,-1,40
 216 456 216 456 238 514 c 1,0,-1
577 -245 m 2,41,-1
 484 -338 l 2,42,43
 483 -338 483 -338 482 -338 c 0,44,45
 481 -337 481 -337 481 -336 c 0,46,47
 487 -304 487 -304 453 -268 c 128,-1,48
 419 -232 419 -232 398 -215 c 1,49,-1
 501 -112 l 1,50,51
 515 -124 515 -124 540 -148 c 128,-1,52
 565 -172 565 -172 579.5 -198.5 c 128,-1,53
 594 -225 594 -225 577 -245 c 2,41,-1
EndSplineSet
Substitution2: "'fina' Terminal Forms in Arabic lookup 3 subtable" ba.fina
Substitution2: "'medi' Medial Forms in Arabic lookup 2 subtable" ba.medi
Substitution2: "'init' Initial Forms in Arabic lookup 1 subtable" ba.init
Substitution2: "'isol' Isolated Forms in Arabic lookup 0 subtable" ba
EndChar

StartChar: ta-bulat
Encoding: 33 1577 32
AltUni2: 00fe93.ffffffff.0
Width: 574
GlyphClass: 2
Flags: W
AnchorPoint: "Anchor-1" 282 -207 basechar 0
AnchorPoint: "Anchor-0" 285 1198 basechar 0
LayerCount: 2
Fore
SplineSet
253 507 m 1,0,1
 268 452 268 452 320.5 384.5 c 128,-1,2
 373 317 373 317 412 239 c 128,-1,3
 451 161 451 161 428 73 c 1,4,5
 305 191 305 191 253.5 291 c 128,-1,6
 202 391 202 391 253 507 c 1,0,1
310 -83 m 1,7,-1
 310 -83 l 1,8,9
 389 -4 389 -4 491 96 c 1,10,11
 582 193 582 193 573.5 279.5 c 128,-1,12
 565 366 565 366 512 442 c 128,-1,13
 459 518 459 518 416.5 582 c 128,-1,14
 374 646 374 646 397 696 c 0,15,16
 397 697 397 697 396 698 c 256,17,18
 395 699 395 699 394 698 c 2,19,-1
 274 578 l 2,20,21
 129 433 129 433 100 328 c 128,-1,22
 71 223 71 223 130.5 127.5 c 128,-1,23
 190 32 190 32 310 -83 c 1,7,-1
514 843 m 1,24,-1
 514 843 l 1,25,-1
 421 751 l 2,26,27
 420 750 420 750 419 750 c 0,28,29
 418 751 418 751 419 752 c 0,30,31
 424 784 424 784 390 820 c 128,-1,32
 356 856 356 856 336 874 c 1,33,-1
 438 976 l 1,34,35
 452 964 452 964 477 940 c 128,-1,36
 502 916 502 916 516.5 889.5 c 128,-1,37
 531 863 531 863 514 843 c 1,24,-1
343 843 m 1,38,-1
 343 843 l 1,39,-1
 250 751 l 2,40,41
 249 750 249 750 248 750 c 0,42,43
 247 751 247 751 247 752 c 0,44,45
 253 784 253 784 219 820 c 128,-1,46
 185 856 185 856 164 874 c 1,47,-1
 267 976 l 1,48,49
 281 964 281 964 306 940 c 128,-1,50
 331 916 331 916 345.5 889.5 c 128,-1,51
 360 863 360 863 343 843 c 1,38,-1
EndSplineSet
Substitution2: "'fina' Terminal Forms in Arabic lookup 3 subtable" ta-bulat.fina
Substitution2: "'isol' Isolated Forms in Arabic lookup 0 subtable" ta-bulat
EndChar

StartChar: ta
Encoding: 34 1578 33
AltUni2: 00fe95.ffffffff.0
Width: 958
GlyphClass: 2
Flags: W
AnchorPoint: "Anchor-1" 284 -207 basechar 0
AnchorPoint: "Anchor-0" 400 902 basechar 0
LayerCount: 2
Fore
SplineSet
649 644 m 2,0,-1
 557 551 l 2,1,2
 556 551 556 551 555 551 c 0,3,4
 554 552 554 552 554 553 c 0,5,6
 560 585 560 585 525.5 621 c 128,-1,7
 491 657 491 657 471 674 c 1,8,-1
 574 777 l 1,9,10
 588 765 588 765 613 741 c 128,-1,11
 638 717 638 717 652.5 690.5 c 128,-1,12
 667 664 667 664 649 644 c 2,0,-1
478 644 m 2,13,-1
 386 551 l 2,14,15
 385 551 385 551 384 551 c 0,16,17
 383 552 383 552 383 553 c 0,18,19
 389 585 389 585 354.5 621 c 128,-1,20
 320 657 320 657 300 674 c 1,21,-1
 403 777 l 1,22,23
 416 765 416 765 441 741 c 128,-1,24
 466 717 466 717 481 690.5 c 128,-1,25
 496 664 496 664 478 644 c 2,13,-1
238 514 m 1,26,-1
 238 514 l 1,27,28
 238 515 238 515 237 516 c 0,29,30
 236 516 236 516 235 515 c 2,31,-1
 111 391 l 2,32,33
 86 362 86 362 91.5 295 c 128,-1,34
 97 228 97 228 117.5 148 c 128,-1,35
 138 68 138 68 156 3 c 1,36,37
 397 3 397 3 402 3 c 0,38,39
 446 44 446 44 501 33.5 c 128,-1,40
 556 23 556 23 607.5 -12.5 c 128,-1,41
 659 -48 659 -48 693 -83 c 1,42,43
 781 6 781 6 872 97 c 0,44,45
 963 192 963 192 958 273 c 128,-1,46
 953 354 953 354 904.5 422.5 c 128,-1,47
 856 491 856 491 816.5 548.5 c 128,-1,48
 777 606 777 606 800 654 c 0,49,50
 801 655 801 655 800 656 c 256,51,52
 799 657 799 657 798 656 c 2,53,-1
 679 537 l 2,54,55
 640 495 640 495 662 446 c 128,-1,56
 684 397 684 397 729.5 340 c 128,-1,57
 775 283 775 283 804.5 216.5 c 128,-1,58
 834 150 834 150 811 72 c 1,59,60
 734 143 734 143 659 164.5 c 128,-1,61
 584 186 584 186 534 139 c 1,62,63
 516 140 516 140 293 140 c 1,64,65
 266 233 266 233 241 344.5 c 128,-1,66
 216 456 216 456 238 514 c 1,26,-1
EndSplineSet
Substitution2: "'fina' Terminal Forms in Arabic lookup 3 subtable" ta.fina
Substitution2: "'medi' Medial Forms in Arabic lookup 2 subtable" ta.medi
Substitution2: "'init' Initial Forms in Arabic lookup 1 subtable" ta.init
Substitution2: "'isol' Isolated Forms in Arabic lookup 0 subtable" ta
EndChar

StartChar: tha
Encoding: 35 1579 34
AltUni2: 00fe99.ffffffff.0
Width: 958
GlyphClass: 2
Flags: W
AnchorPoint: "Anchor-1" 288 -210 basechar 0
AnchorPoint: "Anchor-0" 288 995 basechar 0
LayerCount: 2
Fore
SplineSet
577 844 m 2,0,-1
 484 751 l 2,1,2
 483 750 483 750 482 751 c 256,3,4
 481 752 481 752 481 753 c 0,5,6
 487 785 487 785 453 820.5 c 128,-1,7
 419 856 419 856 398 874 c 1,8,-1
 501 977 l 1,9,10
 515 965 515 965 540 941 c 128,-1,11
 565 917 565 917 579.5 890.5 c 128,-1,12
 594 864 594 864 577 844 c 2,0,-1
649 644 m 2,13,-1
 557 551 l 2,14,15
 556 551 556 551 555 551 c 0,16,17
 554 552 554 552 554 553 c 0,18,19
 560 585 560 585 525.5 621 c 128,-1,20
 491 657 491 657 471 674 c 1,21,-1
 574 777 l 1,22,23
 588 765 588 765 613 741 c 128,-1,24
 638 717 638 717 652.5 690.5 c 128,-1,25
 667 664 667 664 649 644 c 2,13,-1
478 644 m 2,26,-1
 386 551 l 2,27,28
 385 551 385 551 384 551 c 0,29,30
 383 552 383 552 383 553 c 0,31,32
 389 585 389 585 354.5 621 c 128,-1,33
 320 657 320 657 300 674 c 1,34,-1
 403 777 l 1,35,36
 416 765 416 765 441 741 c 128,-1,37
 466 717 466 717 481 690.5 c 128,-1,38
 496 664 496 664 478 644 c 2,26,-1
238 514 m 1,39,-1
 238 514 l 1,40,41
 238 515 238 515 237 516 c 0,42,43
 236 516 236 516 235 515 c 2,44,-1
 111 391 l 2,45,46
 86 362 86 362 91.5 295 c 128,-1,47
 97 228 97 228 117.5 148 c 128,-1,48
 138 68 138 68 156 3 c 1,49,50
 397 3 397 3 402 3 c 0,51,52
 446 44 446 44 501 33.5 c 128,-1,53
 556 23 556 23 607.5 -12.5 c 128,-1,54
 659 -48 659 -48 693 -83 c 1,55,56
 781 6 781 6 872 97 c 0,57,58
 963 192 963 192 958 273 c 128,-1,59
 953 354 953 354 904.5 422.5 c 128,-1,60
 856 491 856 491 816.5 548.5 c 128,-1,61
 777 606 777 606 800 654 c 0,62,63
 801 655 801 655 800 656 c 256,64,65
 799 657 799 657 798 656 c 2,66,-1
 679 537 l 2,67,68
 640 495 640 495 662 446 c 128,-1,69
 684 397 684 397 729.5 340 c 128,-1,70
 775 283 775 283 804.5 216.5 c 128,-1,71
 834 150 834 150 811 72 c 1,72,73
 734 143 734 143 659 164.5 c 128,-1,74
 584 186 584 186 534 139 c 1,75,76
 516 140 516 140 293 140 c 1,77,78
 266 233 266 233 241 344.5 c 128,-1,79
 216 456 216 456 238 514 c 1,39,-1
EndSplineSet
Substitution2: "'fina' Terminal Forms in Arabic lookup 3 subtable" tha.fina
Substitution2: "'medi' Medial Forms in Arabic lookup 2 subtable" tha.medi
Substitution2: "'init' Initial Forms in Arabic lookup 1 subtable" tha.init
Substitution2: "'isol' Isolated Forms in Arabic lookup 0 subtable" tha
EndChar

StartChar: jim
Encoding: 36 1580 35
AltUni2: 00fe9d.ffffffff.0
Width: 797
GlyphClass: 2
Flags: W
AnchorPoint: "Anchor-1" 121 -686 basechar 0
AnchorPoint: "Anchor-0" 282 847 basechar 0
LayerCount: 2
Fore
SplineSet
660 -83 m 1,0,-1
 660 -83 l 1,1,-1
 797 54 l 1,2,3
 513 338 513 338 414 475 c 128,-1,4
 315 612 315 612 343 657 c 0,5,6
 343 658 343 658 342 659 c 0,7,8
 341 659 341 659 340 659 c 2,9,-1
 216 535 l 1,10,11
 179 504 179 504 229 411.5 c 128,-1,12
 279 319 279 319 455 128 c 1,13,14
 367 105 367 105 301 42 c 2,15,-1
 165 -95 l 2,16,17
 99 -159 99 -159 92 -256.5 c 128,-1,18
 85 -354 85 -354 166 -478 c 0,19,20
 195 -518 195 -518 255.5 -604 c 128,-1,21
 316 -690 316 -690 355 -785.5 c 128,-1,22
 394 -881 394 -881 359 -949 c 0,23,24
 358 -951 358 -951 359 -951 c 0,25,26
 360 -952 360 -952 361 -951 c 2,27,-1
 480 -833 l 2,28,29
 522 -787 522 -787 509.5 -717 c 128,-1,30
 497 -647 497 -647 455.5 -571.5 c 128,-1,31
 414 -496 414 -496 369.5 -434 c 128,-1,32
 325 -372 325 -372 303 -341 c 0,33,34
 242 -250 242 -250 231.5 -173 c 128,-1,35
 221 -96 221 -96 248 -36 c 1,36,37
 348 14 348 14 462.5 4.5 c 128,-1,38
 577 -5 577 -5 660 -83 c 1,0,-1
494 -245 m 2,39,-1
 401 -338 l 2,40,41
 400 -338 400 -338 399 -338 c 0,42,43
 398 -337 398 -337 398 -336 c 0,44,45
 404 -304 404 -304 369.5 -268 c 128,-1,46
 335 -232 335 -232 315 -215 c 1,47,-1
 418 -112 l 1,48,49
 432 -124 432 -124 457 -148 c 128,-1,50
 482 -172 482 -172 496.5 -198.5 c 128,-1,51
 511 -225 511 -225 494 -245 c 2,39,-1
EndSplineSet
Substitution2: "'fina' Terminal Forms in Arabic lookup 3 subtable" jim.fina
Substitution2: "'medi' Medial Forms in Arabic lookup 2 subtable" jim.medi
Substitution2: "'init' Initial Forms in Arabic lookup 1 subtable" jim.init
Substitution2: "'isol' Isolated Forms in Arabic lookup 0 subtable" jim
EndChar

StartChar: ha-pedas
Encoding: 37 1581 36
AltUni2: 00fea1.ffffffff.0
Width: 797
GlyphClass: 2
Flags: W
AnchorPoint: "Anchor-1" 117 -686 basechar 0
AnchorPoint: "Anchor-0" 286 850 basechar 0
LayerCount: 2
Fore
SplineSet
660 -83 m 1,0,-1
 660 -83 l 1,1,-1
 797 54 l 1,2,3
 513 338 513 338 414 475 c 128,-1,4
 315 612 315 612 343 657 c 0,5,6
 343 658 343 658 342 659 c 0,7,8
 341 659 341 659 340 659 c 2,9,-1
 216 535 l 1,10,11
 179 504 179 504 229 411.5 c 128,-1,12
 279 319 279 319 455 128 c 1,13,14
 367 105 367 105 301 42 c 2,15,-1
 165 -95 l 2,16,17
 99 -159 99 -159 92 -256.5 c 128,-1,18
 85 -354 85 -354 166 -478 c 0,19,20
 195 -518 195 -518 255.5 -604 c 128,-1,21
 316 -690 316 -690 355 -785.5 c 128,-1,22
 394 -881 394 -881 359 -949 c 0,23,24
 358 -951 358 -951 359 -951 c 0,25,26
 360 -952 360 -952 361 -951 c 2,27,-1
 480 -833 l 2,28,29
 522 -787 522 -787 509.5 -717 c 128,-1,30
 497 -647 497 -647 455.5 -571.5 c 128,-1,31
 414 -496 414 -496 369.5 -434 c 128,-1,32
 325 -372 325 -372 303 -341 c 0,33,34
 242 -250 242 -250 231.5 -173 c 128,-1,35
 221 -96 221 -96 248 -36 c 1,36,37
 348 14 348 14 462.5 4.5 c 128,-1,38
 577 -5 577 -5 660 -83 c 1,0,-1
EndSplineSet
Substitution2: "'fina' Terminal Forms in Arabic lookup 3 subtable" ha-pedas.fina
Substitution2: "'medi' Medial Forms in Arabic lookup 2 subtable" ha-pedas.medi
Substitution2: "'init' Initial Forms in Arabic lookup 1 subtable" ha-pedas.init
Substitution2: "'isol' Isolated Forms in Arabic lookup 0 subtable" ha-pedas
EndChar

StartChar: kha
Encoding: 38 1582 37
AltUni2: 00fea5.ffffffff.0
Width: 797
GlyphClass: 2
Flags: W
AnchorPoint: "Anchor-1" 118 -686 basechar 0
AnchorPoint: "Anchor-0" 288 1065 basechar 0
LayerCount: 2
Fore
SplineSet
494 844 m 2,0,-1
 401 751 l 2,1,2
 400 750 400 750 399 751 c 256,3,4
 398 752 398 752 398 753 c 0,5,6
 404 785 404 785 369.5 820.5 c 128,-1,7
 335 856 335 856 315 874 c 1,8,-1
 418 977 l 1,9,10
 432 965 432 965 457 941 c 128,-1,11
 482 917 482 917 496.5 890.5 c 128,-1,12
 511 864 511 864 494 844 c 2,0,-1
660 -83 m 1,13,-1
 797 54 l 1,14,15
 513 338 513 338 414 475 c 128,-1,16
 315 612 315 612 343 657 c 0,17,18
 343 658 343 658 342 659 c 0,19,20
 341 659 341 659 340 659 c 2,21,-1
 216 535 l 1,22,23
 179 504 179 504 229 411.5 c 128,-1,24
 279 319 279 319 455 128 c 1,25,26
 367 105 367 105 301 42 c 2,27,-1
 165 -95 l 2,28,29
 99 -159 99 -159 92 -256.5 c 128,-1,30
 85 -354 85 -354 166 -478 c 0,31,32
 195 -518 195 -518 255.5 -604 c 128,-1,33
 316 -690 316 -690 355 -785.5 c 128,-1,34
 394 -881 394 -881 359 -949 c 0,35,36
 358 -951 358 -951 359 -951 c 0,37,38
 360 -952 360 -952 361 -951 c 2,39,-1
 480 -833 l 2,40,41
 522 -787 522 -787 509.5 -717 c 128,-1,42
 497 -647 497 -647 455.5 -571.5 c 128,-1,43
 414 -496 414 -496 369.5 -434 c 128,-1,44
 325 -372 325 -372 303 -341 c 0,45,46
 242 -250 242 -250 231.5 -173 c 128,-1,47
 221 -96 221 -96 248 -36 c 1,48,49
 348 14 348 14 462.5 4.5 c 128,-1,50
 577 -5 577 -5 660 -83 c 1,13,-1
EndSplineSet
Substitution2: "'fina' Terminal Forms in Arabic lookup 3 subtable" kha.fina
Substitution2: "'medi' Medial Forms in Arabic lookup 2 subtable" kha.medi
Substitution2: "'init' Initial Forms in Arabic lookup 1 subtable" kha.init
Substitution2: "'isol' Isolated Forms in Arabic lookup 0 subtable" kha
EndChar

StartChar: dal
Encoding: 39 1583 38
AltUni2: 00fea9.ffffffff.0
Width: 771
GlyphClass: 2
Flags: W
AnchorPoint: "Anchor-1" 213 -205 basechar 0
AnchorPoint: "Anchor-0" 449 847 basechar 0
LayerCount: 2
Fore
SplineSet
122 113 m 1,0,-1
 122 113 l 1,1,-1
 2 -7 l 2,2,3
 1 -8 1 -8 1 -10 c 0,4,5
 2 -11 2 -11 4 -10 c 0,6,7
 30 5 30 5 133 2 c 0,8,9
 150 2 150 2 286 2 c 1,10,11
 334 50 334 50 380.5 23 c 128,-1,12
 427 -4 427 -4 502 -84 c 1,13,14
 547 -39 547 -39 654 67 c 0,15,16
 756 172 756 172 767.5 254.5 c 128,-1,17
 779 337 779 337 736.5 401.5 c 128,-1,18
 694 466 694 466 633 515.5 c 128,-1,19
 572 565 572 565 528.5 603 c 128,-1,20
 485 641 485 641 494 672 c 0,21,22
 495 673 495 673 494 674 c 0,23,24
 492 674 492 674 492 674 c 1,25,-1
 367 549 l 2,26,27
 338 516 338 516 383 474.5 c 128,-1,28
 428 433 428 433 497.5 377 c 128,-1,29
 567 321 567 321 609.5 246.5 c 128,-1,30
 652 172 652 172 618 74 c 1,31,32
 553 143 553 143 510.5 163.5 c 128,-1,33
 468 184 468 184 423 139 c 1,34,35
 287 139 287 139 270 139 c 0,36,37
 201 140 201 140 170 136 c 128,-1,38
 139 132 139 132 122 113 c 1,0,-1
EndSplineSet
Substitution2: "'fina' Terminal Forms in Arabic lookup 3 subtable" dal.fina
Substitution2: "'isol' Isolated Forms in Arabic lookup 0 subtable" dal
EndChar

StartChar: dzal
Encoding: 40 1584 39
AltUni2: 00feab.ffffffff.0
Width: 770
GlyphClass: 2
Flags: W
AnchorPoint: "Anchor-1" 288 -207 basechar 0
AnchorPoint: "Anchor-0" 285 1003 basechar 0
LayerCount: 2
Fore
SplineSet
121 113 m 1,0,-1
 121 113 l 1,1,-1
 1 -7 l 2,2,3
 0 -8 0 -8 0 -10 c 0,4,5
 1 -11 1 -11 3 -10 c 0,6,7
 29 5 29 5 132 2 c 0,8,9
 149 2 149 2 285 2 c 1,10,11
 333 50 333 50 379.5 23 c 128,-1,12
 426 -4 426 -4 501 -84 c 1,13,14
 546 -39 546 -39 653 67 c 0,15,16
 755 172 755 172 766.5 254.5 c 128,-1,17
 778 337 778 337 735.5 401.5 c 128,-1,18
 693 466 693 466 632 515.5 c 128,-1,19
 571 565 571 565 527.5 603 c 128,-1,20
 484 641 484 641 493 672 c 0,21,22
 494 673 494 673 493 674 c 0,23,24
 491 674 491 674 491 674 c 1,25,-1
 366 549 l 2,26,27
 337 516 337 516 382 474.5 c 128,-1,28
 427 433 427 433 496.5 377 c 128,-1,29
 566 321 566 321 608.5 246.5 c 128,-1,30
 651 172 651 172 617 74 c 1,31,32
 552 143 552 143 509.5 163.5 c 128,-1,33
 467 184 467 184 422 139 c 1,34,35
 286 139 286 139 269 139 c 0,36,37
 200 140 200 140 169 136 c 128,-1,38
 138 132 138 132 121 113 c 1,0,-1
555 843 m 1,39,-1
 555 843 l 1,40,-1
 463 751 l 2,41,42
 462 750 462 750 461 750 c 0,43,44
 460 751 460 751 460 752 c 0,45,46
 466 784 466 784 431.5 820 c 128,-1,47
 397 856 397 856 377 874 c 1,48,-1
 480 976 l 1,49,50
 493 964 493 964 518 940 c 128,-1,51
 543 916 543 916 558 889.5 c 128,-1,52
 573 863 573 863 555 843 c 1,39,-1
EndSplineSet
Substitution2: "'fina' Terminal Forms in Arabic lookup 3 subtable" dzal.fina
Substitution2: "'isol' Isolated Forms in Arabic lookup 0 subtable" dzal
EndChar

StartChar: ro
Encoding: 41 1585 40
AltUni2: 00fead.ffffffff.0
Width: 471
GlyphClass: 2
Flags: W
AnchorPoint: "Anchor-1" 118 -441 basechar 0
AnchorPoint: "Anchor-0" 121 850 basechar 0
LayerCount: 2
Fore
SplineSet
131 -101 m 2,0,-1
 2 -230 l 2,1,2
 2 -231 2 -231 2 -232 c 0,3,4
 3 -233 3 -233 4 -233 c 0,5,6
 30 -227 30 -227 70.5 -250 c 128,-1,7
 111 -273 111 -273 143 -304 c 1,8,-1
 280 -168 l 2,9,10
 417 -28 417 -28 452 78.5 c 128,-1,11
 487 185 487 185 459 264.5 c 128,-1,12
 431 344 431 344 379 403.5 c 128,-1,13
 327 463 327 463 289.5 508.5 c 128,-1,14
 252 554 252 554 269 592 c 0,15,16
 269 593 269 593 268 594 c 256,17,18
 267 595 267 595 266 594 c 2,19,-1
 145 473 l 2,20,21
 106 430 106 430 148 378 c 128,-1,22
 190 326 190 326 251.5 255 c 128,-1,23
 313 184 313 184 332 84 c 128,-1,24
 351 -16 351 -16 266 -155 c 1,25,26
 230 -123 230 -123 190 -104.5 c 128,-1,27
 150 -86 150 -86 131 -101 c 2,0,-1
EndSplineSet
Substitution2: "'fina' Terminal Forms in Arabic lookup 3 subtable" ra.fina
Substitution2: "'isol' Isolated Forms in Arabic lookup 0 subtable" ro
EndChar

StartChar: zai
Encoding: 42 1586 41
AltUni2: 00feaf.ffffffff.0
Width: 471
GlyphClass: 2
Flags: W
AnchorPoint: "Anchor-1" 121 -436 basechar 0
AnchorPoint: "Anchor-0" 115 925 basechar 0
LayerCount: 2
Fore
SplineSet
131 -101 m 2,0,-1
 2 -230 l 2,1,2
 2 -231 2 -231 2 -232 c 0,3,4
 3 -233 3 -233 4 -233 c 0,5,6
 30 -227 30 -227 70.5 -250 c 128,-1,7
 111 -273 111 -273 143 -304 c 1,8,-1
 280 -168 l 2,9,10
 417 -28 417 -28 452 78.5 c 128,-1,11
 487 185 487 185 459 264.5 c 128,-1,12
 431 344 431 344 379 403.5 c 128,-1,13
 327 463 327 463 289.5 508.5 c 128,-1,14
 252 554 252 554 269 592 c 0,15,16
 269 593 269 593 268 594 c 256,17,18
 267 595 267 595 266 594 c 2,19,-1
 145 473 l 2,20,21
 106 430 106 430 148 378 c 128,-1,22
 190 326 190 326 251.5 255 c 128,-1,23
 313 184 313 184 332 84 c 128,-1,24
 351 -16 351 -16 266 -155 c 1,25,26
 230 -123 230 -123 190 -104.5 c 128,-1,27
 150 -86 150 -86 131 -101 c 2,0,-1
344 745 m 1,28,-1
 344 745 l 1,29,-1
 251 652 l 1,30,31
 251 652 251 652 249 652 c 0,32,33
 248 653 248 653 249 654 c 0,34,35
 255 686 255 686 220.5 722 c 128,-1,36
 186 758 186 758 166 775 c 1,37,-1
 269 878 l 1,38,39
 282 866 282 866 307 842 c 128,-1,40
 332 818 332 818 346.5 791.5 c 128,-1,41
 361 765 361 765 344 745 c 1,28,-1
EndSplineSet
Substitution2: "'fina' Terminal Forms in Arabic lookup 3 subtable" zai.fina
Substitution2: "'isol' Isolated Forms in Arabic lookup 0 subtable" zai
EndChar

StartChar: sin
Encoding: 43 1587 42
AltUni2: 00feb1.ffffffff.0
Width: 1353
GlyphClass: 2
Flags: W
AnchorPoint: "Anchor-1" 886 -271 basechar 0
AnchorPoint: "Anchor-0" 605 700 basechar 0
LayerCount: 2
Fore
SplineSet
712 349 m 0,0,1
 713 350 713 350 711 351 c 0,2,3
 710 351 710 351 709 350 c 2,4,-1
 589 230 l 1,5,6
 553 187 553 187 583 111 c 128,-1,7
 613 35 613 35 652 -55.5 c 128,-1,8
 691 -146 691 -146 681 -233 c 1,9,10
 594 -243 594 -243 492.5 -197 c 128,-1,11
 391 -151 391 -151 315 -63.5 c 128,-1,12
 239 24 239 24 229 137.5 c 128,-1,13
 219 251 219 251 315 376 c 0,14,15
 315 377 315 377 314 378 c 256,16,17
 313 379 313 379 312 378 c 2,18,-1
 219 285 l 2,19,20
 104 165 104 165 93.5 52.5 c 128,-1,21
 83 -60 83 -60 143 -152 c 128,-1,22
 203 -244 203 -244 296.5 -302 c 128,-1,23
 390 -360 390 -360 482 -370.5 c 128,-1,24
 574 -381 574 -381 629 -330 c 2,25,-1
 766 -193 l 2,26,27
 818 -139 818 -139 820 -75 c 1,28,29
 859 -70 859 -70 885 -44 c 2,30,-1
 972 42 l 1,31,32
 1022 -17 1022 -17 1089 -83 c 1,33,34
 1159 -14 1159 -14 1270 96 c 1,35,36
 1361 193 1361 193 1352.5 286 c 128,-1,37
 1344 379 1344 379 1290.5 463.5 c 128,-1,38
 1237 548 1237 548 1194.5 618.5 c 128,-1,39
 1152 689 1152 689 1176 741 c 0,40,41
 1177 742 1177 742 1175 743 c 0,42,43
 1174 743 1174 743 1173 743 c 2,44,-1
 1053 623 l 2,45,46
 1014 580 1014 580 1039.5 521 c 128,-1,47
 1065 462 1065 462 1114 390.5 c 128,-1,48
 1163 319 1163 319 1196 239 c 128,-1,49
 1229 159 1229 159 1206 73 c 1,50,51
 1184 95 1184 95 1136 148 c 128,-1,52
 1088 201 1088 201 1038.5 268.5 c 128,-1,53
 989 336 989 336 962.5 400.5 c 128,-1,54
 936 465 936 465 958 510 c 0,55,56
 959 511 959 511 958 512 c 0,57,58
 956 513 956 513 955 512 c 2,59,-1
 834 391 l 2,60,61
 798 350 798 350 817.5 292.5 c 128,-1,62
 837 235 837 235 872 174 c 128,-1,63
 907 113 907 113 917 63 c 1,64,65
 868 73 868 73 811.5 123 c 128,-1,66
 755 173 755 173 722 236 c 128,-1,67
 689 299 689 299 712 349 c 0,0,1
EndSplineSet
Substitution2: "'fina' Terminal Forms in Arabic lookup 3 subtable" sim.fina
Substitution2: "'medi' Medial Forms in Arabic lookup 2 subtable" sin.medi
Substitution2: "'init' Initial Forms in Arabic lookup 1 subtable" sin.init
Substitution2: "'isol' Isolated Forms in Arabic lookup 0 subtable" sin
EndChar

StartChar: syin
Encoding: 44 1588 43
AltUni2: 00feb5.ffffffff.0
Width: 1353
GlyphClass: 2
Flags: W
AnchorPoint: "Anchor-1" 892 -282 basechar 0
AnchorPoint: "Anchor-0" 483 847 basechar 0
LayerCount: 2
Fore
SplineSet
712 349 m 0,0,1
 713 350 713 350 711 351 c 0,2,3
 710 351 710 351 709 350 c 2,4,-1
 589 230 l 1,5,6
 553 187 553 187 583 111 c 128,-1,7
 613 35 613 35 652 -55.5 c 128,-1,8
 691 -146 691 -146 681 -233 c 1,9,10
 594 -243 594 -243 492.5 -197 c 128,-1,11
 391 -151 391 -151 315 -63.5 c 128,-1,12
 239 24 239 24 229 137.5 c 128,-1,13
 219 251 219 251 315 376 c 0,14,15
 315 377 315 377 314 378 c 256,16,17
 313 379 313 379 312 378 c 2,18,-1
 219 285 l 2,19,20
 104 165 104 165 93.5 52.5 c 128,-1,21
 83 -60 83 -60 143 -152 c 128,-1,22
 203 -244 203 -244 296.5 -302 c 128,-1,23
 390 -360 390 -360 482 -370.5 c 128,-1,24
 574 -381 574 -381 629 -330 c 2,25,-1
 766 -193 l 2,26,27
 818 -139 818 -139 820 -75 c 1,28,29
 859 -70 859 -70 885 -44 c 2,30,-1
 972 42 l 1,31,32
 1022 -17 1022 -17 1089 -83 c 1,33,34
 1159 -14 1159 -14 1270 96 c 1,35,36
 1361 193 1361 193 1352.5 286 c 128,-1,37
 1344 379 1344 379 1290.5 463.5 c 128,-1,38
 1237 548 1237 548 1194.5 618.5 c 128,-1,39
 1152 689 1152 689 1176 741 c 0,40,41
 1177 742 1177 742 1175 743 c 0,42,43
 1174 743 1174 743 1173 743 c 2,44,-1
 1053 623 l 2,45,46
 1014 580 1014 580 1039.5 521 c 128,-1,47
 1065 462 1065 462 1114 390.5 c 128,-1,48
 1163 319 1163 319 1196 239 c 128,-1,49
 1229 159 1229 159 1206 73 c 1,50,51
 1184 95 1184 95 1136 148 c 128,-1,52
 1088 201 1088 201 1038.5 268.5 c 128,-1,53
 989 336 989 336 962.5 400.5 c 128,-1,54
 936 465 936 465 958 510 c 0,55,56
 959 511 959 511 958 512 c 0,57,58
 956 513 956 513 955 512 c 2,59,-1
 834 391 l 2,60,61
 798 350 798 350 817.5 292.5 c 128,-1,62
 837 235 837 235 872 174 c 128,-1,63
 907 113 907 113 917 63 c 1,64,65
 868 73 868 73 811.5 123 c 128,-1,66
 755 173 755 173 722 236 c 128,-1,67
 689 299 689 299 712 349 c 0,0,1
909 843 m 1,68,-1
 817 751 l 2,70,71
 816 750 816 750 815 750 c 0,72,73
 814 751 814 751 814 752 c 0,74,75
 820 784 820 784 785.5 820 c 128,-1,76
 751 856 751 856 731 874 c 1,77,-1
 834 976 l 1,78,79
 847 964 847 964 872 940 c 128,-1,80
 897 916 897 916 912 889.5 c 128,-1,81
 927 863 927 863 909 843 c 1,68,-1
982 644 m 1,82,-1
 890 551 l 2,84,85
 889 550 889 550 888 551 c 256,86,87
 887 552 887 552 887 553 c 0,88,89
 893 585 893 585 858.5 620.5 c 128,-1,90
 824 656 824 656 804 674 c 1,91,-1
 907 777 l 1,92,93
 920 764 920 764 945 740.5 c 128,-1,94
 970 717 970 717 985 690.5 c 128,-1,95
 1000 664 1000 664 982 644 c 1,82,-1
811 644 m 1,96,-1
 719 551 l 2,98,99
 718 550 718 550 717 551 c 256,100,101
 716 552 716 552 716 553 c 0,102,103
 722 585 722 585 687.5 620.5 c 128,-1,104
 653 656 653 656 633 674 c 1,105,-1
 736 777 l 1,106,107
 749 764 749 764 774 740.5 c 128,-1,108
 799 717 799 717 813.5 690.5 c 128,-1,109
 828 664 828 664 811 644 c 1,96,-1
EndSplineSet
Substitution2: "'fina' Terminal Forms in Arabic lookup 3 subtable" syin.fina
Substitution2: "'medi' Medial Forms in Arabic lookup 2 subtable" syin.medi
Substitution2: "'init' Initial Forms in Arabic lookup 1 subtable" syin.init
Substitution2: "'isol' Isolated Forms in Arabic lookup 0 subtable" syin
EndChar

StartChar: sod
Encoding: 45 1589 44
AltUni2: 00feb9.ffffffff.0
Width: 1612
GlyphClass: 2
Flags: W
AnchorPoint: "Anchor-1" 964 -255 basechar 0
AnchorPoint: "Anchor-0" 697 697 basechar 0
LayerCount: 2
Fore
SplineSet
1473 99 m 1,0,-1
 1420 154 1420 154 1382 167 c 128,-1,3
 1344 180 1344 180 1303 139 c 1,4,5
 1287 139 1287 139 1108 139 c 1,6,7
 1014 171 1014 171 978.5 233 c 128,-1,8
 943 295 943 295 962.5 362 c 128,-1,9
 982 429 982 429 1052 477 c 1,10,11
 1137 527 1137 527 1239 480 c 128,-1,12
 1341 433 1341 433 1411.5 328.5 c 128,-1,13
 1482 224 1482 224 1473 99 c 1,0,-1
755 161 m 2,14,15
 728 220 728 220 713.5 268.5 c 128,-1,16
 699 317 699 317 714 350 c 0,17,18
 714 352 714 352 713 352 c 0,19,20
 712 353 712 353 711 352 c 2,21,-1
 589 230 l 2,22,23
 559 198 559 198 573.5 144.5 c 128,-1,24
 588 91 588 91 619 25 c 0,25,26
 648 -38 648 -38 669 -104 c 128,-1,27
 690 -170 690 -170 681 -233 c 1,28,29
 594 -243 594 -243 492.5 -197 c 128,-1,30
 391 -151 391 -151 315 -63.5 c 128,-1,31
 239 24 239 24 229 137.5 c 128,-1,32
 219 251 219 251 315 376 c 0,33,34
 316 377 316 377 314 378 c 0,35,36
 313 379 313 379 312 378 c 2,37,-1
 219 285 l 2,38,39
 104 165 104 165 93.5 52.5 c 128,-1,40
 83 -60 83 -60 143 -152 c 128,-1,41
 203 -244 203 -244 296.5 -302 c 128,-1,42
 390 -360 390 -360 482 -370.5 c 128,-1,43
 574 -381 574 -381 629 -330 c 2,44,-1
 766 -193 l 2,45,46
 815 -142 815 -142 820 -82 c 0,47,48
 823 -40 823 -40 814 3 c 1,49,50
 957 2 957 2 1166 3 c 1,51,52
 1213 49 1213 49 1258 25 c 128,-1,53
 1303 1 1303 1 1374 -75 c 0,54,55
 1378 -79 1378 -79 1383 -83 c 1,56,-1
 1519 54 l 1,57,58
 1618 160 1618 160 1611.5 276.5 c 128,-1,59
 1605 393 1605 393 1533.5 487.5 c 128,-1,60
 1462 582 1462 582 1365.5 621.5 c 128,-1,61
 1269 661 1269 661 1189 613 c 0,62,63
 1136 579 1136 579 1083 526 c 2,64,-1
 946 389 l 2,65,66
 888 333 888 333 851.5 267 c 128,-1,67
 815 201 815 201 821 139 c 1,68,-1
 765 139 l 1,69,-1
 755 161 l 2,14,15
EndSplineSet
Substitution2: "'fina' Terminal Forms in Arabic lookup 3 subtable" sod.fina
Substitution2: "'medi' Medial Forms in Arabic lookup 2 subtable" sod.medi
Substitution2: "'init' Initial Forms in Arabic lookup 1 subtable" sod.init
Substitution2: "'isol' Isolated Forms in Arabic lookup 0 subtable" sod
EndChar

StartChar: dod
Encoding: 46 1590 45
AltUni2: 00febd.ffffffff.0
Width: 1612
GlyphClass: 2
Flags: W
AnchorPoint: "Anchor-1" 964 -249 basechar 0
AnchorPoint: "Anchor-0" 705 697 basechar 0
LayerCount: 2
Fore
SplineSet
1473 99 m 1,0,-1
 1420 154 1420 154 1382 167 c 128,-1,3
 1344 180 1344 180 1303 139 c 1,4,5
 1287 139 1287 139 1108 139 c 1,6,7
 1014 171 1014 171 978.5 233 c 128,-1,8
 943 295 943 295 962.5 362 c 128,-1,9
 982 429 982 429 1052 477 c 1,10,11
 1137 527 1137 527 1239 480 c 128,-1,12
 1341 433 1341 433 1411.5 328.5 c 128,-1,13
 1482 224 1482 224 1473 99 c 1,0,-1
1358 844 m 2,14,-1
 1265 751 l 2,15,16
 1264 750 1264 750 1263 751 c 256,17,18
 1262 752 1262 752 1263 753 c 0,19,20
 1269 785 1269 785 1234.5 820.5 c 128,-1,21
 1200 856 1200 856 1180 874 c 1,22,-1
 1282 977 l 1,23,24
 1296 965 1296 965 1321 941 c 128,-1,25
 1346 917 1346 917 1360.5 890.5 c 128,-1,26
 1375 864 1375 864 1358 844 c 2,14,-1
755 161 m 2,27,28
 728 220 728 220 713.5 268.5 c 128,-1,29
 699 317 699 317 714 350 c 0,30,31
 714 352 714 352 713 352 c 0,32,33
 712 353 712 353 711 352 c 2,34,-1
 589 230 l 2,35,36
 559 198 559 198 573.5 144.5 c 128,-1,37
 588 91 588 91 619 25 c 0,38,39
 648 -38 648 -38 669 -104 c 128,-1,40
 690 -170 690 -170 681 -233 c 1,41,42
 594 -243 594 -243 492.5 -197 c 128,-1,43
 391 -151 391 -151 315 -63.5 c 128,-1,44
 239 24 239 24 229 137.5 c 128,-1,45
 219 251 219 251 315 376 c 0,46,47
 316 377 316 377 314 378 c 0,48,49
 313 379 313 379 312 378 c 2,50,-1
 219 285 l 2,51,52
 104 165 104 165 93.5 52.5 c 128,-1,53
 83 -60 83 -60 143 -152 c 128,-1,54
 203 -244 203 -244 296.5 -302 c 128,-1,55
 390 -360 390 -360 482 -370.5 c 128,-1,56
 574 -381 574 -381 629 -330 c 2,57,-1
 766 -193 l 2,58,59
 815 -142 815 -142 820 -82 c 0,60,61
 823 -40 823 -40 814 3 c 1,62,63
 957 2 957 2 1166 3 c 1,64,65
 1213 49 1213 49 1258 25 c 128,-1,66
 1303 1 1303 1 1374 -75 c 0,67,68
 1378 -79 1378 -79 1383 -83 c 1,69,-1
 1519 54 l 1,70,71
 1618 160 1618 160 1611.5 276.5 c 128,-1,72
 1605 393 1605 393 1533.5 487.5 c 128,-1,73
 1462 582 1462 582 1365.5 621.5 c 128,-1,74
 1269 661 1269 661 1189 613 c 0,75,76
 1136 579 1136 579 1083 526 c 2,77,-1
 946 389 l 2,78,79
 888 333 888 333 851.5 267 c 128,-1,80
 815 201 815 201 821 139 c 1,81,-1
 765 139 l 1,82,-1
 755 161 l 2,27,28
EndSplineSet
Substitution2: "'fina' Terminal Forms in Arabic lookup 3 subtable" dod.fina
Substitution2: "'medi' Medial Forms in Arabic lookup 2 subtable" dod.medi
Substitution2: "'init' Initial Forms in Arabic lookup 1 subtable" dod.init
Substitution2: "'isol' Isolated Forms in Arabic lookup 0 subtable" dod
EndChar

StartChar: to
Encoding: 47 1591 46
AltUni2: 00fec1.ffffffff.0
Width: 1131
GlyphClass: 2
Flags: W
AnchorPoint: "Anchor-1" 449 -202 basechar 0
AnchorPoint: "Anchor-0" 550 1028 basechar 0
LayerCount: 2
Fore
SplineSet
660 988 m 1,0,-1
 661 989 661 989 660 990 c 256,3,4
 659 991 659 991 658 990 c 2,5,-1
 540 872 l 2,6,7
 525 860 525 860 519 840 c 128,-1,8
 513 820 513 820 512 761.5 c 128,-1,9
 511 703 511 703 511 570 c 0,10,11
 511 540 511 540 508 493 c 128,-1,12
 505 446 505 446 488 413 c 1,13,-1
 464 389 l 2,14,15
 407 333 407 333 370 267 c 128,-1,16
 333 201 333 201 340 140 c 1,17,18
 299 140 299 140 267 136 c 128,-1,19
 235 132 235 132 210 107 c 2,20,-1
 91 -11 l 2,21,22
 90 -12 90 -12 91 -13 c 0,23,24
 92 -15 92 -15 93 -14 c 0,25,26
 123 3 123 3 181 3 c 0,27,28
 424 2 424 2 685 3 c 1,29,30
 733 51 733 51 779.5 24 c 128,-1,31
 826 -3 826 -3 901 -83 c 1,32,-1
 1038 54 l 1,33,34
 1137 160 1137 160 1130.5 276.5 c 128,-1,35
 1124 393 1124 393 1052 487.5 c 128,-1,36
 980 582 980 582 884 621.5 c 128,-1,37
 788 661 788 661 707 613 c 0,38,39
 666 587 666 587 624 548 c 1,40,41
 641 580 641 580 644.5 628 c 128,-1,42
 648 676 648 676 648 707 c 0,43,44
 648 859 648 859 649.5 915.5 c 128,-1,45
 651 972 651 972 660 988 c 1,0,-1
992 99 m 1,46,-1
 939 154 939 154 901 167 c 128,-1,49
 863 180 863 180 822 139 c 1,50,51
 805 139 805 139 627 139 c 1,52,53
 533 171 533 171 497.5 233 c 128,-1,54
 462 295 462 295 481 362 c 128,-1,55
 500 429 500 429 570 477 c 1,56,57
 656 527 656 527 758 480 c 128,-1,58
 860 433 860 433 930.5 328.5 c 128,-1,59
 1001 224 1001 224 992 99 c 1,46,-1
EndSplineSet
Substitution2: "'fina' Terminal Forms in Arabic lookup 3 subtable" to.fina
Substitution2: "'medi' Medial Forms in Arabic lookup 2 subtable" to.medi
Substitution2: "'init' Initial Forms in Arabic lookup 1 subtable" to.init
Substitution2: "'isol' Isolated Forms in Arabic lookup 0 subtable" to
EndChar

StartChar: zho
Encoding: 48 1592 47
AltUni2: 00fec5.ffffffff.0
Width: 1131
GlyphClass: 2
Flags: W
AnchorPoint: "Anchor-1" 447 -207 basechar 0
AnchorPoint: "Anchor-0" 566 1062 basechar 0
LayerCount: 2
Fore
SplineSet
660 988 m 1,0,-1
 661 989 661 989 660 990 c 256,3,4
 659 991 659 991 658 990 c 2,5,-1
 540 872 l 2,6,7
 525 860 525 860 519 840 c 128,-1,8
 513 820 513 820 512 761.5 c 128,-1,9
 511 703 511 703 511 570 c 0,10,11
 511 540 511 540 508 493 c 128,-1,12
 505 446 505 446 488 413 c 1,13,-1
 464 389 l 2,14,15
 407 333 407 333 370 267 c 128,-1,16
 333 201 333 201 340 140 c 1,17,18
 299 140 299 140 267 136 c 128,-1,19
 235 132 235 132 210 107 c 2,20,-1
 91 -11 l 2,21,22
 90 -12 90 -12 91 -13 c 0,23,24
 92 -15 92 -15 93 -14 c 0,25,26
 123 3 123 3 181 3 c 0,27,28
 424 2 424 2 685 3 c 1,29,30
 733 51 733 51 779.5 24 c 128,-1,31
 826 -3 826 -3 901 -83 c 1,32,-1
 1038 54 l 1,33,34
 1137 160 1137 160 1130.5 276.5 c 128,-1,35
 1124 393 1124 393 1052 487.5 c 128,-1,36
 980 582 980 582 884 621.5 c 128,-1,37
 788 661 788 661 707 613 c 0,38,39
 666 587 666 587 624 548 c 1,40,41
 641 580 641 580 644.5 628 c 128,-1,42
 648 676 648 676 648 707 c 0,43,44
 648 859 648 859 649.5 915.5 c 128,-1,45
 651 972 651 972 660 988 c 1,0,-1
992 99 m 1,46,-1
 939 154 939 154 901 167 c 128,-1,49
 863 180 863 180 822 139 c 1,50,51
 805 139 805 139 627 139 c 1,52,53
 533 171 533 171 497.5 233 c 128,-1,54
 462 295 462 295 481 362 c 128,-1,55
 500 429 500 429 570 477 c 1,56,57
 656 527 656 527 758 480 c 128,-1,58
 860 433 860 433 930.5 328.5 c 128,-1,59
 1001 224 1001 224 992 99 c 1,46,-1
876 844 m 2,60,-1
 784 751 l 2,61,62
 783 750 783 750 782 751 c 256,63,64
 781 752 781 752 781 753 c 0,65,66
 787 785 787 785 752.5 820.5 c 128,-1,67
 718 856 718 856 698 874 c 1,68,-1
 801 977 l 1,69,70
 814 965 814 965 839 941 c 128,-1,71
 864 917 864 917 879 890.5 c 128,-1,72
 894 864 894 864 876 844 c 2,60,-1
EndSplineSet
Substitution2: "'fina' Terminal Forms in Arabic lookup 3 subtable" zho.fina
Substitution2: "'medi' Medial Forms in Arabic lookup 2 subtable" zho.medi
Substitution2: "'init' Initial Forms in Arabic lookup 1 subtable" zho.init
Substitution2: "'isol' Isolated Forms in Arabic lookup 0 subtable" zho
EndChar

StartChar: ain
Encoding: 49 1593 48
AltUni2: 00fec9.ffffffff.0
Width: 807
GlyphClass: 2
Flags: W
AnchorPoint: "Anchor-1" 218 -683 basechar 0
AnchorPoint: "Anchor-0" 285 850 basechar 0
LayerCount: 2
Fore
SplineSet
670 3 m 1,0,-1
 807 140 l 1,2,3
 671 140 671 140 525 186 c 128,-1,4
 379 232 379 232 293 314 c 128,-1,5
 207 396 207 396 237 506 c 1,6,7
 291 507 291 507 363 486 c 128,-1,8
 435 465 435 465 498 428 c 128,-1,9
 561 391 561 391 587 340.5 c 128,-1,10
 613 290 613 290 574 230 c 0,11,12
 574 229 574 229 575 228 c 256,13,14
 576 227 576 227 577 228 c 2,15,-1
 686 338 l 2,16,17
 758 415 758 415 723.5 478 c 128,-1,18
 689 541 689 541 602 583 c 128,-1,19
 515 625 515 625 430.5 638.5 c 128,-1,20
 346 652 346 652 318 629 c 2,21,-1
 182 492 l 2,22,23
 77 384 77 384 92.5 294.5 c 128,-1,24
 108 205 108 205 201 139 c 128,-1,25
 294 73 294 73 423 38 c 1,26,27
 411 28 411 28 400 17 c 2,28,-1
 263 -120 l 2,29,30
 194 -191 194 -191 194 -284.5 c 128,-1,31
 194 -378 194 -378 260 -477 c 0,32,33
 289 -517 289 -517 349.5 -603 c 128,-1,34
 410 -689 410 -689 449 -785 c 128,-1,35
 488 -881 488 -881 453 -949 c 0,36,37
 453 -950 453 -950 454 -951 c 0,38,39
 455 -951 455 -951 456 -950 c 2,40,-1
 574 -832 l 2,41,42
 617 -786 617 -786 604.5 -716 c 128,-1,43
 592 -646 592 -646 550 -570.5 c 128,-1,44
 508 -495 508 -495 463.5 -433 c 128,-1,45
 419 -371 419 -371 397 -340 c 0,46,47
 297 -189 297 -189 348 -60 c 1,48,49
 406 -30 406 -30 486 -13.5 c 128,-1,50
 566 3 566 3 670 3 c 1,0,-1
EndSplineSet
Substitution2: "'fina' Terminal Forms in Arabic lookup 3 subtable" ain.fina
Substitution2: "'medi' Medial Forms in Arabic lookup 2 subtable" ain.medi
Substitution2: "'init' Initial Forms in Arabic lookup 1 subtable" ain.init
Substitution2: "'isol' Isolated Forms in Arabic lookup 0 subtable" ain
EndChar

StartChar: ghain
Encoding: 50 1594 49
AltUni2: 00fecd.ffffffff.0
Width: 807
GlyphClass: 2
Flags: W
AnchorPoint: "Anchor-1" 218 -686 basechar 0
AnchorPoint: "Anchor-0" 216 992 basechar 0
LayerCount: 2
Fore
SplineSet
670 3 m 1,0,-1
 807 140 l 1,2,3
 671 140 671 140 525 186 c 128,-1,4
 379 232 379 232 293 314 c 128,-1,5
 207 396 207 396 237 506 c 1,6,7
 291 507 291 507 363 486 c 128,-1,8
 435 465 435 465 498 428 c 128,-1,9
 561 391 561 391 587 340.5 c 128,-1,10
 613 290 613 290 574 230 c 0,11,12
 574 229 574 229 575 228 c 256,13,14
 576 227 576 227 577 228 c 2,15,-1
 686 338 l 2,16,17
 758 415 758 415 723.5 478 c 128,-1,18
 689 541 689 541 602 583 c 128,-1,19
 515 625 515 625 430.5 638.5 c 128,-1,20
 346 652 346 652 318 629 c 2,21,-1
 182 492 l 2,22,23
 77 384 77 384 92.5 294.5 c 128,-1,24
 108 205 108 205 201 139 c 128,-1,25
 294 73 294 73 423 38 c 1,26,27
 411 28 411 28 400 17 c 2,28,-1
 263 -120 l 2,29,30
 194 -191 194 -191 194 -284.5 c 128,-1,31
 194 -378 194 -378 260 -477 c 0,32,33
 289 -517 289 -517 349.5 -603 c 128,-1,34
 410 -689 410 -689 449 -785 c 128,-1,35
 488 -881 488 -881 453 -949 c 0,36,37
 453 -950 453 -950 454 -951 c 0,38,39
 455 -951 455 -951 456 -950 c 2,40,-1
 574 -832 l 2,41,42
 617 -786 617 -786 604.5 -716 c 128,-1,43
 592 -646 592 -646 550 -570.5 c 128,-1,44
 508 -495 508 -495 463.5 -433 c 128,-1,45
 419 -371 419 -371 397 -340 c 0,46,47
 297 -189 297 -189 348 -60 c 1,48,49
 406 -30 406 -30 486 -13.5 c 128,-1,50
 566 3 566 3 670 3 c 1,0,-1
488 844 m 2,51,-1
 396 751 l 2,52,53
 395 750 395 750 394 751 c 256,54,55
 393 752 393 752 393 753 c 0,56,57
 399 785 399 785 364.5 820.5 c 128,-1,58
 330 856 330 856 310 874 c 1,59,-1
 413 977 l 1,60,61
 426 965 426 965 451 941 c 128,-1,62
 476 917 476 917 491 890.5 c 128,-1,63
 506 864 506 864 488 844 c 2,51,-1
EndSplineSet
Substitution2: "'fina' Terminal Forms in Arabic lookup 3 subtable" ghain.fina
Substitution2: "'medi' Medial Forms in Arabic lookup 2 subtable" ghain.medi
Substitution2: "'init' Initial Forms in Arabic lookup 1 subtable" ghain.init
Substitution2: "'isol' Isolated Forms in Arabic lookup 0 subtable" ghain
EndChar

StartChar: kasyidah
Encoding: 51 1600 50
Width: 227
GlyphClass: 2
Flags: W
LayerCount: 2
Fore
SplineSet
126 139 m 1,0,-1
 -2 3 l 1,1,2
 113 3 113 3 228 2 c 1,3,-1
 365 139 l 1,4,5
 350 139 350 139 126 139 c 1,0,-1
EndSplineSet
EndChar

StartChar: fa
Encoding: 52 1601 51
AltUni2: 00fed1.ffffffff.0
Width: 1059
GlyphClass: 2
Flags: W
AnchorPoint: "Anchor-1" 402 -210 basechar 0
AnchorPoint: "Anchor-0" 441 853 basechar 0
LayerCount: 2
Fore
SplineSet
260 502 m 1,0,-1
 260 502 l 1,1,2
 261 503 261 503 260 504 c 256,3,4
 259 505 259 505 258 504 c 2,5,-1
 145 391 l 2,6,7
 85 330 85 330 91.5 239.5 c 128,-1,8
 98 149 98 149 197 77.5 c 128,-1,9
 296 6 296 6 515 2 c 1,10,-1
 515 2 l 1,11,12
 563 52 563 52 609 24.5 c 128,-1,13
 655 -3 655 -3 731 -83 c 1,14,-1
 868 54 l 2,15,16
 935 120 935 120 989 197 c 0,17,18
 1072 325 1072 325 1058.5 411.5 c 128,-1,19
 1045 498 1045 498 989 556 c 128,-1,20
 933 614 933 614 886.5 656 c 128,-1,21
 840 698 840 698 857 738 c 0,22,23
 857 739 857 739 856 740 c 0,24,25
 855 740 855 740 854 739 c 2,26,-1
 734 619 l 2,27,28
 625 508 625 508 608.5 430.5 c 128,-1,29
 592 353 592 353 631 299.5 c 128,-1,30
 670 246 670 246 728 207.5 c 128,-1,31
 786 169 786 169 827 136 c 128,-1,32
 868 103 868 103 855 67 c 1,33,34
 786 140 786 140 742 163.5 c 128,-1,35
 698 187 698 187 651 139 c 1,36,-1
 651 139 l 1,37,38
 448 142 448 142 348.5 205 c 128,-1,39
 249 268 249 268 232.5 352 c 128,-1,40
 216 436 216 436 260 502 c 1,0,-1
915 309 m 1,41,42
 854 348 854 348 798 400 c 128,-1,43
 742 452 742 452 740 529 c 1,44,45
 780 490 780 490 835 438 c 128,-1,46
 890 386 890 386 915 309 c 1,41,42
930 843 m 1,47,-1
 930 843 l 1,48,-1
 838 751 l 2,49,50
 837 750 837 750 836 750 c 0,51,52
 835 751 835 751 835 752 c 0,53,54
 841 784 841 784 806.5 820 c 128,-1,55
 772 856 772 856 752 874 c 1,56,-1
 855 976 l 1,57,58
 868 964 868 964 893 940 c 128,-1,59
 918 916 918 916 933 889.5 c 128,-1,60
 948 863 948 863 930 843 c 1,47,-1
EndSplineSet
Substitution2: "'fina' Terminal Forms in Arabic lookup 3 subtable" fa.fina
Substitution2: "'medi' Medial Forms in Arabic lookup 2 subtable" fa.medi
Substitution2: "'init' Initial Forms in Arabic lookup 1 subtable" fa.init
Substitution2: "'isol' Isolated Forms in Arabic lookup 0 subtable" fa
EndChar

StartChar: qaf
Encoding: 53 1602 52
AltUni2: 00fed5.ffffffff.0
Width: 866
GlyphClass: 2
Flags: W
AnchorPoint: "Anchor-1" 221 -207 basechar 0
AnchorPoint: "Anchor-0" 285 847 basechar 0
LayerCount: 2
Fore
SplineSet
471 -150 m 1,0,1
 577 -44 577 -44 687 65 c 0,2,3
 747 127 747 127 796 197 c 0,4,5
 879 325 879 325 865.5 411.5 c 128,-1,6
 852 498 852 498 796 556 c 128,-1,7
 740 614 740 614 693.5 656 c 128,-1,8
 647 698 647 698 664 737 c 0,9,10
 664 739 664 739 663 739 c 0,11,12
 662 740 662 740 661 739 c 2,13,-1
 541 619 l 2,14,15
 430 506 430 506 413.5 428 c 128,-1,16
 397 350 397 350 436.5 297 c 128,-1,17
 476 244 476 244 533.5 205.5 c 128,-1,18
 591 167 591 167 629.5 134 c 128,-1,19
 668 101 668 101 648 64 c 1,20,21
 625 30 625 30 590 -3 c 1,22,23
 509 41 509 41 422.5 97 c 128,-1,24
 336 153 336 153 279 227 c 128,-1,25
 222 301 222 301 229 399 c 128,-1,26
 236 497 236 497 343 626 c 0,27,28
 344 627 344 627 343 628 c 0,29,30
 341 629 341 629 340 628 c 2,31,-1
 262 549 l 2,32,33
 117 401 117 401 97 290.5 c 128,-1,34
 77 180 77 180 136.5 98.5 c 128,-1,35
 196 17 196 17 291 -43 c 128,-1,36
 386 -103 386 -103 471 -150 c 1,0,1
722 309 m 1,37,38
 661 348 661 348 605 400 c 128,-1,39
 549 452 549 452 547 529 c 1,40,41
 587 490 587 490 642 438 c 128,-1,42
 697 386 697 386 722 309 c 1,37,38
823 843 m 1,43,-1
 823 843 l 1,44,-1
 730 751 l 2,45,46
 729 750 729 750 728 750 c 0,47,48
 727 751 727 751 727 752 c 0,49,50
 733 784 733 784 699 820 c 128,-1,51
 665 856 665 856 644 874 c 1,52,-1
 747 976 l 1,53,54
 761 964 761 964 786 940 c 128,-1,55
 811 916 811 916 825.5 889.5 c 128,-1,56
 840 863 840 863 823 843 c 1,43,-1
651 843 m 1,57,-1
 651 843 l 1,58,-1
 559 751 l 2,59,60
 558 750 558 750 557 750 c 0,61,62
 556 751 556 751 556 752 c 0,63,64
 562 784 562 784 527.5 820 c 128,-1,65
 493 856 493 856 473 874 c 1,66,-1
 576 976 l 1,67,68
 589 964 589 964 614 940 c 128,-1,69
 639 916 639 916 654 889.5 c 128,-1,70
 669 863 669 863 651 843 c 1,57,-1
EndSplineSet
Substitution2: "'fina' Terminal Forms in Arabic lookup 3 subtable" qaf.fina
Substitution2: "'medi' Medial Forms in Arabic lookup 2 subtable" qaf.medi
Substitution2: "'init' Initial Forms in Arabic lookup 1 subtable" qaf.init
Substitution2: "'isol' Isolated Forms in Arabic lookup 0 subtable" qaf
EndChar

StartChar: kaf.arab
Encoding: 54 1603 53
AltUni2: 00fed9.ffffffff.0
Width: 1114
GlyphClass: 2
Flags: W
AnchorPoint: "Anchor-1" 449 -205 basechar 0
AnchorPoint: "Anchor-0" 449 700 basechar 0
LayerCount: 2
Fore
SplineSet
1059 849 m 1,0,-1
 1059 849 l 1,1,-1
 923 713 l 1,2,-1
 923 168 l 1,3,4
 885 181 885 181 843 139 c 1,5,-1
 843 139 l 1,6,7
 662 139 662 139 405 139 c 0,8,9
 320 140 320 140 277 135.5 c 128,-1,10
 234 131 234 131 210 107 c 2,11,-1
 91 -13 l 2,12,13
 90 -14 90 -14 91 -15 c 256,14,15
 92 -16 92 -16 93 -15 c 0,16,17
 117 -2 117 -2 157.5 0.5 c 128,-1,18
 198 3 198 3 268 2 c 0,19,20
 423 3 423 3 706 2 c 1,21,22
 755 52 755 52 801 25 c 128,-1,23
 847 -2 847 -2 923 -83 c 1,24,-1
 1059 54 l 1,25,-1
 1059 479 l 1,26,-1
 1173 593 l 1,27,28
 1060 703 1060 703 1059 849 c 1,0,-1
625 231 m 1,29,-1
 625 231 l 1,30,-1
 677 283 l 1,31,32
 609 283 609 283 566 307.5 c 128,-1,33
 523 332 523 332 537 379 c 1,34,35
 560 373 560 373 584.5 354.5 c 128,-1,36
 609 336 609 336 602 313 c 0,37,38
 601 312 601 312 602 311 c 0,39,40
 603 311 603 311 604 312 c 2,41,-1
 646 354 l 2,42,43
 665 375 665 375 648 394.5 c 128,-1,44
 631 414 631 414 606 424.5 c 128,-1,45
 581 435 581 435 573 431 c 2,46,-1
 521 379 l 2,47,48
 464 318 464 318 487 282 c 1,49,50
 472 279 472 279 463 271 c 2,51,-1
 420 227 l 2,52,53
 419 227 419 227 420 226 c 0,54,55
 420 225 420 225 421 225 c 0,56,57
 446 233 446 233 518.5 232.5 c 128,-1,58
 591 232 591 232 625 231 c 1,29,-1
EndSplineSet
Substitution2: "'fina' Terminal Forms in Arabic lookup 3 subtable" kaf.arab.fina
Substitution2: "'medi' Medial Forms in Arabic lookup 2 subtable" kaf.arab.medi
Substitution2: "'init' Initial Forms in Arabic lookup 1 subtable" kaf.arab.init
Substitution2: "'isol' Isolated Forms in Arabic lookup 0 subtable" kaf.arab
EndChar

StartChar: lam
Encoding: 55 1604 54
AltUni2: 00fedd.ffffffff.0
Width: 801
GlyphClass: 2
Flags: W
AnchorPoint: "Anchor-1" 285 -480 basechar 0
AnchorPoint: "Anchor-0" 402 700 basechar 0
LayerCount: 2
Fore
SplineSet
801 362 m 1,0,-1
 801 362 l 1,1,2
 801 386 801 386 801 743 c 1,3,-1
 664 606 l 1,4,-1
 664 225 l 2,5,6
 664 76 664 76 664 -42 c 128,-1,7
 664 -160 664 -160 656 -235 c 1,8,9
 568 -237 568 -237 471.5 -187.5 c 128,-1,10
 375 -138 375 -138 305 -51.5 c 128,-1,11
 235 35 235 35 228 145 c 128,-1,12
 221 255 221 255 314 375 c 0,13,14
 315 376 315 376 314 377 c 256,15,16
 313 378 313 378 312 377 c 2,17,-1
 219 285 l 2,18,19
 103 165 103 165 93 52 c 128,-1,20
 83 -61 83 -61 142.5 -153 c 128,-1,21
 202 -245 202 -245 296 -302.5 c 128,-1,22
 390 -360 390 -360 482 -370.5 c 128,-1,23
 574 -381 574 -381 628 -331 c 2,24,-1
 765 -194 l 2,25,26
 795 -160 795 -160 798 -10 c 128,-1,27
 801 140 801 140 801 362 c 1,0,-1
EndSplineSet
Substitution2: "'fina' Terminal Forms in Arabic lookup 3 subtable" lam.fina
Substitution2: "'medi' Medial Forms in Arabic lookup 2 subtable" lam.medi
Substitution2: "'init' Initial Forms in Arabic lookup 1 subtable" lam.init
Substitution2: "'isol' Isolated Forms in Arabic lookup 0 subtable" lam
EndChar

StartChar: mim
Encoding: 56 1605 55
AltUni2: 00fee1.ffffffff.0
Width: 607
GlyphClass: 2
Flags: W
AnchorPoint: "Anchor-1" 288 -597 basechar 0
AnchorPoint: "Anchor-0" 213 847 basechar 0
LayerCount: 2
Fore
SplineSet
278 482 m 1,0,1
 299 428 299 428 352 365.5 c 128,-1,2
 405 303 405 303 444 228.5 c 128,-1,3
 483 154 483 154 462 62 c 1,4,5
 336 194 336 194 294 295 c 128,-1,6
 252 396 252 396 278 482 c 1,0,1
177 -542 m 1,7,-1
 177 -542 l 1,8,-1
 314 -405 l 2,9,10
 349 -367 349 -367 336.5 -319.5 c 128,-1,11
 324 -272 324 -272 293 -217 c 128,-1,12
 262 -162 262 -162 240 -100 c 128,-1,13
 218 -38 218 -38 235 30 c 1,14,15
 282 -33 282 -33 355 -105 c 1,16,-1
 492 32 l 2,17,18
 588 131 588 131 602 212.5 c 128,-1,19
 616 294 616 294 582 362 c 128,-1,20
 548 430 548 430 500 487.5 c 128,-1,21
 452 545 452 545 424 595.5 c 128,-1,22
 396 646 396 646 422 693 c 0,23,24
 422 694 422 694 421 695 c 256,25,26
 420 696 420 696 419 695 c 2,27,-1
 303 578 l 2,28,29
 216 493 216 493 170 414 c 128,-1,30
 124 335 124 335 132.5 248 c 128,-1,31
 141 161 141 161 217 53 c 1,32,-1
 167 2 l 2,33,34
 87 -82 87 -82 90.5 -160.5 c 128,-1,35
 94 -239 94 -239 132.5 -309 c 128,-1,36
 171 -379 171 -379 194.5 -437.5 c 128,-1,37
 218 -496 218 -496 177 -542 c 1,7,-1
EndSplineSet
Substitution2: "'fina' Terminal Forms in Arabic lookup 3 subtable" mim.fina
Substitution2: "'medi' Medial Forms in Arabic lookup 2 subtable" mim.medi
Substitution2: "'init' Initial Forms in Arabic lookup 1 subtable" mim.init
Substitution2: "'isol' Isolated Forms in Arabic lookup 0 subtable" mim
EndChar

StartChar: nun
Encoding: 57 1606 56
AltUni2: 00fee5.ffffffff.0
Width: 820
GlyphClass: 2
Flags: W
AnchorPoint: "Anchor-1" 285 -477 basechar 0
AnchorPoint: "Anchor-0" 288 694 basechar 0
LayerCount: 2
Fore
SplineSet
713 350 m 1,0,-1
 714 351 714 351 713 352 c 256,3,4
 712 353 712 353 711 352 c 2,5,-1
 588 229 l 1,6,7
 552 187 552 187 582.5 111 c 128,-1,8
 613 35 613 35 652 -55.5 c 128,-1,9
 691 -146 691 -146 680 -233 c 1,10,11
 594 -244 594 -244 492.5 -197.5 c 128,-1,12
 391 -151 391 -151 315 -63.5 c 128,-1,13
 239 24 239 24 228.5 137.5 c 128,-1,14
 218 251 218 251 314 376 c 0,15,16
 315 377 315 377 314 378 c 256,17,18
 313 379 313 379 312 378 c 2,19,-1
 219 285 l 2,20,21
 103 165 103 165 93 52.5 c 128,-1,22
 83 -60 83 -60 142.5 -152 c 128,-1,23
 202 -244 202 -244 296 -302 c 128,-1,24
 390 -360 390 -360 482 -370.5 c 128,-1,25
 574 -381 574 -381 629 -331 c 2,26,-1
 765 -194 l 2,27,28
 825 -130 825 -130 820 -53.5 c 128,-1,29
 815 23 815 23 781.5 99.5 c 128,-1,30
 748 176 748 176 721.5 241.5 c 128,-1,31
 695 307 695 307 713 350 c 1,0,-1
577 470 m 2,32,-1
 485 377 l 2,33,34
 484 376 484 376 483 377 c 0,35,36
 481 378 481 378 482 379 c 0,37,38
 488 411 488 411 453.5 446.5 c 128,-1,39
 419 482 419 482 399 500 c 1,40,-1
 502 603 l 1,41,42
 515 591 515 591 540 567 c 128,-1,43
 565 543 565 543 579.5 516.5 c 128,-1,44
 594 490 594 490 577 470 c 2,32,-1
EndSplineSet
Substitution2: "'fina' Terminal Forms in Arabic lookup 3 subtable" nun.fina
Substitution2: "'medi' Medial Forms in Arabic lookup 2 subtable" nun.medi
Substitution2: "'init' Initial Forms in Arabic lookup 1 subtable" nun.init
Substitution2: "'isol' Isolated Forms in Arabic lookup 0 subtable" nun
EndChar

StartChar: ha-bulat
Encoding: 58 1607 57
AltUni2: 00fee9.ffffffff.0
Width: 574
GlyphClass: 2
Flags: W
AnchorPoint: "Anchor-1" 216 -207 basechar 0
AnchorPoint: "Anchor-0" 213 850 basechar 0
LayerCount: 2
Fore
SplineSet
253 507 m 1,0,1
 268 452 268 452 320.5 384.5 c 128,-1,2
 373 317 373 317 412 239 c 128,-1,3
 451 161 451 161 428 73 c 1,4,5
 305 191 305 191 253.5 291 c 128,-1,6
 202 391 202 391 253 507 c 1,0,1
310 -83 m 1,7,-1
 310 -83 l 1,8,9
 389 -4 389 -4 491 96 c 1,10,11
 582 193 582 193 573.5 279.5 c 128,-1,12
 565 366 565 366 512 442 c 128,-1,13
 459 518 459 518 416.5 582 c 128,-1,14
 374 646 374 646 397 696 c 0,15,16
 397 697 397 697 396 698 c 256,17,18
 395 699 395 699 394 698 c 2,19,-1
 274 578 l 2,20,21
 129 433 129 433 100 328 c 128,-1,22
 71 223 71 223 130.5 127.5 c 128,-1,23
 190 32 190 32 310 -83 c 1,7,-1
EndSplineSet
Substitution2: "'fina' Terminal Forms in Arabic lookup 3 subtable" ha-bulat.fina
Substitution2: "'medi' Medial Forms in Arabic lookup 2 subtable" ha-bulat.medi
Substitution2: "'init' Initial Forms in Arabic lookup 1 subtable" ha-bulat.init
Substitution2: "'isol' Isolated Forms in Arabic lookup 0 subtable" ha-bulat
EndChar

StartChar: wau
Encoding: 59 1608 58
AltUni2: 00feed.ffffffff.0
Width: 630
GlyphClass: 2
Flags: W
AnchorPoint: "tandaV" 321 740 basechar 0
AnchorPoint: "Anchor-1" 285 -433 basechar 0
AnchorPoint: "Anchor-0" 213 850 basechar 0
LayerCount: 2
Fore
SplineSet
311 -69 m 1,0,-1
 310 -69 l 1,1,2
 375 -6 375 -6 476 95 c 1,3,4
 507 -18 507 -18 465 -142 c 1,5,6
 431 -115 431 -115 396.5 -101.5 c 128,-1,7
 362 -88 362 -88 345 -101 c 2,8,-1
 217 -230 l 2,9,10
 216 -231 216 -231 217 -232 c 0,11,12
 217 -233 217 -233 218 -233 c 0,13,14
 244 -227 244 -227 284.5 -250 c 128,-1,15
 325 -273 325 -273 357 -304 c 1,16,17
 426 -236 426 -236 494 -168 c 0,18,19
 605 -52 605 -52 623 57 c 128,-1,20
 641 166 641 166 603.5 265.5 c 128,-1,21
 566 365 566 365 510.5 450 c 128,-1,22
 455 535 455 535 418 601.5 c 128,-1,23
 381 668 381 668 400 712 c 0,24,25
 400 713 400 713 399 714 c 256,26,27
 398 715 398 715 397 714 c 2,28,-1
 275 592 l 2,29,30
 130 447 130 447 101 341.5 c 128,-1,31
 72 236 72 236 131.5 141 c 128,-1,32
 191 46 191 46 311 -69 c 1,0,-1
254 521 m 1,33,34
 272 452 272 452 324 386 c 128,-1,35
 376 320 376 320 414.5 247.5 c 128,-1,36
 453 175 453 175 428 87 c 1,37,38
 306 205 306 205 254 304.5 c 128,-1,39
 202 404 202 404 254 521 c 1,33,34
EndSplineSet
Substitution2: "'fina' Terminal Forms in Arabic lookup 3 subtable" wau.fina
Substitution2: "'isol' Isolated Forms in Arabic lookup 0 subtable" wau
EndChar

StartChar: ye
Encoding: 60 1609 59
AltUni2: 00feef.ffffffff.0
Width: 1052
GlyphClass: 2
Flags: W
AnchorPoint: "tandaV" 215 553 basechar 0
AnchorPoint: "Anchor-1" 397 -207 basechar 0
AnchorPoint: "Anchor-0" 285 708 basechar 0
LayerCount: 2
Fore
SplineSet
238 514 m 1,0,-1
 238 514 l 1,1,2
 239 515 239 515 238 516 c 0,3,4
 237 516 237 516 236 515 c 2,5,-1
 111 391 l 2,6,7
 86 362 86 362 92 295 c 128,-1,8
 98 228 98 228 118 148 c 128,-1,9
 138 68 138 68 157 3 c 1,10,11
 536 3 536 3 916 2 c 1,12,-1
 1052 139 l 1,13,-1
 1040 139 l 1,14,15
 918 143 918 143 819 188 c 128,-1,16
 720 233 720 233 678 313 c 128,-1,17
 636 393 636 393 683 500 c 1,18,19
 729 487 729 487 783 436 c 128,-1,20
 837 385 837 385 867 320.5 c 128,-1,21
 897 256 897 256 872 204 c 0,22,23
 871 203 871 203 872 202 c 0,24,25
 873 202 873 202 874 202 c 2,26,-1
 994 322 l 2,27,28
 1033 365 1033 365 1015.5 425 c 128,-1,29
 998 485 998 485 951 540 c 128,-1,30
 904 595 904 595 854.5 622.5 c 128,-1,31
 805 650 805 650 779 629 c 2,32,-1
 642 492 l 2,33,34
 537 384 537 384 524 294.5 c 128,-1,35
 511 205 511 205 565 140 c 1,36,-1
 293 140 l 1,37,38
 266 233 266 233 241.5 344.5 c 128,-1,39
 217 456 217 456 238 514 c 1,0,-1
EndSplineSet
Substitution2: "'fina' Terminal Forms in Arabic lookup 3 subtable" ye.fina
Substitution2: "'medi' Medial Forms in Arabic lookup 2 subtable" alefmaksuraarabm
Substitution2: "'init' Initial Forms in Arabic lookup 1 subtable" alefmaksuraarabi
Substitution2: "'isol' Isolated Forms in Arabic lookup 0 subtable" ye
EndChar

StartChar: ya
Encoding: 61 1610 60
AltUni2: 00fef1.ffffffff.0
Width: 1052
GlyphClass: 2
Flags: W
AnchorPoint: "tandaV" 215 553 basechar 0
AnchorPoint: "Anchor-1" 285 -436 basechar 0
AnchorPoint: "Anchor-0" 285 703 basechar 0
LayerCount: 2
Fore
SplineSet
238 514 m 1,0,1
 239 515 239 515 238 516 c 0,2,3
 237 516 237 516 236 515 c 2,4,-1
 111 391 l 2,5,6
 86 362 86 362 92 295 c 128,-1,7
 98 228 98 228 118 148 c 128,-1,8
 138 68 138 68 157 3 c 1,9,10
 536 3 536 3 916 2 c 1,11,-1
 1052 139 l 1,12,-1
 1040 139 l 1,13,14
 918 143 918 143 819 188 c 128,-1,15
 720 233 720 233 678 313 c 128,-1,16
 636 393 636 393 683 500 c 1,17,18
 729 487 729 487 783 436 c 128,-1,19
 837 385 837 385 867 320.5 c 128,-1,20
 897 256 897 256 872 204 c 0,21,22
 871 203 871 203 872 202 c 0,23,24
 873 202 873 202 874 202 c 2,25,-1
 994 322 l 2,26,27
 1033 365 1033 365 1015.5 425 c 128,-1,28
 998 485 998 485 951 540 c 128,-1,29
 904 595 904 595 854.5 622.5 c 128,-1,30
 805 650 805 650 779 629 c 2,31,-1
 642 492 l 2,32,33
 537 384 537 384 524 294.5 c 128,-1,34
 511 205 511 205 565 140 c 1,35,-1
 293 140 l 1,36,37
 266 233 266 233 241.5 344.5 c 128,-1,38
 217 456 217 456 238 514 c 1,0,1
692 -245 m 2,39,-1
 599 -338 l 1,40,41
 599 -338 599 -338 597 -338 c 0,42,43
 596 -337 596 -337 597 -336 c 0,44,45
 603 -304 603 -304 568.5 -268 c 128,-1,46
 534 -232 534 -232 514 -215 c 1,47,-1
 617 -112 l 1,48,49
 630 -124 630 -124 655 -148 c 128,-1,50
 680 -172 680 -172 694.5 -198.5 c 128,-1,51
 709 -225 709 -225 692 -245 c 2,39,-1
521 -245 m 2,52,-1
 428 -338 l 2,53,54
 427 -338 427 -338 426 -338 c 0,55,56
 425 -337 425 -337 426 -336 c 0,57,58
 431 -304 431 -304 397 -268 c 128,-1,59
 363 -232 363 -232 342 -215 c 1,60,-1
 445 -112 l 1,61,62
 459 -124 459 -124 484 -148 c 128,-1,63
 509 -172 509 -172 523.5 -198.5 c 128,-1,64
 538 -225 538 -225 521 -245 c 2,52,-1
EndSplineSet
Substitution2: "'fina' Terminal Forms in Arabic lookup 3 subtable" ya.fina
Substitution2: "'medi' Medial Forms in Arabic lookup 2 subtable" ya.medi
Substitution2: "'init' Initial Forms in Arabic lookup 1 subtable" ya.init
Substitution2: "'isol' Isolated Forms in Arabic lookup 0 subtable" ya
EndChar

StartChar: fathatain
Encoding: 62 1611 61
Width: 0
GlyphClass: 4
Flags: W
AnchorPoint: "Anchor-4" 0 1995 basemark 0
AnchorPoint: "Anchor-4" 0 1486 mark 0
AnchorPoint: "Anchor-2" 0 1486 mark 0
AnchorPoint: "Anchor-0" 0 1486 mark 0
LayerCount: 2
Fore
SplineSet
86 1564 m 1,0,-1
 86 1564 l 1,1,2
 87 1565 87 1565 88 1565 c 0,3,4
 89 1564 89 1564 89 1563 c 2,5,-1
 89 1525 l 2,6,7
 89 1511 89 1511 72 1494 c 0,8,9
 7 1429 7 1429 -56 1366 c 0,10,11
 -80 1341 -80 1341 -85 1318 c 0,12,13
 -85 1317 -85 1317 -87 1317 c 0,14,15
 -88 1318 -88 1318 -88 1319 c 2,16,-1
 -88 1348 l 2,17,18
 -91 1378 -91 1378 -56 1418 c 0,19,20
 7 1481 7 1481 72 1546 c 0,21,22
 82 1556 82 1556 86 1564 c 1,0,-1
42 1596 m 1,23,-1
 42 1596 l 1,24,25
 42 1597 42 1597 43 1596 c 0,26,27
 45 1596 45 1596 45 1595 c 2,28,-1
 45 1556 l 2,29,30
 45 1543 45 1543 28 1526 c 0,31,32
 -15 1483 -15 1483 -56 1443 c 0,33,34
 -80 1417 -80 1417 -85 1394 c 0,35,36
 -85 1393 -85 1393 -87 1393 c 0,37,38
 -88 1394 -88 1394 -88 1395 c 2,39,-1
 -88 1424 l 2,40,41
 -91 1454 -91 1454 -56 1494 c 0,42,43
 -15 1535 -15 1535 28 1578 c 0,44,45
 38 1588 38 1588 42 1596 c 1,23,-1
EndSplineSet
EndChar

StartChar: dammatain
Encoding: 63 1612 62
Width: 0
GlyphClass: 4
Flags: W
AnchorPoint: "Anchor-4" 1 2025 basemark 0
AnchorPoint: "Anchor-4" 0 1376 mark 0
AnchorPoint: "Anchor-2" 0 1376 mark 0
AnchorPoint: "Anchor-0" 0 1376 mark 0
LayerCount: 2
Fore
SplineSet
-29 1353 m 1,0,-1
 -29 1353 l 1,1,2
 -29 1352 -29 1352 -28 1351 c 256,3,4
 -27 1350 -27 1350 -26 1351 c 0,5,6
 -14 1364 -14 1364 -1 1377 c 0,7,8
 75 1455 75 1455 90 1504 c 128,-1,9
 105 1553 105 1553 89.5 1570.5 c 128,-1,10
 74 1588 74 1588 57 1573 c 2,11,-1
 22 1539 l 2,12,13
 22 1538 22 1538 22 1537 c 0,14,15
 23 1536 23 1536 24 1537 c 0,16,17
 46 1541 46 1541 54 1509.5 c 128,-1,18
 62 1478 62 1478 22 1413 c 1,19,20
 31 1446 31 1446 19.5 1479.5 c 128,-1,21
 8 1513 8 1513 -6 1542 c 128,-1,22
 -20 1571 -20 1571 -16 1591 c 0,23,24
 -15 1592 -15 1592 -16 1592 c 0,25,26
 -17 1593 -17 1593 -18 1592 c 2,27,-1
 -52 1558 l 2,28,29
 -99 1508 -99 1508 -98 1466.5 c 128,-1,30
 -97 1425 -97 1425 -70.5 1408 c 128,-1,31
 -44 1391 -44 1391 -18 1414 c 1,32,33
 -12 1380 -12 1380 -29 1353 c 1,0,-1
-29 1452 m 1,34,35
 -55 1470 -55 1470 -55 1512 c 1,36,37
 -43 1485 -43 1485 -29 1452 c 1,34,35
EndSplineSet
EndChar

StartChar: kasratain
Encoding: 64 1613 63
Width: 0
GlyphClass: 4
Flags: W
AnchorPoint: "Anchor-5" -1 -600 basemark 0
AnchorPoint: "Anchor-5" -1 -140 mark 0
AnchorPoint: "Anchor-3" -1 -140 mark 0
AnchorPoint: "Anchor-1" 1 -141 mark 0
LayerCount: 2
Fore
SplineSet
86 -163 m 1,0,-1
 86 -163 l 1,1,2
 87 -162 87 -162 88 -162 c 0,3,4
 89 -163 89 -163 89 -164 c 2,5,-1
 89 -202 l 2,6,7
 89 -216 89 -216 72 -233 c 0,8,9
 7 -298 7 -298 -56 -361 c 0,10,11
 -80 -386 -80 -386 -85 -409 c 0,12,13
 -85 -410 -85 -410 -87 -410 c 0,14,15
 -88 -409 -88 -409 -88 -408 c 2,16,-1
 -88 -379 l 2,17,18
 -91 -349 -91 -349 -56 -309 c 0,19,20
 7 -246 7 -246 72 -181 c 0,21,22
 82 -171 82 -171 86 -163 c 1,0,-1
42 -131 m 1,23,-1
 42 -131 l 1,24,25
 42 -130 42 -130 43 -131 c 0,26,27
 45 -131 45 -131 45 -132 c 2,28,-1
 45 -171 l 2,29,30
 45 -184 45 -184 28 -201 c 0,31,32
 -15 -244 -15 -244 -56 -284 c 0,33,34
 -80 -310 -80 -310 -85 -333 c 0,35,36
 -85 -334 -85 -334 -87 -334 c 0,37,38
 -88 -333 -88 -333 -88 -332 c 2,39,-1
 -88 -303 l 2,40,41
 -91 -273 -91 -273 -56 -233 c 0,42,43
 -15 -192 -15 -192 28 -149 c 0,44,45
 38 -139 38 -139 42 -131 c 1,23,-1
EndSplineSet
EndChar

StartChar: fathah
Encoding: 65 1614 64
Width: 0
GlyphClass: 4
Flags: W
AnchorPoint: "Anchor-4" 0 1906 basemark 0
AnchorPoint: "Anchor-4" 0 1465 mark 0
AnchorPoint: "Anchor-2" 0 1465 mark 0
AnchorPoint: "Anchor-0" 0 1465 mark 0
LayerCount: 2
Fore
SplineSet
86 1595 m 1,0,-1
 86 1595 l 1,1,2
 87 1596 87 1596 88 1596 c 0,3,4
 89 1595 89 1595 89 1594 c 2,5,-1
 89 1556 l 2,6,7
 89 1542 89 1542 72 1525 c 0,8,9
 7 1460 7 1460 -56 1397 c 0,10,11
 -80 1372 -80 1372 -85 1349 c 0,12,13
 -85 1348 -85 1348 -87 1348 c 0,14,15
 -88 1349 -88 1349 -88 1350 c 2,16,-1
 -88 1379 l 2,17,18
 -91 1409 -91 1409 -56 1449 c 0,19,20
 7 1512 7 1512 72 1577 c 0,21,22
 82 1587 82 1587 86 1595 c 1,0,-1
EndSplineSet
EndChar

StartChar: dammah
Encoding: 66 1615 65
Width: 0
GlyphClass: 4
Flags: W
AnchorPoint: "Anchor-4" 0 2040 basemark 0
AnchorPoint: "Anchor-4" 0 1367 mark 0
AnchorPoint: "Anchor-2" 0 1367 mark 0
AnchorPoint: "Anchor-0" 0 1367 mark 0
LayerCount: 2
Fore
SplineSet
7 1355 m 1,0,-1
 7 1355 l 1,1,2
 7 1354 7 1354 8 1353 c 0,3,4
 9 1353 9 1353 10 1353 c 2,5,-1
 34 1377 l 2,6,7
 70 1417 70 1417 61.5 1457.5 c 128,-1,8
 53 1498 53 1498 34.5 1533 c 128,-1,9
 16 1568 16 1568 20 1592 c 0,10,11
 20 1593 20 1593 19 1594 c 256,12,13
 18 1595 18 1595 17 1594 c 2,14,-1
 -16 1560 l 2,15,16
 -63 1510 -63 1510 -62 1468.5 c 128,-1,17
 -61 1427 -61 1427 -34.5 1410 c 128,-1,18
 -8 1393 -8 1393 18 1416 c 1,19,20
 24 1386 24 1386 7 1355 c 1,0,-1
7 1454 m 1,21,22
 -19 1472 -19 1472 -19 1514 c 1,23,24
 -7 1487 -7 1487 7 1454 c 1,21,22
EndSplineSet
EndChar

StartChar: kasrah
Encoding: 67 1616 66
Width: 0
GlyphClass: 4
Flags: W
AnchorPoint: "Anchor-5" 0 -434 basemark 0
AnchorPoint: "Anchor-5" 0 -95 mark 0
AnchorPoint: "Anchor-3" 0 -95 mark 0
AnchorPoint: "Anchor-1" 0 -95 mark 0
LayerCount: 2
Fore
SplineSet
86 -13 m 1,0,-1
 86 -13 l 1,1,2
 87 -12 87 -12 88 -12 c 0,3,4
 89 -13 89 -13 89 -14 c 2,5,-1
 89 -52 l 2,6,7
 89 -66 89 -66 72 -83 c 0,8,9
 7 -148 7 -148 -56 -211 c 0,10,11
 -80 -236 -80 -236 -85 -259 c 0,12,13
 -85 -260 -85 -260 -87 -260 c 0,14,15
 -88 -259 -88 -259 -88 -258 c 2,16,-1
 -88 -229 l 2,17,18
 -91 -199 -91 -199 -56 -159 c 0,19,20
 7 -96 7 -96 72 -31 c 0,21,22
 82 -21 82 -21 86 -13 c 1,0,-1
EndSplineSet
EndChar

StartChar: tasydid
Encoding: 68 1617 67
Width: 0
GlyphClass: 4
Flags: W
AnchorPoint: "Anchor-4" 0 2070 basemark 0
AnchorPoint: "Anchor-4" 0 1353 mark 0
AnchorPoint: "Anchor-2" 0 1353 mark 0
AnchorPoint: "Anchor-0" 0 1353 mark 0
LayerCount: 2
Fore
SplineSet
34 1352 m 1,0,-1
 34 1352 l 1,1,2
 55 1373 55 1373 88 1406 c 0,3,4
 122 1442 122 1442 110.5 1477 c 128,-1,5
 99 1512 99 1512 77.5 1541.5 c 128,-1,6
 56 1571 56 1571 58 1592 c 0,7,8
 58 1593 58 1593 57 1594 c 256,9,10
 56 1595 56 1595 55 1594 c 2,11,-1
 24 1562 l 2,12,13
 9 1545 9 1545 25 1520 c 128,-1,14
 41 1495 41 1495 59 1464 c 128,-1,15
 77 1433 77 1433 69 1399 c 1,16,17
 53 1413 53 1413 21.5 1453 c 128,-1,18
 -10 1493 -10 1493 -7 1524 c 0,19,20
 -6 1525 -6 1525 -7 1526 c 0,21,22
 -8 1526 -8 1526 -9 1525 c 2,23,-1
 -41 1493 l 2,24,25
 -56 1473 -56 1473 -36.5 1441 c 128,-1,26
 -17 1409 -17 1409 -23 1364 c 1,27,28
 -55 1385 -55 1385 -65.5 1410 c 128,-1,29
 -76 1435 -76 1435 -68 1455 c 0,30,31
 -67 1456 -67 1456 -68 1457 c 0,32,33
 -69 1457 -69 1457 -70 1457 c 2,34,-1
 -99 1427 l 2,35,36
 -119 1407 -119 1407 -108 1373.5 c 128,-1,37
 -97 1340 -97 1340 -48 1315 c 1,38,39
 -7 1355 -7 1355 -7 1355 c 2,40,41
 1 1364 1 1364 9 1379 c 1,42,43
 20 1366 20 1366 34 1352 c 1,0,-1
EndSplineSet
EndChar

StartChar: sukun
Encoding: 69 1618 68
Width: 0
GlyphClass: 4
Flags: W
AnchorPoint: "Anchor-4" 0 2055 basemark 0
AnchorPoint: "Anchor-4" 0 1408 mark 0
AnchorPoint: "Anchor-2" 1 1408 mark 0
AnchorPoint: "Anchor-0" 1 1408 mark 0
LayerCount: 2
Fore
SplineSet
-24 1544 m 1,0,1
 -5 1527 -5 1527 15 1503.5 c 128,-1,2
 35 1480 35 1480 21 1442 c 1,3,4
 -6 1468 -6 1468 -19 1492.5 c 128,-1,5
 -32 1517 -32 1517 -24 1544 c 1,0,1
28 1435 m 2,6,7
 72 1482 72 1482 69 1511.5 c 128,-1,8
 66 1541 66 1541 44.5 1560.5 c 128,-1,9
 23 1580 23 1580 12 1596 c 1,10,-1
 -31 1553 l 2,11,12
 -78 1506 -78 1506 -68 1469.5 c 128,-1,13
 -58 1433 -58 1433 -15 1393 c 1,14,-1
 28 1435 l 2,6,7
EndSplineSet
EndChar

StartChar: kosong.arab
Encoding: 70 1632 69
Width: 341
GlyphClass: 2
Flags: W
LayerCount: 2
Fore
SplineSet
328 66 m 1,0,-1
 328 66 l 1,1,-1
 203 -59 l 2,2,3
 202 -60 202 -60 201 -59 c 0,4,5
 200 -59 200 -59 200 -58 c 0,6,7
 210 -30 210 -30 188 2.5 c 128,-1,8
 166 35 166 35 136 63.5 c 128,-1,9
 106 92 106 92 90 107 c 1,10,-1
 228 244 l 1,11,12
 246 228 246 228 279 196 c 128,-1,13
 312 164 312 164 332 128.5 c 128,-1,14
 352 93 352 93 328 66 c 1,0,-1
EndSplineSet
EndChar

StartChar: satu.arab
Encoding: 71 1633 70
Width: 333
GlyphClass: 2
Flags: W
LayerCount: 2
Fore
SplineSet
231 724 m 0,0,1
 231 725 231 725 230 725 c 0,2,3
 229 726 229 726 228 725 c 2,4,-1
 101 598 l 2,5,6
 79 571 79 571 102 491 c 128,-1,7
 125 411 125 411 157 304 c 128,-1,8
 189 197 189 197 195.5 88.5 c 128,-1,9
 202 -20 202 -20 147 -103 c 0,10,11
 146 -104 146 -104 147 -105 c 256,12,13
 148 -106 148 -106 149 -105 c 2,14,-1
 259 5 l 2,15,16
 329 80 329 80 331.5 185.5 c 128,-1,17
 334 291 334 291 304 400.5 c 128,-1,18
 274 510 274 510 247 597.5 c 128,-1,19
 220 685 220 685 231 724 c 0,0,1
EndSplineSet
EndChar

StartChar: dua.arab
Encoding: 72 1634 71
Width: 624
GlyphClass: 2
Flags: W
LayerCount: 2
Fore
SplineSet
250 580 m 1,0,-1
 250 580 l 1,1,2
 329 571 329 571 401.5 563.5 c 128,-1,3
 474 556 474 556 494 570 c 1,4,-1
 623 699 l 2,5,6
 624 700 624 700 623 701 c 0,7,8
 623 702 623 702 621 702 c 0,9,10
 586 693 586 693 506 703.5 c 128,-1,11
 426 714 426 714 349.5 720.5 c 128,-1,12
 273 727 273 727 248 707 c 2,13,-1
 111 570 l 1,14,15
 69 522 69 522 114 441 c 128,-1,16
 159 360 159 360 233 263.5 c 128,-1,17
 307 167 307 167 350 70.5 c 128,-1,18
 393 -26 393 -26 345 -106 c 0,19,20
 344 -107 344 -107 345 -108 c 256,21,22
 346 -109 346 -109 347 -108 c 2,23,-1
 460 5 l 2,24,25
 516 65 516 65 505 138 c 128,-1,26
 494 211 494 211 445.5 289 c 128,-1,27
 397 367 397 367 340.5 442 c 128,-1,28
 284 517 284 517 250 580 c 1,0,-1
EndSplineSet
EndChar

StartChar: tiga.arab
Encoding: 73 1635 72
Width: 732
GlyphClass: 2
Flags: W
LayerCount: 2
Fore
SplineSet
411 459 m 1,0,-1
 411 459 l 1,1,2
 442 469 442 469 468 491 c 1,3,4
 510 460 510 460 546 460.5 c 128,-1,5
 582 461 582 461 621 501 c 2,6,-1
 732 611 l 2,7,8
 733 612 733 612 732 614 c 0,9,10
 731 615 731 615 730 614 c 0,11,12
 688 589 688 589 643 608.5 c 128,-1,13
 598 628 598 628 557.5 666.5 c 128,-1,14
 517 705 517 705 489 735 c 1,15,-1
 369 615 l 1,16,17
 277 657 277 657 228 707 c 1,18,-1
 91 570 l 1,19,20
 122 540 122 540 181 463 c 128,-1,21
 240 386 240 386 294.5 285.5 c 128,-1,22
 349 185 349 185 365.5 82 c 128,-1,23
 382 -21 382 -21 327 -103 c 0,24,25
 327 -104 327 -104 328 -105 c 256,26,27
 329 -106 329 -106 330 -105 c 2,28,-1
 440 5 l 2,29,30
 497 64 497 64 504 140.5 c 128,-1,31
 511 217 511 217 483.5 299.5 c 128,-1,32
 456 382 456 382 411 459 c 1,0,-1
EndSplineSet
EndChar

StartChar: empat.arab
Encoding: 74 1636 73
Width: 627
GlyphClass: 2
Flags: W
LayerCount: 2
Fore
SplineSet
339 212 m 1,0,-1
 339 212 l 1,1,-1
 464 336 l 2,2,3
 496 371 496 371 460 411 c 128,-1,4
 424 451 424 451 363 494 c 128,-1,5
 302 537 302 537 259 582 c 1,6,7
 338 580 338 580 408.5 578 c 128,-1,8
 479 576 479 576 499 591 c 2,9,-1
 627 719 l 2,10,11
 628 720 628 720 627 721 c 0,12,13
 627 722 627 722 625 722 c 0,14,15
 590 712 590 712 510 715.5 c 128,-1,16
 430 719 430 719 353.5 719.5 c 128,-1,17
 277 720 277 720 252 700 c 2,18,-1
 115 563 l 2,19,20
 69 512 69 512 108.5 462 c 128,-1,21
 148 412 148 412 216 364 c 1,22,-1
 115 263 l 2,23,24
 72 216 72 216 103.5 170 c 128,-1,25
 135 124 135 124 196.5 79.5 c 128,-1,26
 258 35 258 35 305 -6.5 c 128,-1,27
 352 -48 352 -48 339 -85 c 0,28,29
 338 -86 338 -86 339 -87 c 256,30,31
 340 -88 340 -88 341 -87 c 2,32,-1
 464 36 l 2,33,34
 498 75 498 75 452.5 119 c 128,-1,35
 407 163 407 163 339 212 c 1,0,-1
EndSplineSet
EndChar

StartChar: lima.arab
Encoding: 75 1637 74
Width: 589
GlyphClass: 2
Flags: W
LayerCount: 2
Fore
SplineSet
264 567 m 1,0,1
 289 528 289 528 346 458 c 128,-1,2
 403 388 403 388 437 291 c 128,-1,3
 471 194 471 194 427 76 c 1,4,5
 274 235 274 235 240 351 c 128,-1,6
 206 467 206 467 264 567 c 1,0,1
451 52 m 1,7,-1
 451 52 l 1,8,9
 576 182 576 182 586 293 c 128,-1,10
 596 404 596 404 547.5 492.5 c 128,-1,11
 499 581 499 581 447 640.5 c 128,-1,12
 395 700 395 700 395 727 c 0,13,14
 395 728 395 728 394 728 c 0,15,16
 393 729 393 729 392 728 c 2,17,-1
 262 598 l 2,18,19
 155 495 155 495 111.5 398 c 128,-1,20
 68 301 68 301 112.5 186.5 c 128,-1,21
 157 72 157 72 314 -85 c 1,22,-1
 451 52 l 1,7,-1
EndSplineSet
EndChar

StartChar: enam.arab
Encoding: 76 1638 75
Width: 706
GlyphClass: 2
Flags: W
LayerCount: 2
Fore
SplineSet
626 700 m 1,0,-1
 626 700 l 1,1,2
 626 701 626 701 626 702 c 0,3,4
 625 703 625 703 624 702 c 0,5,6
 562 686 562 686 416 697 c 128,-1,7
 270 708 270 708 228 735 c 1,8,-1
 91 598 l 1,9,10
 135 560 135 560 226.5 551.5 c 128,-1,11
 318 543 318 543 399.5 551 c 128,-1,12
 481 559 481 559 496 570 c 1,13,14
 437 506 437 506 440 402.5 c 128,-1,15
 443 299 443 299 476.5 187.5 c 128,-1,16
 510 76 510 76 541 -11.5 c 128,-1,17
 572 -99 572 -99 567 -131 c 0,18,19
 567 -133 567 -133 568 -133 c 0,20,21
 569 -134 569 -134 570 -133 c 2,22,-1
 700 -3 l 1,23,24
 714 17 714 17 685.5 101 c 128,-1,25
 657 185 657 185 621 298.5 c 128,-1,26
 585 412 585 412 577.5 521 c 128,-1,27
 570 630 570 630 626 700 c 1,0,-1
EndSplineSet
EndChar

StartChar: tujuh.arab
Encoding: 77 1639 76
Width: 593
GlyphClass: 2
Flags: W
LayerCount: 2
Fore
SplineSet
231 697 m 0,0,1
 231 698 231 698 230 699 c 0,2,3
 229 699 229 699 228 698 c 2,4,-1
 100 570 l 2,5,6
 78 543 78 543 114.5 453 c 128,-1,7
 151 363 151 363 207 248.5 c 128,-1,8
 263 134 263 134 301 32.5 c 128,-1,9
 339 -69 339 -69 321 -118 c 0,10,11
 321 -120 321 -120 322 -120 c 0,12,13
 323 -121 323 -121 324 -120 c 2,14,-1
 449 5 l 2,15,16
 551 111 551 111 577 219 c 128,-1,17
 603 327 603 327 590.5 425 c 128,-1,18
 578 523 578 523 562.5 599.5 c 128,-1,19
 547 676 547 676 565 719 c 0,20,21
 566 720 566 720 565 721 c 256,22,23
 564 722 564 722 563 721 c 2,24,-1
 440 598 l 2,25,26
 410 564 410 564 421 494 c 128,-1,27
 432 424 432 424 448.5 330 c 128,-1,28
 465 236 465 236 451 130 c 1,29,30
 421 225 421 225 364.5 341.5 c 128,-1,31
 308 458 308 458 264.5 556.5 c 128,-1,32
 221 655 221 655 231 697 c 0,0,1
EndSplineSet
EndChar

StartChar: lapan.arab
Encoding: 78 1640 77
Width: 587
GlyphClass: 2
Flags: W
LayerCount: 2
Fore
SplineSet
341 689 m 0,0,1
 342 690 342 690 341 691 c 256,2,3
 340 692 340 692 339 691 c 2,4,-1
 218 570 l 2,5,6
 135 484 135 484 110 379 c 128,-1,7
 85 274 85 274 91 171.5 c 128,-1,8
 97 69 97 69 108.5 -9.5 c 128,-1,9
 120 -88 120 -88 110 -121 c 0,10,11
 110 -122 110 -122 111 -123 c 256,12,13
 112 -124 112 -124 113 -123 c 2,14,-1
 240 5 l 1,15,16
 260 32 260 32 244.5 131.5 c 128,-1,17
 229 231 229 231 227 362 c 1,18,19
 271 274 271 274 329.5 182 c 128,-1,20
 388 90 388 90 425.5 11.5 c 128,-1,21
 463 -67 463 -67 442 -116 c 0,22,23
 441 -117 441 -117 442 -118 c 0,24,25
 443 -118 443 -118 444 -118 c 2,26,-1
 567 5 l 1,27,28
 607 51 607 51 567.5 137.5 c 128,-1,29
 528 224 528 224 461 327.5 c 128,-1,30
 394 431 394 431 351 527.5 c 128,-1,31
 308 624 308 624 341 689 c 0,0,1
EndSplineSet
EndChar

StartChar: sembilan.arab
Encoding: 79 1641 78
Width: 603
GlyphClass: 2
Flags: W
LayerCount: 2
Fore
SplineSet
394 570 m 1,0,-1
 394 570 l 1,1,2
 349 523 349 523 341 452 c 128,-1,3
 333 381 333 381 349 299 c 1,4,5
 290 310 290 310 260.5 358.5 c 128,-1,6
 231 407 231 407 228 473 c 128,-1,7
 225 539 225 539 248 602 c 1,8,9
 310 617 310 617 394 570 c 1,0,-1
370 204 m 1,10,-1
 370 204 l 1,11,12
 404 88 404 88 437 -4.5 c 128,-1,13
 470 -97 470 -97 465 -131 c 0,14,15
 465 -132 465 -132 466 -133 c 256,16,17
 467 -134 467 -134 468 -133 c 2,18,-1
 598 -3 l 1,19,20
 613 18 613 18 583.5 103.5 c 128,-1,21
 554 189 554 189 517.5 304.5 c 128,-1,22
 481 420 481 420 475 529.5 c 128,-1,23
 469 639 469 639 531 707 c 1,24,-1
 531 707 l 1,25,-1
 531 707 l 1,26,-1
 531 707 l 1,27,-1
 531 707 l 1,28,29
 457 748 457 748 400 741 c 128,-1,30
 343 734 343 734 304 694 c 2,31,-1
 167 557 l 2,32,33
 115 502 115 502 98 419 c 128,-1,34
 81 336 81 336 104 263.5 c 128,-1,35
 127 191 127 191 192.5 166.5 c 128,-1,36
 258 142 258 142 370 204 c 1,37,-1
 370 204 l 1,10,-1
EndSplineSet
EndChar

StartChar: alif.fina_maddah
Encoding: 97 65154 79
Width: 91
GlyphClass: 2
Flags: W
AnchorPoint: "Anchor-1" 120 -86 basechar 0
AnchorPoint: "Anchor-0" 121 1081 basechar 0
LayerCount: 2
Fore
SplineSet
227 883 m 1,0,-1
 90 746 l 1,1,2
 90 286 90 286 90 1 c 1,3,-1
 227 138 l 1,4,5
 227 599 227 599 227 883 c 1,0,-1
70 947 m 1,6,-1
 70 947 l 1,7,-1
 34 912 l 2,8,9
 33 911 33 911 34 910 c 256,10,11
 35 909 35 909 36 909 c 0,12,13
 70 925 70 925 117 925 c 128,-1,14
 164 925 164 925 206 925 c 128,-1,15
 248 925 248 925 266 940 c 2,16,-1
 306 980 l 2,17,18
 307 981 307 981 306 982 c 256,19,20
 305 983 305 983 304 983 c 0,21,22
 277 973 277 973 231.5 975 c 128,-1,23
 186 977 186 977 141 974 c 128,-1,24
 96 971 96 971 70 947 c 1,6,-1
EndSplineSet
EndChar

StartChar: alif_hamzah-ats
Encoding: 99 65156 80
Width: 91
GlyphClass: 2
Flags: W
AnchorPoint: "Anchor-1" 121 -88 basechar 0
AnchorPoint: "Anchor-0" 121 1234 basechar 0
LayerCount: 2
Fore
SplineSet
227 883 m 1,0,-1
 90 746 l 1,1,2
 90 286 90 286 90 1 c 1,3,-1
 227 138 l 1,4,5
 227 599 227 599 227 883 c 1,0,-1
247 923 m 1,6,-1
 247 923 l 1,7,-1
 299 975 l 1,8,9
 231 975 231 975 187.5 999.5 c 128,-1,10
 144 1024 144 1024 159 1071 c 1,11,12
 182 1065 182 1065 206.5 1046.5 c 128,-1,13
 231 1028 231 1028 224 1005 c 0,14,15
 223 1004 223 1004 224 1003 c 0,16,17
 225 1003 225 1003 226 1004 c 2,18,-1
 268 1046 l 2,19,20
 287 1067 287 1067 270 1086.5 c 128,-1,21
 253 1106 253 1106 227.5 1116.5 c 128,-1,22
 202 1127 202 1127 195 1123 c 2,23,-1
 143 1071 l 2,24,25
 86 1010 86 1010 109 974 c 1,26,27
 94 971 94 971 85 963 c 2,28,-1
 42 919 l 2,29,30
 41 919 41 919 41 918 c 0,31,32
 42 917 42 917 43 917 c 0,33,34
 67 925 67 925 140 924.5 c 128,-1,35
 213 924 213 924 247 923 c 1,6,-1
EndSplineSet
EndChar

StartChar: wau.fina_hamzah-ats
Encoding: 101 65158 81
Width: 495
GlyphClass: 2
Flags: W
AnchorPoint: "Anchor-1" 349 -394 basechar 0
AnchorPoint: "Anchor-0" 288 1034 basechar 0
LayerCount: 2
Fore
SplineSet
452 781 m 2,0,-1
 453 781 l 1,1,-1
 504 833 l 1,2,3
 436 833 436 833 393 857 c 128,-1,4
 350 881 350 881 364 928 c 1,5,6
 387 922 387 922 411.5 904 c 128,-1,7
 436 886 436 886 429 862 c 1,8,9
 429 862 429 862 429 861 c 1,10,11
 430 861 430 861 431 861 c 2,12,-1
 473 903 l 2,13,14
 492 925 492 925 475.5 944.5 c 128,-1,15
 459 964 459 964 433.5 974.5 c 128,-1,16
 408 985 408 985 401 980 c 2,17,-1
 349 928 l 2,18,19
 291 868 291 868 314 831 c 1,20,21
 299 829 299 829 290 820 c 2,22,-1
 247 777 l 2,23,24
 246 776 246 776 247 775 c 2,25,26
 247 775 247 775 248 775 c 0,27,28
 273 782 273 782 345.5 781.5 c 128,-1,29
 418 781 418 781 452 781 c 2,0,-1
310 -69 m 1,30,-1
 310 -69 l 1,31,32
 374 -6 374 -6 476 95 c 1,33,34
 497 11 497 11 482 -79 c 128,-1,35
 467 -169 467 -169 396 -261 c 0,36,37
 395 -262 395 -262 396 -263 c 256,38,39
 397 -264 397 -264 398 -263 c 2,40,-1
 492 -169 l 2,41,42
 604 -54 604 -54 622.5 55.5 c 128,-1,43
 641 165 641 165 603.5 264.5 c 128,-1,44
 566 364 566 364 510 449.5 c 128,-1,45
 454 535 454 535 417 601.5 c 128,-1,46
 380 668 380 668 399 712 c 0,47,48
 399 713 399 713 398 714 c 256,49,50
 397 715 397 715 396 714 c 2,51,-1
 274 592 l 2,52,53
 129 447 129 447 100 341.5 c 128,-1,54
 71 236 71 236 130.5 141 c 128,-1,55
 190 46 190 46 310 -69 c 1,30,-1
253 521 m 1,56,57
 271 452 271 452 323 386 c 128,-1,58
 375 320 375 320 413.5 247.5 c 128,-1,59
 452 175 452 175 428 87 c 1,60,61
 305 205 305 205 253.5 304.5 c 128,-1,62
 202 404 202 404 253 521 c 1,56,57
EndSplineSet
EndChar

StartChar: alif.fina_hamzah-bwh
Encoding: 103 65160 82
Width: 91
GlyphClass: 2
Flags: W
AnchorPoint: "Anchor-1" 121 -438 basechar 0
AnchorPoint: "Anchor-0" 118 948 basechar 0
LayerCount: 2
Fore
SplineSet
227 883 m 1,0,-1
 90 746 l 1,1,2
 90 286 90 286 90 1 c 1,3,-1
 227 138 l 1,4,5
 227 599 227 599 227 883 c 1,0,-1
214 -266 m 1,6,-1
 214 -266 l 1,7,-1
 266 -214 l 1,8,9
 197 -214 197 -214 154 -189.5 c 128,-1,10
 111 -165 111 -165 125 -118 c 1,11,12
 149 -124 149 -124 173 -142.5 c 128,-1,13
 197 -161 197 -161 190 -184 c 0,14,15
 190 -185 190 -185 191 -186 c 0,16,17
 192 -186 192 -186 192 -185 c 2,18,-1
 235 -143 l 2,19,20
 253 -122 253 -122 236.5 -102.5 c 128,-1,21
 220 -83 220 -83 194.5 -72.5 c 128,-1,22
 169 -62 169 -62 162 -66 c 2,23,-1
 110 -118 l 2,24,25
 52 -179 52 -179 75 -215 c 1,26,27
 61 -218 61 -218 52 -226 c 2,28,-1
 8 -270 l 1,29,30
 8 -270 8 -270 8 -271 c 0,31,32
 9 -272 9 -272 10 -272 c 0,33,34
 34 -264 34 -264 107 -264.5 c 128,-1,35
 180 -265 180 -265 214 -266 c 1,6,-1
EndSplineSet
EndChar

StartChar: ye.fina_hamzah-ats
Encoding: 105 65162 83
Width: 1096
GlyphClass: 2
Flags: W
AnchorPoint: "tandaV" 492 225 basechar 0
AnchorPoint: "Anchor-1" 397 -207 basechar 0
AnchorPoint: "Anchor-0" 282 533 basechar 0
LayerCount: 2
Fore
SplineSet
210 107 m 1,0,-1
 210 107 l 1,1,-1
 91 -13 l 2,2,3
 90 -14 90 -14 91 -15 c 256,4,5
 92 -16 92 -16 93 -15 c 0,6,7
 117 -2 117 -2 157.5 0.5 c 128,-1,8
 198 3 198 3 269 2 c 0,9,10
 603 2 603 2 937 2 c 1,11,-1
 1074 139 l 1,12,13
 1074 139 1074 139 1070 139 c 0,14,15
 1030 142 1030 142 967 187 c 128,-1,16
 904 232 904 232 868.5 310.5 c 128,-1,17
 833 389 833 389 874 494 c 1,18,19
 930 471 930 471 1000 389.5 c 128,-1,20
 1070 308 1070 308 1106.5 207.5 c 128,-1,21
 1143 107 1143 107 1096 27 c 0,22,23
 1096 26 1096 26 1097 25 c 256,24,25
 1098 24 1098 24 1099 25 c 2,26,-1
 1213 139 l 1,27,28
 1273 205 1273 205 1255.5 296 c 128,-1,29
 1238 387 1238 387 1179 471 c 128,-1,30
 1120 555 1120 555 1059 602 c 128,-1,31
 998 649 998 649 971 629 c 1,32,-1
 834 492 l 2,33,34
 730 384 730 384 718 294.5 c 128,-1,35
 706 205 706 205 748 139 c 1,36,37
 529 139 529 139 405 139 c 0,38,39
 320 141 320 141 277 136.5 c 128,-1,40
 234 132 234 132 210 107 c 1,0,-1
503 231 m 1,41,-1
 503 231 l 1,42,-1
 555 283 l 1,43,44
 486 283 486 283 443 307.5 c 128,-1,45
 400 332 400 332 414 379 c 1,46,47
 438 373 438 373 462 354.5 c 128,-1,48
 486 336 486 336 479 313 c 0,49,50
 479 312 479 312 480 312 c 0,51,52
 481 311 481 311 481 312 c 2,53,-1
 524 354 l 2,54,55
 542 376 542 376 525.5 395 c 128,-1,56
 509 414 509 414 483.5 424.5 c 128,-1,57
 458 435 458 435 451 431 c 2,58,-1
 399 379 l 2,59,60
 341 318 341 318 364 282 c 1,61,62
 349 279 349 279 341 271 c 2,63,-1
 297 228 l 2,64,65
 297 227 297 227 297 226 c 0,66,67
 298 225 298 225 299 226 c 0,68,69
 323 233 323 233 396 232.5 c 128,-1,70
 469 232 469 232 503 231 c 1,41,-1
1202 139 m 1,71,-1
 1074 3 l 1,72,-1
 1096 2 l 1,73,-1
 1241 139 l 1,74,-1
 1202 139 l 1,71,-1
EndSplineSet
EndChar

StartChar: ye.init_hamzah-ats
Encoding: 106 65163 84
Width: 541
GlyphClass: 2
Flags: W
AnchorPoint: "Anchor-1" 199 -202 basechar 0
AnchorPoint: "Anchor-0" 227 1117 basechar 0
LayerCount: 2
Fore
SplineSet
473 773 m 1,0,-1
 544 844 l 1,1,2
 451 844 451 844 392 877.5 c 128,-1,3
 333 911 333 911 352 975 c 1,4,5
 384 967 384 967 417.5 942 c 128,-1,6
 451 917 451 917 441 885 c 0,7,8
 441 884 441 884 442 883 c 256,9,10
 443 882 443 882 444 883 c 2,11,-1
 502 941 l 2,12,13
 527 971 527 971 504 997 c 128,-1,14
 481 1023 481 1023 446.5 1038 c 128,-1,15
 412 1053 412 1053 402 1047 c 2,16,-1
 331 975 l 2,17,18
 252 892 252 892 284 842 c 1,19,20
 263 839 263 839 251 827 c 2,21,-1
 192 768 l 2,22,23
 191 767 191 767 191 766 c 0,24,25
 192 765 192 765 193 765 c 0,26,27
 227 775 227 775 327 774.5 c 128,-1,28
 427 774 427 774 473 773 c 1,0,-1
275 -83 m 1,29,-1
 275 -83 l 1,30,31
 364 6 364 6 455 97 c 0,32,33
 546 192 546 192 541 273 c 128,-1,34
 536 354 536 354 487 422.5 c 128,-1,35
 438 491 438 491 399 548.5 c 128,-1,36
 360 606 360 606 383 654 c 0,37,38
 383 655 383 655 382 656 c 256,39,40
 381 657 381 657 380 656 c 2,41,-1
 261 537 l 2,42,43
 222 495 222 495 244.5 446 c 128,-1,44
 267 397 267 397 312 340 c 128,-1,45
 357 283 357 283 387 216.5 c 128,-1,46
 417 150 417 150 393 72 c 1,47,48
 316 143 316 143 241.5 164.5 c 128,-1,49
 167 186 167 186 116 139 c 2,50,-1
 -2 21 l 2,51,52
 -3 20 -3 20 -2 19 c 256,53,54
 -1 18 -1 18 0 19 c 0,55,56
 55 49 55 49 129 19.5 c 128,-1,57
 203 -10 203 -10 275 -83 c 1,29,-1
EndSplineSet
EndChar

StartChar: ye.medi_hamzah-ats
Encoding: 107 65164 85
Width: 355
GlyphClass: 2
Flags: W
AnchorPoint: "Anchor-1" 227 -202 basechar 0
AnchorPoint: "Anchor-0" 285 1204 basechar 0
LayerCount: 2
Fore
SplineSet
473 773 m 1,0,-1
 544 844 l 1,1,2
 451 844 451 844 392 877.5 c 128,-1,3
 333 911 333 911 352 975 c 1,4,5
 384 967 384 967 417.5 942 c 128,-1,6
 451 917 451 917 441 885 c 0,7,8
 441 884 441 884 442 883 c 256,9,10
 443 882 443 882 444 883 c 2,11,-1
 502 941 l 2,12,13
 527 971 527 971 504 997 c 128,-1,14
 481 1023 481 1023 446.5 1038 c 128,-1,15
 412 1053 412 1053 402 1047 c 2,16,-1
 331 975 l 2,17,18
 252 892 252 892 284 842 c 1,19,20
 263 839 263 839 251 827 c 2,21,-1
 192 768 l 2,22,23
 191 767 191 767 191 766 c 0,24,25
 192 765 192 765 193 765 c 0,26,27
 227 775 227 775 327 774.5 c 128,-1,28
 427 774 427 774 473 773 c 1,0,-1
275 -83 m 1,29,-1
 275 -83 l 1,30,31
 364 6 364 6 455 97 c 0,32,33
 546 192 546 192 541 273 c 128,-1,34
 536 354 536 354 487 422.5 c 128,-1,35
 438 491 438 491 399 548.5 c 128,-1,36
 360 606 360 606 383 654 c 0,37,38
 383 655 383 655 382 656 c 256,39,40
 381 657 381 657 380 656 c 2,41,-1
 261 537 l 2,42,43
 222 495 222 495 244.5 446 c 128,-1,44
 267 397 267 397 312 340 c 128,-1,45
 357 283 357 283 387 216.5 c 128,-1,46
 417 150 417 150 393 72 c 1,47,48
 316 143 316 143 241.5 164.5 c 128,-1,49
 167 186 167 186 116 139 c 2,50,-1
 -2 21 l 2,51,52
 -3 20 -3 20 -2 19 c 256,53,54
 -1 18 -1 18 0 19 c 0,55,56
 55 49 55 49 129 19.5 c 128,-1,57
 203 -10 203 -10 275 -83 c 1,29,-1
EndSplineSet
EndChar

StartChar: alif.fina
Encoding: 109 65166 86
Width: 91
GlyphClass: 2
Flags: W
AnchorPoint: "Anchor-1" 160 -68 basechar 0
AnchorPoint: "Anchor-0" 118 942 basechar 0
LayerCount: 2
Fore
SplineSet
227 883 m 1,0,-1
 90 746 l 1,1,2
 90 286 90 286 90 1 c 1,3,-1
 227 138 l 1,4,5
 227 599 227 599 227 883 c 1,0,-1
EndSplineSet
EndChar

StartChar: ba.fina
Encoding: 111 65168 87
Width: 774
GlyphClass: 2
Flags: W
AnchorPoint: "Anchor-1" 285 -430 basechar 0
AnchorPoint: "Anchor-0" 449 700 basechar 0
LayerCount: 2
Fore
SplineSet
238 514 m 1,0,1
 238 515 238 515 237 516 c 0,2,3
 236 516 236 516 235 515 c 2,4,-1
 111 391 l 2,5,6
 86 362 86 362 91.5 295 c 128,-1,7
 97 228 97 228 117.5 148 c 128,-1,8
 138 68 138 68 156 3 c 1,9,10
 397 3 397 3 402 3 c 0,11,12
 446 44 446 44 501 33.5 c 128,-1,13
 556 23 556 23 607.5 -12.5 c 128,-1,14
 659 -48 659 -48 693 -83 c 1,15,16
 781 6 781 6 872 97 c 0,17,18
 963 192 963 192 958 273 c 128,-1,19
 953 354 953 354 904.5 422.5 c 128,-1,20
 856 491 856 491 816.5 548.5 c 128,-1,21
 777 606 777 606 800 654 c 0,22,23
 801 655 801 655 800 656 c 256,24,25
 799 657 799 657 798 656 c 2,26,-1
 679 537 l 2,27,28
 640 495 640 495 662 446 c 128,-1,29
 684 397 684 397 729.5 340 c 128,-1,30
 775 283 775 283 804.5 216.5 c 128,-1,31
 834 150 834 150 811 72 c 1,32,33
 734 143 734 143 659 164.5 c 128,-1,34
 584 186 584 186 534 139 c 1,35,36
 516 140 516 140 293 140 c 1,37,38
 266 233 266 233 241 344.5 c 128,-1,39
 216 456 216 456 238 514 c 1,0,1
577 -245 m 2,40,-1
 484 -338 l 2,41,42
 483 -338 483 -338 482 -338 c 0,43,44
 481 -337 481 -337 481 -336 c 0,45,46
 487 -304 487 -304 453 -268 c 128,-1,47
 419 -232 419 -232 398 -215 c 1,48,-1
 501 -112 l 1,49,50
 515 -124 515 -124 540 -148 c 128,-1,51
 565 -172 565 -172 579.5 -198.5 c 128,-1,52
 594 -225 594 -225 577 -245 c 2,40,-1
EndSplineSet
EndChar

StartChar: ba.init
Encoding: 112 65169 88
Width: 541
GlyphClass: 2
Flags: W
AnchorPoint: "Anchor-1" 232 -438 basechar 0
AnchorPoint: "Anchor-0" 230 703 basechar 0
LayerCount: 2
Fore
SplineSet
275 -83 m 1,0,1
 364 6 364 6 455 97 c 0,2,3
 546 192 546 192 541 273 c 128,-1,4
 536 354 536 354 487 422.5 c 128,-1,5
 438 491 438 491 399 548.5 c 128,-1,6
 360 606 360 606 383 654 c 0,7,8
 383 655 383 655 382 656 c 256,9,10
 381 657 381 657 380 656 c 2,11,-1
 261 537 l 2,12,13
 222 495 222 495 244.5 446 c 128,-1,14
 267 397 267 397 312 340 c 128,-1,15
 357 283 357 283 387 216.5 c 128,-1,16
 417 150 417 150 393 72 c 1,17,18
 316 143 316 143 241.5 164.5 c 128,-1,19
 167 186 167 186 116 139 c 2,20,-1
 -2 21 l 2,21,22
 -3 20 -3 20 -2 19 c 256,23,24
 -1 18 -1 18 0 19 c 0,25,26
 55 49 55 49 129 19.5 c 128,-1,27
 203 -10 203 -10 275 -83 c 1,0,1
441 -245 m 2,28,-1
 348 -338 l 2,29,30
 347 -338 347 -338 346 -338 c 0,31,32
 345 -337 345 -337 345 -336 c 0,33,34
 351 -304 351 -304 317 -268 c 128,-1,35
 283 -232 283 -232 262 -215 c 1,36,-1
 365 -112 l 1,37,38
 379 -124 379 -124 404 -148 c 128,-1,39
 429 -172 429 -172 443.5 -198.5 c 128,-1,40
 458 -225 458 -225 441 -245 c 2,28,-1
EndSplineSet
EndChar

StartChar: ba.medi
Encoding: 113 65170 89
Width: 355
GlyphClass: 2
Flags: W
AnchorPoint: "Anchor-1" 230 -438 basechar 0
AnchorPoint: "Anchor-0" 285 853 basechar 0
LayerCount: 2
Fore
SplineSet
275 -83 m 1,0,1
 364 6 364 6 455 97 c 0,2,3
 546 192 546 192 541 273 c 128,-1,4
 536 354 536 354 487 422.5 c 128,-1,5
 438 491 438 491 399 548.5 c 128,-1,6
 360 606 360 606 383 654 c 0,7,8
 383 655 383 655 382 656 c 256,9,10
 381 657 381 657 380 656 c 2,11,-1
 261 537 l 2,12,13
 222 495 222 495 244.5 446 c 128,-1,14
 267 397 267 397 312 340 c 128,-1,15
 357 283 357 283 387 216.5 c 128,-1,16
 417 150 417 150 393 72 c 1,17,18
 316 143 316 143 241.5 164.5 c 128,-1,19
 167 186 167 186 116 139 c 2,20,-1
 -2 21 l 2,21,22
 -3 20 -3 20 -2 19 c 256,23,24
 -1 18 -1 18 0 19 c 0,25,26
 55 49 55 49 129 19.5 c 128,-1,27
 203 -10 203 -10 275 -83 c 1,0,1
441 -245 m 2,28,-1
 348 -338 l 2,29,30
 347 -338 347 -338 346 -338 c 0,31,32
 345 -337 345 -337 345 -336 c 0,33,34
 351 -304 351 -304 317 -268 c 128,-1,35
 283 -232 283 -232 262 -215 c 1,36,-1
 365 -112 l 1,37,38
 379 -124 379 -124 404 -148 c 128,-1,39
 429 -172 429 -172 443.5 -198.5 c 128,-1,40
 458 -225 458 -225 441 -245 c 2,28,-1
EndSplineSet
EndChar

StartChar: ta-bulat.fina
Encoding: 115 65172 90
Width: 405
GlyphClass: 2
Flags: W
AnchorPoint: "Anchor-1" 352 -374 basechar 0
AnchorPoint: "Anchor-0" 374 1115 basechar 0
LayerCount: 2
Fore
SplineSet
537 843 m 1,0,-1
 445 751 l 2,2,3
 444 750 444 750 443 750 c 0,4,5
 442 751 442 751 442 752 c 0,6,7
 448 784 448 784 413.5 820 c 128,-1,8
 379 856 379 856 359 874 c 1,9,-1
 462 976 l 1,10,11
 475 964 475 964 500 940 c 128,-1,12
 525 916 525 916 540 889.5 c 128,-1,13
 555 863 555 863 537 843 c 1,0,-1
366 843 m 1,14,-1
 274 751 l 2,16,17
 273 750 273 750 272 750 c 0,18,19
 271 751 271 751 271 752 c 0,20,21
 277 784 277 784 242.5 820 c 128,-1,22
 208 856 208 856 188 874 c 1,23,-1
 291 976 l 1,24,25
 304 964 304 964 329 940 c 128,-1,26
 354 916 354 916 369 889.5 c 128,-1,27
 384 863 384 863 366 843 c 1,14,-1
397 10 m 1,28,29
 344 60 344 60 293.5 126.5 c 128,-1,30
 243 193 243 193 228.5 282.5 c 128,-1,31
 214 372 214 372 268 490 c 1,32,33
 276 435 276 435 313 373 c 128,-1,34
 350 311 350 311 387 247 c 128,-1,35
 424 183 424 183 433.5 122.5 c 128,-1,36
 443 62 443 62 397 10 c 1,28,29
298 575 m 2,37,38
 149 423 149 423 111 304 c 128,-1,39
 73 185 73 185 105 95 c 128,-1,40
 137 5 137 5 197.5 -60.5 c 128,-1,41
 258 -126 258 -126 305.5 -171.5 c 128,-1,42
 353 -217 353 -217 347 -246 c 0,43,44
 347 -247 347 -247 348 -248 c 0,45,46
 349 -248 349 -248 350 -247 c 2,47,-1
 476 -121 l 2,48,49
 496 -100 496 -100 473 -70 c 128,-1,50
 450 -40 450 -40 405 2 c 1,51,-1
 538 136 l 2,52,53
 594 196 594 196 574.5 269 c 128,-1,54
 555 342 555 342 505.5 418 c 128,-1,55
 456 494 456 494 422.5 564.5 c 128,-1,56
 389 635 389 635 418 691 c 0,57,58
 419 692 419 692 418 693 c 256,59,60
 417 694 417 694 416 693 c 2,61,-1
 298 575 l 2,37,38
EndSplineSet
EndChar

StartChar: ta.fina
Encoding: 117 65174 91
Width: 773
GlyphClass: 2
Flags: W
AnchorPoint: "Anchor-1" 449 -207 basechar 0
AnchorPoint: "Anchor-0" 447 939 basechar 0
LayerCount: 2
Fore
SplineSet
649 644 m 2,0,-1
 557 551 l 2,1,2
 556 551 556 551 555 551 c 0,3,4
 554 552 554 552 554 553 c 0,5,6
 560 585 560 585 525.5 621 c 128,-1,7
 491 657 491 657 471 674 c 1,8,-1
 574 777 l 1,9,10
 588 765 588 765 613 741 c 128,-1,11
 638 717 638 717 652.5 690.5 c 128,-1,12
 667 664 667 664 649 644 c 2,0,-1
478 644 m 2,13,-1
 386 551 l 2,14,15
 385 551 385 551 384 551 c 0,16,17
 383 552 383 552 383 553 c 0,18,19
 389 585 389 585 354.5 621 c 128,-1,20
 320 657 320 657 300 674 c 1,21,-1
 403 777 l 1,22,23
 416 765 416 765 441 741 c 128,-1,24
 466 717 466 717 481 690.5 c 128,-1,25
 496 664 496 664 478 644 c 2,13,-1
238 514 m 1,26,-1
 238 515 238 515 237 516 c 0,29,30
 236 516 236 516 235 515 c 2,31,-1
 111 391 l 2,32,33
 86 362 86 362 91.5 295 c 128,-1,34
 97 228 97 228 117.5 148 c 128,-1,35
 138 68 138 68 156 3 c 1,36,37
 397 3 397 3 402 3 c 0,38,39
 446 44 446 44 501 33.5 c 128,-1,40
 556 23 556 23 607.5 -12.5 c 128,-1,41
 659 -48 659 -48 693 -83 c 1,42,43
 781 6 781 6 872 97 c 0,44,45
 963 192 963 192 958 273 c 128,-1,46
 953 354 953 354 904.5 422.5 c 128,-1,47
 856 491 856 491 816.5 548.5 c 128,-1,48
 777 606 777 606 800 654 c 0,49,50
 801 655 801 655 800 656 c 256,51,52
 799 657 799 657 798 656 c 2,53,-1
 679 537 l 2,54,55
 640 495 640 495 662 446 c 128,-1,56
 684 397 684 397 729.5 340 c 128,-1,57
 775 283 775 283 804.5 216.5 c 128,-1,58
 834 150 834 150 811 72 c 1,59,60
 734 143 734 143 659 164.5 c 128,-1,61
 584 186 584 186 534 139 c 1,62,63
 516 140 516 140 293 140 c 1,64,65
 266 233 266 233 241 344.5 c 128,-1,66
 216 456 216 456 238 514 c 1,26,-1
EndSplineSet
EndChar

StartChar: ta.init
Encoding: 118 65175 92
Width: 541
GlyphClass: 2
Flags: W
AnchorPoint: "Anchor-1" 252 -207 basechar 0
AnchorPoint: "Anchor-0" 282 1142 basechar 0
LayerCount: 2
Fore
SplineSet
275 -83 m 1,0,1
 364 6 364 6 455 97 c 0,2,3
 546 192 546 192 541 273 c 128,-1,4
 536 354 536 354 487 422.5 c 128,-1,5
 438 491 438 491 399 548.5 c 128,-1,6
 360 606 360 606 383 654 c 0,7,8
 383 655 383 655 382 656 c 256,9,10
 381 657 381 657 380 656 c 2,11,-1
 261 537 l 2,12,13
 222 495 222 495 244.5 446 c 128,-1,14
 267 397 267 397 312 340 c 128,-1,15
 357 283 357 283 387 216.5 c 128,-1,16
 417 150 417 150 393 72 c 1,17,18
 316 143 316 143 241.5 164.5 c 128,-1,19
 167 186 167 186 116 139 c 2,20,-1
 -2 21 l 2,21,22
 -3 20 -3 20 -2 19 c 256,23,24
 -1 18 -1 18 0 19 c 0,25,26
 55 49 55 49 129 19.5 c 128,-1,27
 203 -10 203 -10 275 -83 c 1,0,1
541 844 m 2,28,-1
 449 751 l 2,29,30
 448 750 448 750 447 751 c 256,31,32
 446 752 446 752 446 753 c 0,33,34
 452 785 452 785 417.5 820.5 c 128,-1,35
 383 856 383 856 363 874 c 1,36,-1
 466 977 l 1,37,38
 479 965 479 965 504 941 c 128,-1,39
 529 917 529 917 544 890.5 c 128,-1,40
 559 864 559 864 541 844 c 2,28,-1
370 844 m 2,41,-1
 278 751 l 2,42,43
 277 750 277 750 276 751 c 256,44,45
 275 752 275 752 275 753 c 0,46,47
 281 785 281 785 246.5 820.5 c 128,-1,48
 212 856 212 856 192 874 c 1,49,-1
 295 977 l 1,50,51
 308 965 308 965 333 941 c 128,-1,52
 358 917 358 917 373 890.5 c 128,-1,53
 388 864 388 864 370 844 c 2,41,-1
EndSplineSet
EndChar

StartChar: ta.medi
Encoding: 119 65176 93
Width: 354
GlyphClass: 2
Flags: W
AnchorPoint: "Anchor-1" 260 -202 basechar 0
AnchorPoint: "Anchor-0" 355 1098 basechar 0
LayerCount: 2
Fore
SplineSet
275 -83 m 1,0,-1
 364 6 364 6 455 97 c 0,3,4
 546 192 546 192 541 273 c 128,-1,5
 536 354 536 354 487 422.5 c 128,-1,6
 438 491 438 491 399 548.5 c 128,-1,7
 360 606 360 606 383 654 c 0,8,9
 383 655 383 655 382 656 c 256,10,11
 381 657 381 657 380 656 c 2,12,-1
 261 537 l 2,13,14
 222 495 222 495 244.5 446 c 128,-1,15
 267 397 267 397 312 340 c 128,-1,16
 357 283 357 283 387 216.5 c 128,-1,17
 417 150 417 150 393 72 c 1,18,19
 316 143 316 143 241.5 164.5 c 128,-1,20
 167 186 167 186 116 139 c 2,21,-1
 -2 21 l 2,22,23
 -3 20 -3 20 -2 19 c 256,24,25
 -1 18 -1 18 0 19 c 0,26,27
 55 49 55 49 129 19.5 c 128,-1,28
 203 -10 203 -10 275 -83 c 1,0,-1
541 844 m 2,29,-1
 449 751 l 2,30,31
 448 750 448 750 447 751 c 256,32,33
 446 752 446 752 446 753 c 0,34,35
 452 785 452 785 417.5 820.5 c 128,-1,36
 383 856 383 856 363 874 c 1,37,-1
 466 977 l 1,38,39
 479 965 479 965 504 941 c 128,-1,40
 529 917 529 917 544 890.5 c 128,-1,41
 559 864 559 864 541 844 c 2,29,-1
370 844 m 2,42,-1
 278 751 l 2,43,44
 277 750 277 750 276 751 c 256,45,46
 275 752 275 752 275 753 c 0,47,48
 281 785 281 785 246.5 820.5 c 128,-1,49
 212 856 212 856 192 874 c 1,50,-1
 295 977 l 1,51,52
 308 965 308 965 333 941 c 128,-1,53
 358 917 358 917 373 890.5 c 128,-1,54
 388 864 388 864 370 844 c 2,42,-1
EndSplineSet
EndChar

StartChar: tha.fina
Encoding: 121 65178 94
Width: 773
GlyphClass: 2
Flags: W
AnchorPoint: "Anchor-1" 422 -205 basechar 0
AnchorPoint: "Anchor-0" 402 1078 basechar 0
LayerCount: 2
Fore
SplineSet
577 844 m 2,0,-1
 484 751 l 2,1,2
 483 750 483 750 482 751 c 256,3,4
 481 752 481 752 481 753 c 0,5,6
 487 785 487 785 453 820.5 c 128,-1,7
 419 856 419 856 398 874 c 1,8,-1
 501 977 l 1,9,10
 515 965 515 965 540 941 c 128,-1,11
 565 917 565 917 579.5 890.5 c 128,-1,12
 594 864 594 864 577 844 c 2,0,-1
649 644 m 2,13,-1
 557 551 l 2,14,15
 556 551 556 551 555 551 c 0,16,17
 554 552 554 552 554 553 c 0,18,19
 560 585 560 585 525.5 621 c 128,-1,20
 491 657 491 657 471 674 c 1,21,-1
 574 777 l 1,22,23
 588 765 588 765 613 741 c 128,-1,24
 638 717 638 717 652.5 690.5 c 128,-1,25
 667 664 667 664 649 644 c 2,13,-1
478 644 m 2,26,-1
 386 551 l 2,27,28
 385 551 385 551 384 551 c 0,29,30
 383 552 383 552 383 553 c 0,31,32
 389 585 389 585 354.5 621 c 128,-1,33
 320 657 320 657 300 674 c 1,34,-1
 403 777 l 1,35,36
 416 765 416 765 441 741 c 128,-1,37
 466 717 466 717 481 690.5 c 128,-1,38
 496 664 496 664 478 644 c 2,26,-1
238 514 m 1,39,-1
 238 515 238 515 237 516 c 0,42,43
 236 516 236 516 235 515 c 2,44,-1
 111 391 l 2,45,46
 86 362 86 362 91.5 295 c 128,-1,47
 97 228 97 228 117.5 148 c 128,-1,48
 138 68 138 68 156 3 c 1,49,50
 397 3 397 3 402 3 c 0,51,52
 446 44 446 44 501 33.5 c 128,-1,53
 556 23 556 23 607.5 -12.5 c 128,-1,54
 659 -48 659 -48 693 -83 c 1,55,56
 781 6 781 6 872 97 c 0,57,58
 963 192 963 192 958 273 c 128,-1,59
 953 354 953 354 904.5 422.5 c 128,-1,60
 856 491 856 491 816.5 548.5 c 128,-1,61
 777 606 777 606 800 654 c 0,62,63
 801 655 801 655 800 656 c 256,64,65
 799 657 799 657 798 656 c 2,66,-1
 679 537 l 2,67,68
 640 495 640 495 662 446 c 128,-1,69
 684 397 684 397 729.5 340 c 128,-1,70
 775 283 775 283 804.5 216.5 c 128,-1,71
 834 150 834 150 811 72 c 1,72,73
 734 143 734 143 659 164.5 c 128,-1,74
 584 186 584 186 534 139 c 1,75,76
 516 140 516 140 293 140 c 1,77,78
 266 233 266 233 241 344.5 c 128,-1,79
 216 456 216 456 238 514 c 1,39,-1
EndSplineSet
EndChar

StartChar: tha.init
Encoding: 122 65179 95
Width: 541
GlyphClass: 2
Flags: W
AnchorPoint: "Anchor-1" 252 -207 basechar 0
AnchorPoint: "Anchor-0" 288 1187 basechar 0
LayerCount: 2
Fore
SplineSet
275 -83 m 1,0,-1
 364 6 364 6 455 97 c 0,3,4
 546 192 546 192 541 273 c 128,-1,5
 536 354 536 354 487 422.5 c 128,-1,6
 438 491 438 491 399 548.5 c 128,-1,7
 360 606 360 606 383 654 c 0,8,9
 383 655 383 655 382 656 c 256,10,11
 381 657 381 657 380 656 c 2,12,-1
 261 537 l 2,13,14
 222 495 222 495 244.5 446 c 128,-1,15
 267 397 267 397 312 340 c 128,-1,16
 357 283 357 283 387 216.5 c 128,-1,17
 417 150 417 150 393 72 c 1,18,19
 316 143 316 143 241.5 164.5 c 128,-1,20
 167 186 167 186 116 139 c 2,21,-1
 -2 21 l 2,22,23
 -3 20 -3 20 -2 19 c 256,24,25
 -1 18 -1 18 0 19 c 0,26,27
 55 49 55 49 129 19.5 c 128,-1,28
 203 -10 203 -10 275 -83 c 1,0,-1
468 932 m 2,29,-1
 376 840 l 2,30,31
 375 839 375 839 374 839 c 0,32,33
 373 840 373 840 373 841 c 0,34,35
 379 873 379 873 344.5 909 c 128,-1,36
 310 945 310 945 290 962 c 1,37,-1
 393 1065 l 1,38,39
 406 1053 406 1053 431 1029 c 128,-1,40
 456 1005 456 1005 471 978.5 c 128,-1,41
 486 952 486 952 468 932 c 2,29,-1
541 733 m 2,42,-1
 449 640 l 2,43,44
 448 639 448 639 447 640 c 0,45,46
 446 640 446 640 446 642 c 0,47,48
 452 673 452 673 417.5 709 c 128,-1,49
 383 745 383 745 363 763 c 1,50,-1
 466 866 l 1,51,52
 479 853 479 853 504 829.5 c 128,-1,53
 529 806 529 806 544 779.5 c 128,-1,54
 559 753 559 753 541 733 c 2,42,-1
370 733 m 2,55,-1
 278 640 l 2,56,57
 277 639 277 639 276 640 c 0,58,59
 275 640 275 640 275 642 c 0,60,61
 281 673 281 673 246.5 709 c 128,-1,62
 212 745 212 745 192 763 c 1,63,-1
 295 866 l 1,64,65
 308 853 308 853 333 829.5 c 128,-1,66
 358 806 358 806 373 779.5 c 128,-1,67
 388 753 388 753 370 733 c 2,55,-1
EndSplineSet
EndChar

StartChar: tha.medi
Encoding: 123 65180 96
Width: 356
GlyphClass: 2
Flags: W
AnchorPoint: "Anchor-1" 257 -202 basechar 0
AnchorPoint: "Anchor-0" 285 1193 basechar 0
LayerCount: 2
Fore
SplineSet
275 -83 m 1,0,1
 364 6 364 6 455 97 c 0,2,3
 546 192 546 192 541 273 c 128,-1,4
 536 354 536 354 487 422.5 c 128,-1,5
 438 491 438 491 399 548.5 c 128,-1,6
 360 606 360 606 383 654 c 0,7,8
 383 655 383 655 382 656 c 256,9,10
 381 657 381 657 380 656 c 2,11,-1
 261 537 l 2,12,13
 222 495 222 495 244.5 446 c 128,-1,14
 267 397 267 397 312 340 c 128,-1,15
 357 283 357 283 387 216.5 c 128,-1,16
 417 150 417 150 393 72 c 1,17,18
 316 143 316 143 241.5 164.5 c 128,-1,19
 167 186 167 186 116 139 c 2,20,-1
 -2 21 l 2,21,22
 -3 20 -3 20 -2 19 c 256,23,24
 -1 18 -1 18 0 19 c 0,25,26
 55 49 55 49 129 19.5 c 128,-1,27
 203 -10 203 -10 275 -83 c 1,0,1
468 932 m 2,28,-1
 376 840 l 2,29,30
 375 839 375 839 374 839 c 0,31,32
 373 840 373 840 373 841 c 0,33,34
 379 873 379 873 344.5 909 c 128,-1,35
 310 945 310 945 290 962 c 1,36,-1
 393 1065 l 1,37,38
 406 1053 406 1053 431 1029 c 128,-1,39
 456 1005 456 1005 471 978.5 c 128,-1,40
 486 952 486 952 468 932 c 2,28,-1
541 733 m 2,41,-1
 449 640 l 2,42,43
 448 639 448 639 447 640 c 0,44,45
 446 640 446 640 446 642 c 0,46,47
 452 673 452 673 417.5 709 c 128,-1,48
 383 745 383 745 363 763 c 1,49,-1
 466 866 l 1,50,51
 479 853 479 853 504 829.5 c 128,-1,52
 529 806 529 806 544 779.5 c 128,-1,53
 559 753 559 753 541 733 c 2,41,-1
370 733 m 2,54,-1
 278 640 l 2,55,56
 277 639 277 639 276 640 c 0,57,58
 275 640 275 640 275 642 c 0,59,60
 281 673 281 673 246.5 709 c 128,-1,61
 212 745 212 745 192 763 c 1,62,-1
 295 866 l 1,63,64
 308 853 308 853 333 829.5 c 128,-1,65
 358 806 358 806 373 779.5 c 128,-1,66
 388 753 388 753 370 733 c 2,54,-1
EndSplineSet
EndChar

StartChar: jim.fina
Encoding: 125 65182 97
Width: 659
GlyphClass: 2
Flags: W
AnchorPoint: "Anchor-1" 138 -686 basechar 0
AnchorPoint: "Anchor-0" 282 847 basechar 0
LayerCount: 2
Fore
SplineSet
660 -83 m 1,0,-1
 797 54 l 1,2,3
 513 338 513 338 414 475 c 128,-1,4
 315 612 315 612 343 657 c 0,5,6
 343 658 343 658 342 659 c 0,7,8
 341 659 341 659 340 659 c 2,9,-1
 216 535 l 1,10,11
 179 504 179 504 229 411.5 c 128,-1,12
 279 319 279 319 455 128 c 1,13,14
 367 105 367 105 301 42 c 2,15,-1
 165 -95 l 2,16,17
 99 -159 99 -159 92 -256.5 c 128,-1,18
 85 -354 85 -354 166 -478 c 0,19,20
 195 -518 195 -518 255.5 -604 c 128,-1,21
 316 -690 316 -690 355 -785.5 c 128,-1,22
 394 -881 394 -881 359 -949 c 0,23,24
 358 -951 358 -951 359 -951 c 0,25,26
 360 -952 360 -952 361 -951 c 2,27,-1
 480 -833 l 2,28,29
 522 -787 522 -787 509.5 -717 c 128,-1,30
 497 -647 497 -647 455.5 -571.5 c 128,-1,31
 414 -496 414 -496 369.5 -434 c 128,-1,32
 325 -372 325 -372 303 -341 c 0,33,34
 242 -250 242 -250 231.5 -173 c 128,-1,35
 221 -96 221 -96 248 -36 c 1,36,37
 348 14 348 14 462.5 4.5 c 128,-1,38
 577 -5 577 -5 660 -83 c 1,0,-1
494 -245 m 2,39,-1
 401 -338 l 2,40,41
 400 -338 400 -338 399 -338 c 0,42,43
 398 -337 398 -337 398 -336 c 0,44,45
 404 -304 404 -304 369.5 -268 c 128,-1,46
 335 -232 335 -232 315 -215 c 1,47,-1
 418 -112 l 1,48,49
 432 -124 432 -124 457 -148 c 128,-1,50
 482 -172 482 -172 496.5 -198.5 c 128,-1,51
 511 -225 511 -225 494 -245 c 2,39,-1
EndSplineSet
EndChar

StartChar: jim.init
Encoding: 126 65183 98
Width: 855
GlyphClass: 2
Flags: W
AnchorPoint: "Anchor-1" 288 -302 basechar 0
AnchorPoint: "Anchor-0" 288 850 basechar 0
LayerCount: 2
Fore
SplineSet
135 140 m 1,0,-1
 -2 3 l 1,2,-1
 503 3 l 1,3,4
 551 51 551 51 597 24 c 128,-1,5
 643 -3 643 -3 718 -83 c 1,6,-1
 855 54 l 1,7,-1
 838 71 l 2,8,9
 648 261 648 261 547.5 378.5 c 128,-1,10
 447 496 447 496 415 560.5 c 128,-1,11
 383 625 383 625 400 656 c 0,12,13
 401 657 401 657 400 658 c 0,14,15
 399 658 399 658 398 658 c 2,16,-1
 275 535 l 1,17,18
 238 504 238 504 285.5 414 c 128,-1,19
 333 324 333 324 503 140 c 1,20,-1
 135 140 l 1,0,-1
552 -245 m 2,21,-1
 460 -338 l 2,22,23
 459 -338 459 -338 458 -338 c 0,24,25
 457 -337 457 -337 457 -336 c 0,26,27
 463 -304 463 -304 428.5 -268 c 128,-1,28
 394 -232 394 -232 374 -215 c 1,29,-1
 477 -112 l 1,30,31
 490 -124 490 -124 515 -148 c 128,-1,32
 540 -172 540 -172 555 -198.5 c 128,-1,33
 570 -225 570 -225 552 -245 c 2,21,-1
EndSplineSet
EndChar

StartChar: jim.medi
Encoding: 127 65184 99
Width: 718
GlyphClass: 2
Flags: W
AnchorPoint: "Anchor-1" 288 -338 basechar 0
AnchorPoint: "Anchor-0" 282 850 basechar 0
LayerCount: 2
Fore
SplineSet
135 140 m 1,0,-1
 -2 3 l 1,2,-1
 503 3 l 1,3,4
 551 51 551 51 597 24 c 128,-1,5
 643 -3 643 -3 718 -83 c 1,6,-1
 855 54 l 1,7,-1
 838 71 l 2,8,9
 648 261 648 261 547.5 378.5 c 128,-1,10
 447 496 447 496 415 560.5 c 128,-1,11
 383 625 383 625 400 656 c 0,12,13
 401 657 401 657 400 658 c 0,14,15
 399 658 399 658 398 658 c 2,16,-1
 275 535 l 1,17,18
 238 504 238 504 285.5 414 c 128,-1,19
 333 324 333 324 503 140 c 1,20,-1
 135 140 l 1,0,-1
552 -245 m 2,21,-1
 460 -338 l 2,22,23
 459 -338 459 -338 458 -338 c 0,24,25
 457 -337 457 -337 457 -336 c 0,26,27
 463 -304 463 -304 428.5 -268 c 128,-1,28
 394 -232 394 -232 374 -215 c 1,29,-1
 477 -112 l 1,30,31
 490 -124 490 -124 515 -148 c 128,-1,32
 540 -172 540 -172 555 -198.5 c 128,-1,33
 570 -225 570 -225 552 -245 c 2,21,-1
EndSplineSet
EndChar

StartChar: ha-pedas.fina
Encoding: 129 65186 100
Width: 659
GlyphClass: 2
Flags: W
AnchorPoint: "Anchor-1" 118 -686 basechar 0
AnchorPoint: "Anchor-0" 280 850 basechar 0
LayerCount: 2
Fore
SplineSet
660 -83 m 1,0,-1
 797 54 l 1,2,3
 513 338 513 338 414 475 c 128,-1,4
 315 612 315 612 343 657 c 0,5,6
 343 658 343 658 342 659 c 0,7,8
 341 659 341 659 340 659 c 2,9,-1
 216 535 l 1,10,11
 179 504 179 504 229 411.5 c 128,-1,12
 279 319 279 319 455 128 c 1,13,14
 367 105 367 105 301 42 c 2,15,-1
 165 -95 l 2,16,17
 99 -159 99 -159 92 -256.5 c 128,-1,18
 85 -354 85 -354 166 -478 c 0,19,20
 195 -518 195 -518 255.5 -604 c 128,-1,21
 316 -690 316 -690 355 -785.5 c 128,-1,22
 394 -881 394 -881 359 -949 c 0,23,24
 358 -951 358 -951 359 -951 c 0,25,26
 360 -952 360 -952 361 -951 c 2,27,-1
 480 -833 l 2,28,29
 522 -787 522 -787 509.5 -717 c 128,-1,30
 497 -647 497 -647 455.5 -571.5 c 128,-1,31
 414 -496 414 -496 369.5 -434 c 128,-1,32
 325 -372 325 -372 303 -341 c 0,33,34
 242 -250 242 -250 231.5 -173 c 128,-1,35
 221 -96 221 -96 248 -36 c 1,36,37
 348 14 348 14 462.5 4.5 c 128,-1,38
 577 -5 577 -5 660 -83 c 1,0,-1
EndSplineSet
EndChar

StartChar: ha-pedas.init
Encoding: 130 65187 101
Width: 855
GlyphClass: 2
Flags: W
AnchorPoint: "Anchor-1" 288 -205 basechar 0
AnchorPoint: "Anchor-0" 288 853 basechar 0
LayerCount: 2
Fore
SplineSet
135 140 m 1,0,-1
 -2 3 l 1,2,-1
 503 3 l 1,3,4
 551 51 551 51 597 24 c 128,-1,5
 643 -3 643 -3 718 -83 c 1,6,-1
 855 54 l 1,7,-1
 838 71 l 2,8,9
 648 261 648 261 547.5 378.5 c 128,-1,10
 447 496 447 496 415 560.5 c 128,-1,11
 383 625 383 625 400 656 c 0,12,13
 401 657 401 657 400 658 c 0,14,15
 399 658 399 658 398 658 c 2,16,-1
 275 535 l 1,17,18
 238 504 238 504 285.5 414 c 128,-1,19
 333 324 333 324 503 140 c 1,20,-1
 135 140 l 1,0,-1
EndSplineSet
EndChar

StartChar: ha-pedas.medi
Encoding: 131 65188 102
Width: 718
GlyphClass: 2
Flags: W
AnchorPoint: "Anchor-1" 288 -210 basechar 0
AnchorPoint: "Anchor-0" 288 845 basechar 0
LayerCount: 2
Fore
SplineSet
135 140 m 1,0,-1
 -2 3 l 1,2,-1
 503 3 l 1,3,4
 551 51 551 51 597 24 c 128,-1,5
 643 -3 643 -3 718 -83 c 1,6,-1
 855 54 l 1,7,-1
 838 71 l 2,8,9
 648 261 648 261 547.5 378.5 c 128,-1,10
 447 496 447 496 415 560.5 c 128,-1,11
 383 625 383 625 400 656 c 0,12,13
 401 657 401 657 400 658 c 0,14,15
 399 658 399 658 398 658 c 2,16,-1
 275 535 l 1,17,18
 238 504 238 504 285.5 414 c 128,-1,19
 333 324 333 324 503 140 c 1,20,-1
 135 140 l 1,0,-1
EndSplineSet
EndChar

StartChar: kha.fina
Encoding: 133 65190 103
Width: 659
GlyphClass: 2
Flags: W
AnchorPoint: "Anchor-1" 121 -686 basechar 0
AnchorPoint: "Anchor-0" 285 1081 basechar 0
LayerCount: 2
Fore
SplineSet
660 -83 m 1,0,-1
 797 54 l 1,2,3
 513 338 513 338 414 475 c 128,-1,4
 315 612 315 612 343 657 c 0,5,6
 343 658 343 658 342 659 c 0,7,8
 341 659 341 659 340 659 c 2,9,-1
 216 535 l 1,10,11
 179 504 179 504 229 411.5 c 128,-1,12
 279 319 279 319 455 128 c 1,13,14
 367 105 367 105 301 42 c 2,15,-1
 165 -95 l 2,16,17
 99 -159 99 -159 92 -256.5 c 128,-1,18
 85 -354 85 -354 166 -478 c 0,19,20
 195 -518 195 -518 255.5 -604 c 128,-1,21
 316 -690 316 -690 355 -785.5 c 128,-1,22
 394 -881 394 -881 359 -949 c 0,23,24
 358 -951 358 -951 359 -951 c 0,25,26
 360 -952 360 -952 361 -951 c 2,27,-1
 480 -833 l 2,28,29
 522 -787 522 -787 509.5 -717 c 128,-1,30
 497 -647 497 -647 455.5 -571.5 c 128,-1,31
 414 -496 414 -496 369.5 -434 c 128,-1,32
 325 -372 325 -372 303 -341 c 0,33,34
 242 -250 242 -250 231.5 -173 c 128,-1,35
 221 -96 221 -96 248 -36 c 1,36,37
 348 14 348 14 462.5 4.5 c 128,-1,38
 577 -5 577 -5 660 -83 c 1,0,-1
494 844 m 2,39,-1
 401 751 l 2,40,41
 400 750 400 750 399 751 c 256,42,43
 398 752 398 752 398 753 c 0,44,45
 404 785 404 785 369.5 820.5 c 128,-1,46
 335 856 335 856 315 874 c 1,47,-1
 418 977 l 1,48,49
 432 965 432 965 457 941 c 128,-1,50
 482 917 482 917 496.5 890.5 c 128,-1,51
 511 864 511 864 494 844 c 2,39,-1
EndSplineSet
EndChar

StartChar: kha.init
Encoding: 134 65191 104
Width: 855
GlyphClass: 2
Flags: W
AnchorPoint: "Anchor-1" 285 -205 basechar 0
AnchorPoint: "Anchor-0" 282 973 basechar 0
LayerCount: 2
Fore
SplineSet
135 140 m 1,0,-1
 -2 3 l 1,2,-1
 503 3 l 1,3,4
 551 51 551 51 597 24 c 128,-1,5
 643 -3 643 -3 718 -83 c 1,6,-1
 855 54 l 1,7,-1
 838 71 l 2,8,9
 648 261 648 261 547.5 378.5 c 128,-1,10
 447 496 447 496 415 560.5 c 128,-1,11
 383 625 383 625 400 656 c 0,12,13
 401 657 401 657 400 658 c 0,14,15
 399 658 399 658 398 658 c 2,16,-1
 275 535 l 1,17,18
 238 504 238 504 285.5 414 c 128,-1,19
 333 324 333 324 503 140 c 1,20,-1
 135 140 l 1,0,-1
552 844 m 2,21,-1
 460 751 l 2,22,23
 459 750 459 750 458 751 c 256,24,25
 457 752 457 752 457 753 c 0,26,27
 463 785 463 785 428.5 820.5 c 128,-1,28
 394 856 394 856 374 874 c 1,29,-1
 477 977 l 1,30,31
 490 965 490 965 515 941 c 128,-1,32
 540 917 540 917 555 890.5 c 128,-1,33
 570 864 570 864 552 844 c 2,21,-1
EndSplineSet
EndChar

StartChar: kha.medi
Encoding: 135 65192 105
Width: 718
GlyphClass: 2
Flags: W
AnchorPoint: "Anchor-1" 282 -210 basechar 0
AnchorPoint: "Anchor-0" 288 967 basechar 0
LayerCount: 2
Fore
SplineSet
135 140 m 1,0,-1
 -2 3 l 1,2,-1
 503 3 l 1,3,4
 551 51 551 51 597 24 c 128,-1,5
 643 -3 643 -3 718 -83 c 1,6,-1
 855 54 l 1,7,-1
 838 71 l 2,8,9
 648 261 648 261 547.5 378.5 c 128,-1,10
 447 496 447 496 415 560.5 c 128,-1,11
 383 625 383 625 400 656 c 0,12,13
 401 657 401 657 400 658 c 0,14,15
 399 658 399 658 398 658 c 2,16,-1
 275 535 l 1,17,18
 238 504 238 504 285.5 414 c 128,-1,19
 333 324 333 324 503 140 c 1,20,-1
 135 140 l 1,0,-1
552 844 m 2,21,-1
 460 751 l 2,22,23
 459 750 459 750 458 751 c 256,24,25
 457 752 457 752 457 753 c 0,26,27
 463 785 463 785 428.5 820.5 c 128,-1,28
 394 856 394 856 374 874 c 1,29,-1
 477 977 l 1,30,31
 490 965 490 965 515 941 c 128,-1,32
 540 917 540 917 555 890.5 c 128,-1,33
 570 864 570 864 552 844 c 2,21,-1
EndSplineSet
EndChar

StartChar: dal.fina
Encoding: 137 65194 106
Width: 582
GlyphClass: 2
Flags: W
AnchorPoint: "Anchor-1" 188 -210 basechar 0
AnchorPoint: "Anchor-0" 402 853 basechar 0
LayerCount: 2
Fore
SplineSet
121 113 m 1,0,-1
 0 -7 l 2,2,3
 0 -8 0 -8 0 -10 c 0,4,5
 1 -11 1 -11 2 -10 c 0,6,7
 29 5 29 5 132 2 c 0,8,9
 149 2 149 2 285 2 c 1,10,11
 333 50 333 50 379 23 c 128,-1,12
 425 -4 425 -4 501 -84 c 1,13,14
 546 -39 546 -39 653 67 c 0,15,16
 755 172 755 172 766.5 254.5 c 128,-1,17
 778 337 778 337 735.5 401.5 c 128,-1,18
 693 466 693 466 632 515.5 c 128,-1,19
 571 565 571 565 527.5 603 c 128,-1,20
 484 641 484 641 493 672 c 0,21,22
 493 673 493 673 492 674 c 0,23,24
 491 674 491 674 490 674 c 2,25,-1
 366 549 l 2,26,27
 337 516 337 516 382 474.5 c 128,-1,28
 427 433 427 433 496.5 377 c 128,-1,29
 566 321 566 321 608.5 246.5 c 128,-1,30
 651 172 651 172 617 74 c 1,31,32
 552 143 552 143 509.5 163.5 c 128,-1,33
 467 184 467 184 422 139 c 1,34,35
 285 139 285 139 269 139 c 0,36,37
 199 140 199 140 168.5 136 c 128,-1,38
 138 132 138 132 121 113 c 1,0,-1
EndSplineSet
EndChar

StartChar: dzal.fina
Encoding: 139 65196 107
Width: 583
GlyphClass: 2
Flags: W
AnchorPoint: "Anchor-1" 193 -210 basechar 0
AnchorPoint: "Anchor-0" 402 1051 basechar 0
LayerCount: 2
Fore
SplineSet
121 113 m 1,0,-1
 0 -7 l 2,2,3
 0 -8 0 -8 0 -10 c 0,4,5
 1 -11 1 -11 2 -10 c 0,6,7
 29 5 29 5 132 2 c 0,8,9
 149 2 149 2 285 2 c 1,10,11
 333 50 333 50 379 23 c 128,-1,12
 425 -4 425 -4 501 -84 c 1,13,14
 546 -39 546 -39 653 67 c 0,15,16
 755 172 755 172 766.5 254.5 c 128,-1,17
 778 337 778 337 735.5 401.5 c 128,-1,18
 693 466 693 466 632 515.5 c 128,-1,19
 571 565 571 565 527.5 603 c 128,-1,20
 484 641 484 641 493 672 c 0,21,22
 493 673 493 673 492 674 c 0,23,24
 491 674 491 674 490 674 c 2,25,-1
 366 549 l 2,26,27
 337 516 337 516 382 474.5 c 128,-1,28
 427 433 427 433 496.5 377 c 128,-1,29
 566 321 566 321 608.5 246.5 c 128,-1,30
 651 172 651 172 617 74 c 1,31,32
 552 143 552 143 509.5 163.5 c 128,-1,33
 467 184 467 184 422 139 c 1,34,35
 285 139 285 139 269 139 c 0,36,37
 199 140 199 140 168.5 136 c 128,-1,38
 138 132 138 132 121 113 c 1,0,-1
555 843 m 1,39,-1
 463 751 l 2,41,42
 462 750 462 750 461 750 c 0,43,44
 460 751 460 751 460 752 c 0,45,46
 466 784 466 784 431.5 820 c 128,-1,47
 397 856 397 856 377 874 c 1,48,-1
 480 976 l 1,49,50
 493 964 493 964 518 940 c 128,-1,51
 543 916 543 916 558 889.5 c 128,-1,52
 573 863 573 863 555 843 c 1,39,-1
EndSplineSet
EndChar

StartChar: ra.fina
Encoding: 141 65198 108
Width: 198
GlyphClass: 2
Flags: W
AnchorPoint: "Anchor-1" 193 -436 basechar 0
AnchorPoint: "Anchor-0" 121 845 basechar 0
LayerCount: 2
Fore
SplineSet
232 599 m 1,0,-1
 232 600 232 600 231 600 c 0,3,4
 230 601 230 601 229 600 c 2,5,-1
 102 473 l 2,6,7
 80 446 80 446 103 356.5 c 128,-1,8
 126 267 126 267 158 147.5 c 128,-1,9
 190 28 190 28 196 -90 c 128,-1,10
 202 -208 202 -208 147 -293 c 0,11,12
 146 -295 146 -295 147 -295 c 0,13,14
 148 -296 148 -296 149 -295 c 2,15,-1
 260 -185 l 1,16,17
 330 -109 330 -109 332.5 6 c 128,-1,18
 335 121 335 121 305 242.5 c 128,-1,19
 275 364 275 364 248 461 c 128,-1,20
 221 558 221 558 232 599 c 1,0,-1
EndSplineSet
EndChar

StartChar: zai.fina
Encoding: 143 65200 109
Width: 198
GlyphClass: 2
Flags: W
AnchorPoint: "Anchor-1" 196 -441 basechar 0
AnchorPoint: "Anchor-0" 118 998 basechar 0
LayerCount: 2
Fore
SplineSet
266 745 m 1,0,-1
 173 652 l 2,2,3
 172 652 172 652 171 652 c 0,4,5
 170 653 170 653 171 654 c 0,6,7
 177 686 177 686 142.5 722 c 128,-1,8
 108 758 108 758 88 775 c 1,9,-1
 191 878 l 1,10,11
 204 866 204 866 229 842 c 128,-1,12
 254 818 254 818 268.5 791.5 c 128,-1,13
 283 765 283 765 266 745 c 1,0,-1
232 599 m 1,14,-1
 232 600 232 600 231 600 c 0,17,18
 230 601 230 601 229 600 c 2,19,-1
 102 473 l 2,20,21
 80 446 80 446 103 356.5 c 128,-1,22
 126 267 126 267 158 147.5 c 128,-1,23
 190 28 190 28 196 -90 c 128,-1,24
 202 -208 202 -208 147 -293 c 0,25,26
 146 -295 146 -295 147 -295 c 0,27,28
 148 -296 148 -296 149 -295 c 2,29,-1
 260 -185 l 1,30,31
 330 -109 330 -109 332.5 6 c 128,-1,32
 335 121 335 121 305 242.5 c 128,-1,33
 275 364 275 364 248 461 c 128,-1,34
 221 558 221 558 232 599 c 1,14,-1
EndSplineSet
EndChar

StartChar: sim.fina
Encoding: 145 65202 110
Width: 1173
GlyphClass: 2
Flags: W
AnchorPoint: "Anchor-1" 967 -207 basechar 0
AnchorPoint: "Anchor-0" 678 694 basechar 0
LayerCount: 2
Fore
SplineSet
1352 253 m 0,1,2
 1357 330 1357 330 1322.5 402 c 128,-1,3
 1288 474 1288 474 1244 539 c 0,4,5
 1203 599 1203 599 1179.5 650 c 128,-1,6
 1156 701 1156 701 1176 741 c 0,7,8
 1177 742 1177 742 1175 743 c 2,9,-1
 1173 743 l 1,10,-1
 1053 623 l 2,11,12
 1016 582 1016 582 1038 526 c 128,-1,13
 1060 470 1060 470 1107 402 c 0,14,15
 1158 328 1158 328 1194 245 c 128,-1,16
 1230 162 1230 162 1206 73 c 1,17,18
 1184 95 1184 95 1136 148 c 128,-1,19
 1088 201 1088 201 1038.5 268.5 c 128,-1,20
 989 336 989 336 962.5 400.5 c 128,-1,21
 936 465 936 465 958 510 c 0,22,23
 959 511 959 511 958 512 c 0,24,25
 956 513 956 513 955 512 c 2,26,-1
 834 391 l 2,27,28
 799 352 799 352 816 297.5 c 128,-1,29
 833 243 833 243 866 185 c 0,30,31
 906 118 906 118 917 63 c 1,32,33
 868 73 868 73 811.5 123 c 128,-1,34
 755 173 755 173 722 236 c 128,-1,35
 689 299 689 299 712 349 c 0,36,37
 713 350 713 350 711 351 c 0,38,39
 710 351 710 351 709 350 c 2,40,-1
 589 230 l 2,41,42
 559 197 559 197 573 144 c 128,-1,43
 587 91 587 91 618 24 c 0,44,45
 647 -38 647 -38 668.5 -104 c 128,-1,46
 690 -170 690 -170 681 -233 c 1,47,48
 594 -243 594 -243 492.5 -197 c 128,-1,49
 391 -151 391 -151 315 -63.5 c 128,-1,50
 239 24 239 24 229 137.5 c 128,-1,51
 219 251 219 251 315 376 c 0,52,53
 315 377 315 377 314 378 c 256,54,55
 313 379 313 379 312 378 c 2,56,-1
 219 285 l 2,57,58
 104 165 104 165 93.5 52.5 c 128,-1,59
 83 -60 83 -60 143 -152 c 128,-1,60
 203 -244 203 -244 296.5 -302 c 128,-1,61
 390 -360 390 -360 482 -370.5 c 128,-1,62
 574 -381 574 -381 629 -330 c 2,63,-1
 766 -193 l 2,64,65
 818 -139 818 -139 820 -75 c 1,66,67
 859 -70 859 -70 885 -44 c 2,68,-1
 972 42 l 1,69,70
 1022 -17 1022 -17 1089 -83 c 1,71,72
 1134 -38 1134 -38 1163 -10 c 0,73,74
 1169 -5 1169 -5 1175 2 c 1,75,-1
 1176 2 l 1,76,-1
 1338 139 l 1,77,-1
 1306 139 l 1,78,0
 1348 196 1348 196 1352 253 c 0,1,2
EndSplineSet
EndChar

StartChar: sin.init
Encoding: 146 65203 111
Width: 932
GlyphClass: 2
Flags: W
AnchorPoint: "Anchor-1" 544 -205 basechar 0
AnchorPoint: "Anchor-0" 288 697 basechar 0
LayerCount: 2
Fore
SplineSet
668 -83 m 1,0,-1
 738 -14 738 -14 849 96 c 1,3,4
 941 193 941 193 932 286 c 128,-1,5
 923 379 923 379 870 463.5 c 128,-1,6
 817 548 817 548 774.5 618.5 c 128,-1,7
 732 689 732 689 755 741 c 0,8,9
 756 742 756 742 755 743 c 256,10,11
 754 744 754 744 753 743 c 2,12,-1
 633 623 l 2,13,14
 594 580 594 580 619 521.5 c 128,-1,15
 644 463 644 463 693.5 391.5 c 128,-1,16
 743 320 743 320 776 239.5 c 128,-1,17
 809 159 809 159 785 74 c 1,18,19
 763 96 763 96 715 149 c 128,-1,20
 667 202 667 202 618 269.5 c 128,-1,21
 569 337 569 337 542.5 401.5 c 128,-1,22
 516 466 516 466 537 511 c 0,23,24
 538 512 538 512 537 513 c 0,25,26
 536 513 536 513 535 512 c 2,27,-1
 414 391 l 2,28,29
 374 347 374 347 401.5 283.5 c 128,-1,30
 429 220 429 220 463 137.5 c 128,-1,31
 497 55 497 55 477 -46 c 1,32,33
 358 26 358 26 327 102.5 c 128,-1,34
 296 179 296 179 336 239 c 0,35,36
 336 241 336 241 335 241 c 0,37,38
 334 242 334 242 333 241 c 0,39,40
 292 200 292 200 244.5 169.5 c 128,-1,41
 197 139 197 139 136 139 c 1,42,-1
 -1 2 l 1,43,44
 47 2 47 2 84.5 20.5 c 128,-1,45
 122 39 122 39 154.5 67 c 128,-1,46
 187 95 187 95 218 126 c 1,47,48
 153 60 153 60 189 -33.5 c 128,-1,49
 225 -127 225 -127 392 -209 c 1,50,51
 452 -150 452 -150 529 -73 c 0,52,53
 562 -38 562 -38 583 6 c 1,54,55
 622 -37 622 -37 668 -83 c 1,0,-1
EndSplineSet
EndChar

StartChar: sin.medi
Encoding: 147 65204 112
Width: 752
GlyphClass: 2
Flags: W
AnchorPoint: "Anchor-1" 555 -205 basechar 0
AnchorPoint: "Anchor-0" 285 703 basechar 0
LayerCount: 2
Fore
SplineSet
668 -83 m 1,0,-1
 738 -14 738 -14 849 96 c 1,3,4
 941 193 941 193 932 286 c 128,-1,5
 923 379 923 379 870 463.5 c 128,-1,6
 817 548 817 548 774.5 618.5 c 128,-1,7
 732 689 732 689 755 741 c 0,8,9
 756 742 756 742 755 743 c 256,10,11
 754 744 754 744 753 743 c 2,12,-1
 633 623 l 2,13,14
 594 580 594 580 619 521.5 c 128,-1,15
 644 463 644 463 693.5 391.5 c 128,-1,16
 743 320 743 320 776 239.5 c 128,-1,17
 809 159 809 159 785 74 c 1,18,19
 763 96 763 96 715 149 c 128,-1,20
 667 202 667 202 618 269.5 c 128,-1,21
 569 337 569 337 542.5 401.5 c 128,-1,22
 516 466 516 466 537 511 c 0,23,24
 538 512 538 512 537 513 c 0,25,26
 536 513 536 513 535 512 c 2,27,-1
 414 391 l 2,28,29
 374 347 374 347 401.5 283.5 c 128,-1,30
 429 220 429 220 463 137.5 c 128,-1,31
 497 55 497 55 477 -46 c 1,32,33
 358 26 358 26 327 102.5 c 128,-1,34
 296 179 296 179 336 239 c 0,35,36
 336 241 336 241 335 241 c 0,37,38
 334 242 334 242 333 241 c 0,39,40
 292 200 292 200 244.5 169.5 c 128,-1,41
 197 139 197 139 136 139 c 1,42,-1
 -1 2 l 1,43,44
 47 2 47 2 84.5 20.5 c 128,-1,45
 122 39 122 39 154.5 67 c 128,-1,46
 187 95 187 95 218 126 c 1,47,48
 153 60 153 60 189 -33.5 c 128,-1,49
 225 -127 225 -127 392 -209 c 1,50,51
 452 -150 452 -150 529 -73 c 0,52,53
 562 -38 562 -38 583 6 c 1,54,55
 622 -37 622 -37 668 -83 c 1,0,-1
855 139 m 1,56,-1
 727 3 l 1,57,-1
 755 2 l 1,58,-1
 917 139 l 1,59,-1
 855 139 l 1,56,-1
EndSplineSet
EndChar

StartChar: syin.fina
Encoding: 149 65206 113
Width: 1173
GlyphClass: 2
Flags: W
AnchorPoint: "Anchor-1" 964 -207 basechar 0
AnchorPoint: "Anchor-0" 527 847 basechar 0
LayerCount: 2
Fore
SplineSet
909 843 m 1,0,-1
 817 751 l 2,2,3
 816 750 816 750 815 750 c 0,4,5
 814 751 814 751 814 752 c 0,6,7
 820 784 820 784 785.5 820 c 128,-1,8
 751 856 751 856 731 874 c 1,9,-1
 834 976 l 1,10,11
 847 964 847 964 872 940 c 128,-1,12
 897 916 897 916 912 889.5 c 128,-1,13
 927 863 927 863 909 843 c 1,0,-1
982 644 m 1,14,-1
 890 551 l 2,16,17
 889 550 889 550 888 551 c 256,18,19
 887 552 887 552 887 553 c 0,20,21
 893 585 893 585 858.5 620.5 c 128,-1,22
 824 656 824 656 804 674 c 1,23,-1
 907 777 l 1,24,25
 920 764 920 764 945 740.5 c 128,-1,26
 970 717 970 717 985 690.5 c 128,-1,27
 1000 664 1000 664 982 644 c 1,14,-1
811 644 m 1,28,-1
 719 551 l 2,30,31
 718 550 718 550 717 551 c 256,32,33
 716 552 716 552 716 553 c 0,34,35
 722 585 722 585 687.5 620.5 c 128,-1,36
 653 656 653 656 633 674 c 1,37,-1
 736 777 l 1,38,39
 749 764 749 764 774 740.5 c 128,-1,40
 799 717 799 717 813.5 690.5 c 128,-1,41
 828 664 828 664 811 644 c 1,28,-1
1352 253 m 0,43,44
 1357 330 1357 330 1322.5 402 c 128,-1,45
 1288 474 1288 474 1244 539 c 0,46,47
 1203 599 1203 599 1179.5 650 c 128,-1,48
 1156 701 1156 701 1176 741 c 0,49,50
 1177 742 1177 742 1175 743 c 2,51,-1
 1173 743 l 1,52,-1
 1053 623 l 2,53,54
 1016 582 1016 582 1038 526 c 128,-1,55
 1060 470 1060 470 1107 402 c 0,56,57
 1158 328 1158 328 1194 245 c 128,-1,58
 1230 162 1230 162 1206 73 c 1,59,60
 1184 95 1184 95 1136 148 c 128,-1,61
 1088 201 1088 201 1038.5 268.5 c 128,-1,62
 989 336 989 336 962.5 400.5 c 128,-1,63
 936 465 936 465 958 510 c 0,64,65
 959 511 959 511 958 512 c 0,66,67
 956 513 956 513 955 512 c 2,68,-1
 834 391 l 2,69,70
 799 352 799 352 816 297.5 c 128,-1,71
 833 243 833 243 866 185 c 0,72,73
 906 118 906 118 917 63 c 1,74,75
 868 73 868 73 811.5 123 c 128,-1,76
 755 173 755 173 722 236 c 128,-1,77
 689 299 689 299 712 349 c 0,78,79
 713 350 713 350 711 351 c 0,80,81
 710 351 710 351 709 350 c 2,82,-1
 589 230 l 2,83,84
 559 197 559 197 573 144 c 128,-1,85
 587 91 587 91 618 24 c 0,86,87
 647 -38 647 -38 668.5 -104 c 128,-1,88
 690 -170 690 -170 681 -233 c 1,89,90
 594 -243 594 -243 492.5 -197 c 128,-1,91
 391 -151 391 -151 315 -63.5 c 128,-1,92
 239 24 239 24 229 137.5 c 128,-1,93
 219 251 219 251 315 376 c 0,94,95
 315 377 315 377 314 378 c 256,96,97
 313 379 313 379 312 378 c 2,98,-1
 219 285 l 2,99,100
 104 165 104 165 93.5 52.5 c 128,-1,101
 83 -60 83 -60 143 -152 c 128,-1,102
 203 -244 203 -244 296.5 -302 c 128,-1,103
 390 -360 390 -360 482 -370.5 c 128,-1,104
 574 -381 574 -381 629 -330 c 2,105,-1
 766 -193 l 2,106,107
 818 -139 818 -139 820 -75 c 1,108,109
 859 -70 859 -70 885 -44 c 2,110,-1
 972 42 l 1,111,112
 1022 -17 1022 -17 1089 -83 c 1,113,114
 1134 -38 1134 -38 1163 -10 c 0,115,116
 1169 -5 1169 -5 1175 2 c 1,117,-1
 1176 2 l 1,118,-1
 1338 139 l 1,119,-1
 1306 139 l 1,120,42
 1348 196 1348 196 1352 253 c 0,43,44
EndSplineSet
EndChar

StartChar: syin.init
Encoding: 150 65207 114
Width: 932
GlyphClass: 2
Flags: W
AnchorPoint: "Anchor-1" 558 -202 basechar 0
AnchorPoint: "Anchor-0" 282 1045 basechar 0
LayerCount: 2
Fore
SplineSet
668 -83 m 1,0,-1
 738 -14 738 -14 849 96 c 1,3,4
 941 193 941 193 932 286 c 128,-1,5
 923 379 923 379 870 463.5 c 128,-1,6
 817 548 817 548 774.5 618.5 c 128,-1,7
 732 689 732 689 755 741 c 0,8,9
 756 742 756 742 755 743 c 256,10,11
 754 744 754 744 753 743 c 2,12,-1
 633 623 l 2,13,14
 594 580 594 580 619 521.5 c 128,-1,15
 644 463 644 463 693.5 391.5 c 128,-1,16
 743 320 743 320 776 239.5 c 128,-1,17
 809 159 809 159 785 74 c 1,18,19
 763 96 763 96 715 149 c 128,-1,20
 667 202 667 202 618 269.5 c 128,-1,21
 569 337 569 337 542.5 401.5 c 128,-1,22
 516 466 516 466 537 511 c 0,23,24
 538 512 538 512 537 513 c 0,25,26
 536 513 536 513 535 512 c 2,27,-1
 414 391 l 2,28,29
 374 347 374 347 401.5 283.5 c 128,-1,30
 429 220 429 220 463 137.5 c 128,-1,31
 497 55 497 55 477 -46 c 1,32,33
 358 26 358 26 327 102.5 c 128,-1,34
 296 179 296 179 336 239 c 0,35,36
 336 241 336 241 335 241 c 0,37,38
 334 242 334 242 333 241 c 0,39,40
 292 200 292 200 244.5 169.5 c 128,-1,41
 197 139 197 139 136 139 c 1,42,-1
 -1 2 l 1,43,44
 47 2 47 2 84.5 20.5 c 128,-1,45
 122 39 122 39 154.5 67 c 128,-1,46
 187 95 187 95 218 126 c 1,47,48
 153 60 153 60 189 -33.5 c 128,-1,49
 225 -127 225 -127 392 -209 c 1,50,51
 452 -150 452 -150 529 -73 c 0,52,53
 562 -38 562 -38 583 6 c 1,54,55
 622 -37 622 -37 668 -83 c 1,0,-1
489 843 m 1,56,-1
 396 751 l 2,58,59
 395 750 395 750 394 750 c 0,60,61
 393 751 393 751 393 752 c 0,62,63
 399 784 399 784 365 820 c 128,-1,64
 331 856 331 856 310 874 c 1,65,-1
 413 976 l 1,66,67
 427 964 427 964 452 940 c 128,-1,68
 477 916 477 916 491.5 889.5 c 128,-1,69
 506 863 506 863 489 843 c 1,56,-1
562 644 m 1,70,-1
 469 551 l 2,72,73
 468 550 468 550 467 551 c 256,74,75
 466 552 466 552 466 553 c 0,76,77
 472 585 472 585 437.5 620.5 c 128,-1,78
 403 656 403 656 383 674 c 1,79,-1
 486 777 l 1,80,81
 500 764 500 764 525 740.5 c 128,-1,82
 550 717 550 717 564.5 690.5 c 128,-1,83
 579 664 579 664 562 644 c 1,70,-1
390 644 m 1,84,-1
 298 551 l 2,86,87
 297 550 297 550 296 551 c 256,88,89
 295 552 295 552 295 553 c 0,90,91
 301 585 301 585 266.5 620.5 c 128,-1,92
 232 656 232 656 212 674 c 1,93,-1
 315 777 l 1,94,95
 328 764 328 764 353 740.5 c 128,-1,96
 378 717 378 717 393 690.5 c 128,-1,97
 408 664 408 664 390 644 c 1,84,-1
EndSplineSet
EndChar

StartChar: syin.medi
Encoding: 151 65208 115
Width: 752
GlyphClass: 2
Flags: W
AnchorPoint: "Anchor-1" 552 -207 basechar 0
AnchorPoint: "Anchor-0" 285 1009 basechar 0
LayerCount: 2
Fore
SplineSet
668 -83 m 1,0,-1
 738 -14 738 -14 849 96 c 1,3,4
 941 193 941 193 932 286 c 128,-1,5
 923 379 923 379 870 463.5 c 128,-1,6
 817 548 817 548 774.5 618.5 c 128,-1,7
 732 689 732 689 755 741 c 0,8,9
 756 742 756 742 755 743 c 256,10,11
 754 744 754 744 753 743 c 2,12,-1
 633 623 l 2,13,14
 594 580 594 580 619 521.5 c 128,-1,15
 644 463 644 463 693.5 391.5 c 128,-1,16
 743 320 743 320 776 239.5 c 128,-1,17
 809 159 809 159 785 74 c 1,18,19
 763 96 763 96 715 149 c 128,-1,20
 667 202 667 202 618 269.5 c 128,-1,21
 569 337 569 337 542.5 401.5 c 128,-1,22
 516 466 516 466 537 511 c 0,23,24
 538 512 538 512 537 513 c 0,25,26
 536 513 536 513 535 512 c 2,27,-1
 414 391 l 2,28,29
 374 347 374 347 401.5 283.5 c 128,-1,30
 429 220 429 220 463 137.5 c 128,-1,31
 497 55 497 55 477 -46 c 1,32,33
 358 26 358 26 327 102.5 c 128,-1,34
 296 179 296 179 336 239 c 0,35,36
 336 241 336 241 335 241 c 0,37,38
 334 242 334 242 333 241 c 0,39,40
 292 200 292 200 244.5 169.5 c 128,-1,41
 197 139 197 139 136 139 c 1,42,-1
 -1 2 l 1,43,44
 47 2 47 2 84.5 20.5 c 128,-1,45
 122 39 122 39 154.5 67 c 128,-1,46
 187 95 187 95 218 126 c 1,47,48
 153 60 153 60 189 -33.5 c 128,-1,49
 225 -127 225 -127 392 -209 c 1,50,51
 452 -150 452 -150 529 -73 c 0,52,53
 562 -38 562 -38 583 6 c 1,54,55
 622 -37 622 -37 668 -83 c 1,0,-1
489 843 m 1,56,-1
 396 751 l 2,58,59
 395 750 395 750 394 750 c 0,60,61
 393 751 393 751 393 752 c 0,62,63
 399 784 399 784 365 820 c 128,-1,64
 331 856 331 856 310 874 c 1,65,-1
 413 976 l 1,66,67
 427 964 427 964 452 940 c 128,-1,68
 477 916 477 916 491.5 889.5 c 128,-1,69
 506 863 506 863 489 843 c 1,56,-1
562 644 m 1,70,-1
 469 551 l 2,72,73
 468 550 468 550 467 551 c 256,74,75
 466 552 466 552 466 553 c 0,76,77
 472 585 472 585 437.5 620.5 c 128,-1,78
 403 656 403 656 383 674 c 1,79,-1
 486 777 l 1,80,81
 500 764 500 764 525 740.5 c 128,-1,82
 550 717 550 717 564.5 690.5 c 128,-1,83
 579 664 579 664 562 644 c 1,70,-1
390 644 m 1,84,-1
 298 551 l 2,86,87
 297 550 297 550 296 551 c 256,88,89
 295 552 295 552 295 553 c 0,90,91
 301 585 301 585 266.5 620.5 c 128,-1,92
 232 656 232 656 212 674 c 1,93,-1
 315 777 l 1,94,95
 328 764 328 764 353 740.5 c 128,-1,96
 378 717 378 717 393 690.5 c 128,-1,97
 408 664 408 664 390 644 c 1,84,-1
855 139 m 1,98,-1
 727 3 l 1,99,-1
 755 2 l 1,100,-1
 917 139 l 1,101,-1
 855 139 l 1,98,-1
EndSplineSet
EndChar

StartChar: sod.fina
Encoding: 153 65210 116
Width: 1462
GlyphClass: 2
Flags: W
AnchorPoint: "Anchor-1" 964 -205 basechar 0
AnchorPoint: "Anchor-0" 778 700 basechar 0
LayerCount: 2
Fore
SplineSet
1473 99 m 1,0,-1
 1420 154 1420 154 1382 167 c 128,-1,3
 1344 180 1344 180 1303 139 c 1,4,5
 1287 139 1287 139 1108 139 c 1,6,7
 1014 171 1014 171 978.5 233 c 128,-1,8
 943 295 943 295 962.5 362 c 128,-1,9
 982 429 982 429 1052 477 c 1,10,11
 1137 527 1137 527 1239 480 c 128,-1,12
 1341 433 1341 433 1411.5 328.5 c 128,-1,13
 1482 224 1482 224 1473 99 c 1,0,-1
755 161 m 2,14,15
 728 220 728 220 713.5 268.5 c 128,-1,16
 699 317 699 317 714 350 c 0,17,18
 714 352 714 352 713 352 c 0,19,20
 712 353 712 353 711 352 c 2,21,-1
 589 230 l 2,22,23
 559 198 559 198 573.5 144.5 c 128,-1,24
 588 91 588 91 619 25 c 0,25,26
 648 -38 648 -38 669 -104 c 128,-1,27
 690 -170 690 -170 681 -233 c 1,28,29
 594 -243 594 -243 492.5 -197 c 128,-1,30
 391 -151 391 -151 315 -63.5 c 128,-1,31
 239 24 239 24 229 137.5 c 128,-1,32
 219 251 219 251 315 376 c 0,33,34
 316 377 316 377 314 378 c 0,35,36
 313 379 313 379 312 378 c 2,37,-1
 219 285 l 2,38,39
 104 165 104 165 93.5 52.5 c 128,-1,40
 83 -60 83 -60 143 -152 c 128,-1,41
 203 -244 203 -244 296.5 -302 c 128,-1,42
 390 -360 390 -360 482 -370.5 c 128,-1,43
 574 -381 574 -381 629 -330 c 2,44,-1
 766 -193 l 2,45,46
 815 -142 815 -142 820 -82 c 0,47,48
 823 -40 823 -40 814 3 c 1,49,50
 957 2 957 2 1166 3 c 1,51,52
 1213 49 1213 49 1258 25 c 128,-1,53
 1303 1 1303 1 1374 -75 c 0,54,55
 1378 -79 1378 -79 1383 -83 c 1,56,-1
 1519 54 l 1,57,58
 1618 160 1618 160 1611.5 276.5 c 128,-1,59
 1605 393 1605 393 1533.5 487.5 c 128,-1,60
 1462 582 1462 582 1365.5 621.5 c 128,-1,61
 1269 661 1269 661 1189 613 c 0,62,63
 1136 579 1136 579 1083 526 c 2,64,-1
 946 389 l 2,65,66
 888 333 888 333 851.5 267 c 128,-1,67
 815 201 815 201 821 139 c 1,68,-1
 765 139 l 1,69,-1
 755 161 l 2,14,15
EndSplineSet
EndChar

StartChar: sod.init
Encoding: 154 65211 117
Width: 1051
GlyphClass: 2
Flags: W
AnchorPoint: "Anchor-1" 447 -210 basechar 0
AnchorPoint: "Anchor-0" 449 847 basechar 0
LayerCount: 2
Fore
SplineSet
547 139 m 1,0,1
 453 171 453 171 418 233 c 128,-1,2
 383 295 383 295 402 362 c 128,-1,3
 421 429 421 429 491 477 c 1,4,5
 577 527 577 527 679 480 c 128,-1,6
 781 433 781 433 851.5 328.5 c 128,-1,7
 922 224 922 224 913 99 c 1,8,9
 859 154 859 154 821.5 167 c 128,-1,10
 784 180 784 180 742 139 c 1,11,12
 721 139 721 139 547 139 c 1,0,1
113 139 m 1,13,-1
 113 140 l 1,14,-1
 -2 24 l 2,15,16
 -3 23 -3 23 -2 22 c 256,17,18
 -1 21 -1 21 0 22 c 0,19,20
 40 47 40 47 82.5 17 c 128,-1,21
 125 -13 125 -13 192 -83 c 1,22,-1
 278 3 l 1,23,24
 496 3 496 3 606 3 c 1,25,26
 654 51 654 51 700 24 c 128,-1,27
 746 -3 746 -3 822 -83 c 1,28,-1
 959 54 l 1,29,30
 1058 160 1058 160 1051.5 276.5 c 128,-1,31
 1045 393 1045 393 973 487.5 c 128,-1,32
 901 582 901 582 805 621.5 c 128,-1,33
 709 661 709 661 628 613 c 0,34,35
 575 579 575 579 522 526 c 2,36,-1
 385 389 l 2,37,38
 321 327 321 327 284 254 c 128,-1,39
 247 181 247 181 266 115 c 1,40,41
 221 160 221 160 186 168.5 c 128,-1,42
 151 177 151 177 113 139 c 1,13,-1
EndSplineSet
EndChar

StartChar: sod.medi
Encoding: 155 65212 118
Width: 903
GlyphClass: 2
Flags: W
AnchorPoint: "Anchor-1" 449 -207 basechar 0
AnchorPoint: "Anchor-0" 444 853 basechar 0
LayerCount: 2
Fore
SplineSet
547 139 m 1,0,1
 453 171 453 171 418 233 c 128,-1,2
 383 295 383 295 402 362 c 128,-1,3
 421 429 421 429 491 477 c 1,4,5
 577 527 577 527 679 480 c 128,-1,6
 781 433 781 433 851.5 328.5 c 128,-1,7
 922 224 922 224 913 99 c 1,8,9
 859 154 859 154 821.5 167 c 128,-1,10
 784 180 784 180 742 139 c 1,11,12
 721 139 721 139 547 139 c 1,0,1
1052 277 m 0,14,15
 1045 393 1045 393 973 487.5 c 128,-1,16
 901 582 901 582 805 621.5 c 128,-1,17
 709 661 709 661 628 613 c 0,18,19
 575 579 575 579 522 526 c 2,20,-1
 385 389 l 2,21,22
 321 327 321 327 284 254 c 128,-1,23
 247 181 247 181 266 115 c 1,24,25
 221 160 221 160 186 168.5 c 128,-1,26
 151 177 151 177 113 139 c 1,27,-1
 113 140 l 1,28,-1
 -2 24 l 2,29,30
 -3 23 -3 23 -2 22 c 256,31,32
 -1 21 -1 21 0 22 c 0,33,34
 39 46 39 46 80 18.5 c 128,-1,35
 121 -9 121 -9 184 -75 c 2,36,-1
 192 -83 l 1,37,-1
 278 3 l 1,38,-1
 606 3 l 1,39,40
 653 49 653 49 697.5 25 c 128,-1,41
 742 1 742 1 813 -75 c 0,42,43
 817 -79 817 -79 822 -83 c 1,44,-1
 907 2 l 1,45,-1
 908 2 l 1,46,-1
 1071 139 l 1,47,-1
 1021 139 l 1,48,13
 1055 206 1055 206 1052 277 c 0,14,15
EndSplineSet
EndChar

StartChar: dod.fina
Encoding: 157 65214 119
Width: 1463
GlyphClass: 2
Flags: W
AnchorPoint: "Anchor-1" 964 -205 basechar 0
AnchorPoint: "Anchor-0" 767 697 basechar 0
LayerCount: 2
Fore
SplineSet
1473 99 m 1,0,-1
 1473 99 l 1,1,2
 1420 154 1420 154 1382 167 c 128,-1,3
 1344 180 1344 180 1303 139 c 1,4,5
 1287 139 1287 139 1108 139 c 1,6,7
 1014 171 1014 171 978.5 233 c 128,-1,8
 943 295 943 295 962.5 362 c 128,-1,9
 982 429 982 429 1052 477 c 1,10,11
 1137 527 1137 527 1239 480 c 128,-1,12
 1341 433 1341 433 1411.5 328.5 c 128,-1,13
 1482 224 1482 224 1473 99 c 1,0,-1
1358 844 m 2,14,-1
 1265 751 l 2,15,16
 1264 750 1264 750 1263 751 c 256,17,18
 1262 752 1262 752 1263 753 c 0,19,20
 1269 785 1269 785 1234.5 820.5 c 128,-1,21
 1200 856 1200 856 1180 874 c 1,22,-1
 1282 977 l 1,23,24
 1296 965 1296 965 1321 941 c 128,-1,25
 1346 917 1346 917 1360.5 890.5 c 128,-1,26
 1375 864 1375 864 1358 844 c 2,14,-1
1612 277 m 0,28,29
 1605 393 1605 393 1533.5 487.5 c 128,-1,30
 1462 582 1462 582 1365.5 621.5 c 128,-1,31
 1269 661 1269 661 1189 613 c 0,32,33
 1136 579 1136 579 1083 526 c 2,34,-1
 946 389 l 2,35,36
 888 333 888 333 851.5 267 c 128,-1,37
 815 201 815 201 821 139 c 1,38,-1
 765 139 l 1,39,-1
 755 161 l 2,40,41
 728 220 728 220 713.5 268.5 c 128,-1,42
 699 317 699 317 714 350 c 0,43,44
 714 352 714 352 713 352 c 0,45,46
 712 353 712 353 711 352 c 2,47,-1
 589 230 l 2,48,49
 559 198 559 198 573.5 144.5 c 128,-1,50
 588 91 588 91 619 25 c 0,51,52
 648 -38 648 -38 669 -104 c 128,-1,53
 690 -170 690 -170 681 -233 c 1,54,55
 594 -243 594 -243 492.5 -197 c 128,-1,56
 391 -151 391 -151 315 -63.5 c 128,-1,57
 239 24 239 24 229 137.5 c 128,-1,58
 219 251 219 251 315 376 c 0,59,60
 316 377 316 377 314 378 c 0,61,62
 313 379 313 379 312 378 c 2,63,-1
 219 285 l 2,64,65
 104 165 104 165 93.5 52.5 c 128,-1,66
 83 -60 83 -60 143 -152 c 128,-1,67
 203 -244 203 -244 296.5 -302 c 128,-1,68
 390 -360 390 -360 482 -370.5 c 128,-1,69
 574 -381 574 -381 629 -330 c 2,70,-1
 766 -193 l 2,71,72
 815 -142 815 -142 820 -82 c 0,73,74
 823 -40 823 -40 814 3 c 1,75,76
 957 2 957 2 1166 3 c 1,77,78
 1213 49 1213 49 1258 25 c 128,-1,79
 1303 1 1303 1 1374 -75 c 0,80,81
 1378 -79 1378 -79 1383 -83 c 1,82,-1
 1467 2 l 1,83,-1
 1468 2 l 1,84,-1
 1630 139 l 1,85,-1
 1581 139 l 1,86,27
 1615 206 1615 206 1612 277 c 0,28,29
EndSplineSet
EndChar

StartChar: dod.init
Encoding: 158 65215 120
Width: 1052
GlyphClass: 2
Flags: W
AnchorPoint: "Anchor-1" 447 -202 basechar 0
AnchorPoint: "Anchor-0" 397 845 basechar 0
LayerCount: 2
Fore
SplineSet
547 139 m 1,0,1
 453 171 453 171 418 233 c 128,-1,2
 383 295 383 295 402 362 c 128,-1,3
 421 429 421 429 491 477 c 1,4,5
 577 527 577 527 679 480 c 128,-1,6
 781 433 781 433 851.5 328.5 c 128,-1,7
 922 224 922 224 913 99 c 1,8,9
 859 154 859 154 821.5 167 c 128,-1,10
 784 180 784 180 742 139 c 1,11,12
 721 139 721 139 547 139 c 1,0,1
113 139 m 1,13,-1
 113 140 l 1,14,-1
 -2 24 l 2,15,16
 -3 23 -3 23 -2 22 c 256,17,18
 -1 21 -1 21 0 22 c 0,19,20
 40 47 40 47 82.5 17 c 128,-1,21
 125 -13 125 -13 192 -83 c 1,22,-1
 278 3 l 1,23,24
 496 3 496 3 606 3 c 1,25,26
 654 51 654 51 700 24 c 128,-1,27
 746 -3 746 -3 822 -83 c 1,28,-1
 959 54 l 1,29,30
 1058 160 1058 160 1051.5 276.5 c 128,-1,31
 1045 393 1045 393 973 487.5 c 128,-1,32
 901 582 901 582 805 621.5 c 128,-1,33
 709 661 709 661 628 613 c 0,34,35
 575 579 575 579 522 526 c 2,36,-1
 385 389 l 2,37,38
 321 327 321 327 284 254 c 128,-1,39
 247 181 247 181 266 115 c 1,40,41
 221 160 221 160 186 168.5 c 128,-1,42
 151 177 151 177 113 139 c 1,13,-1
797 844 m 2,43,-1
 705 751 l 2,44,45
 704 750 704 750 703 751 c 256,46,47
 702 752 702 752 702 753 c 0,48,49
 708 785 708 785 673.5 820.5 c 128,-1,50
 639 856 639 856 619 874 c 1,51,-1
 722 977 l 1,52,53
 735 965 735 965 760 941 c 128,-1,54
 785 917 785 917 800 890.5 c 128,-1,55
 815 864 815 864 797 844 c 2,43,-1
EndSplineSet
EndChar

StartChar: dod.medi
Encoding: 159 65216 121
Width: 901
GlyphClass: 2
Flags: W
AnchorPoint: "Anchor-1" 447 -210 basechar 0
AnchorPoint: "Anchor-0" 402 853 basechar 0
LayerCount: 2
Fore
SplineSet
547 139 m 1,0,1
 453 171 453 171 418 233 c 128,-1,2
 383 295 383 295 402 362 c 128,-1,3
 421 429 421 429 491 477 c 1,4,5
 577 527 577 527 679 480 c 128,-1,6
 781 433 781 433 851.5 328.5 c 128,-1,7
 922 224 922 224 913 99 c 1,8,9
 859 154 859 154 821.5 167 c 128,-1,10
 784 180 784 180 742 139 c 1,11,12
 721 139 721 139 547 139 c 1,0,1
797 844 m 2,13,-1
 705 751 l 2,14,15
 704 750 704 750 703 751 c 256,16,17
 702 752 702 752 702 753 c 0,18,19
 708 785 708 785 673.5 820.5 c 128,-1,20
 639 856 639 856 619 874 c 1,21,-1
 722 977 l 1,22,23
 735 965 735 965 760 941 c 128,-1,24
 785 917 785 917 800 890.5 c 128,-1,25
 815 864 815 864 797 844 c 2,13,-1
1052 277 m 0,27,28
 1045 393 1045 393 973 487.5 c 128,-1,29
 901 582 901 582 805 621.5 c 128,-1,30
 709 661 709 661 628 613 c 0,31,32
 575 579 575 579 522 526 c 2,33,-1
 385 389 l 2,34,35
 321 327 321 327 284 254 c 128,-1,36
 247 181 247 181 266 115 c 1,37,38
 221 160 221 160 186 168.5 c 128,-1,39
 151 177 151 177 113 139 c 1,40,-1
 113 140 l 1,41,-1
 -2 24 l 2,42,43
 -3 23 -3 23 -2 22 c 256,44,45
 -1 21 -1 21 0 22 c 0,46,47
 39 46 39 46 80 18.5 c 128,-1,48
 121 -9 121 -9 184 -75 c 2,49,-1
 192 -83 l 1,50,-1
 278 3 l 1,51,-1
 606 3 l 1,52,53
 653 49 653 49 697.5 25 c 128,-1,54
 742 1 742 1 813 -75 c 0,55,56
 817 -79 817 -79 822 -83 c 1,57,-1
 907 2 l 1,58,-1
 908 2 l 1,59,-1
 1071 139 l 1,60,-1
 1021 139 l 1,61,26
 1055 206 1055 206 1052 277 c 0,27,28
EndSplineSet
EndChar

StartChar: to.fina
Encoding: 161 65218 122
Width: 962
GlyphClass: 2
Flags: W
AnchorPoint: "Anchor-1" 449 -202 basechar 0
AnchorPoint: "Anchor-0" 552 1059 basechar 0
LayerCount: 2
Fore
SplineSet
992 99 m 1,0,-1
 992 99 l 1,1,2
 939 154 939 154 901 167 c 128,-1,3
 863 180 863 180 822 139 c 1,4,5
 805 139 805 139 627 139 c 1,6,7
 533 171 533 171 497.5 233 c 128,-1,8
 462 295 462 295 481 362 c 128,-1,9
 500 429 500 429 570 477 c 1,10,11
 656 527 656 527 758 480 c 128,-1,12
 860 433 860 433 930.5 328.5 c 128,-1,13
 1001 224 1001 224 992 99 c 1,0,-1
1131 277 m 0,15,16
 1124 393 1124 393 1052 487.5 c 128,-1,17
 980 582 980 582 884 621.5 c 128,-1,18
 788 661 788 661 707 613 c 0,19,20
 666 587 666 587 624 548 c 1,21,22
 641 579 641 579 644.5 624 c 128,-1,23
 648 669 648 669 648 703 c 2,24,-1
 648 723 l 2,25,26
 647 862 647 862 649 917.5 c 128,-1,27
 651 973 651 973 660 988 c 0,28,29
 661 989 661 989 660 990 c 256,30,31
 659 991 659 991 658 990 c 2,32,-1
 540 872 l 1,33,34
 519 859 519 859 514.5 812.5 c 128,-1,35
 510 766 510 766 511 586 c 2,36,-1
 511 566 l 2,37,38
 512 533 512 533 508 489 c 128,-1,39
 504 445 504 445 488 413 c 1,40,-1
 464 389 l 2,41,42
 407 333 407 333 370 267 c 128,-1,43
 333 201 333 201 340 140 c 1,44,-1
 331 140 l 2,45,46
 294 141 294 141 264 136 c 128,-1,47
 234 131 234 131 210 107 c 2,48,-1
 91 -11 l 2,49,50
 90 -12 90 -12 91 -13 c 0,51,52
 92 -15 92 -15 93 -14 c 0,53,54
 123 3 123 3 181 3 c 0,55,56
 424 2 424 2 685 3 c 1,57,58
 732 49 732 49 776.5 25 c 128,-1,59
 821 1 821 1 893 -75 c 2,60,-1
 901 -83 l 1,61,-1
 986 2 l 1,62,-1
 1149 139 l 1,63,-1
 1100 139 l 1,64,14
 1134 206 1134 206 1131 277 c 0,15,16
EndSplineSet
EndChar

StartChar: to.init
Encoding: 162 65219 123
Width: 1034
GlyphClass: 2
Flags: W
AnchorPoint: "Anchor-1" 447 -205 basechar 0
AnchorPoint: "Anchor-0" 447 1051 basechar 0
LayerCount: 2
Fore
SplineSet
563 988 m 1,0,-1
 563 988 l 1,1,2
 564 989 564 989 563 990 c 256,3,4
 562 991 562 991 561 990 c 2,5,-1
 443 872 l 2,6,7
 428 860 428 860 422 840 c 128,-1,8
 416 820 416 820 415 761.5 c 128,-1,9
 414 703 414 703 414 570 c 0,10,11
 414 540 414 540 411 493 c 128,-1,12
 408 446 408 446 391 413 c 1,13,-1
 367 389 l 2,14,15
 310 333 310 333 273 267 c 128,-1,16
 236 201 236 201 243 139 c 1,17,-1
 133 139 l 1,18,-1
 -4 3 l 1,19,20
 241 3 241 3 588 3 c 1,21,22
 636 51 636 51 682.5 24 c 128,-1,23
 729 -3 729 -3 804 -83 c 1,24,-1
 941 54 l 1,25,26
 1040 160 1040 160 1033.5 276.5 c 128,-1,27
 1027 393 1027 393 955.5 487.5 c 128,-1,28
 884 582 884 582 787.5 621.5 c 128,-1,29
 691 661 691 661 610 613 c 0,30,31
 569 587 569 587 527 548 c 1,32,33
 545 580 545 580 548 628 c 128,-1,34
 551 676 551 676 551 707 c 0,35,36
 551 859 551 859 552.5 915.5 c 128,-1,37
 554 972 554 972 563 988 c 1,0,-1
895 99 m 1,38,-1
 895 99 l 1,39,40
 842 154 842 154 804 167 c 128,-1,41
 766 180 766 180 725 139 c 1,42,43
 708 139 708 139 530 139 c 1,44,45
 436 171 436 171 400.5 233 c 128,-1,46
 365 295 365 295 384 362 c 128,-1,47
 403 429 403 429 474 477 c 1,48,49
 559 527 559 527 661 480 c 128,-1,50
 763 433 763 433 833.5 328.5 c 128,-1,51
 904 224 904 224 895 99 c 1,38,-1
EndSplineSet
EndChar

StartChar: to.medi
Encoding: 163 65220 124
Width: 870
GlyphClass: 2
Flags: W
AnchorPoint: "Anchor-1" 444 -205 basechar 0
AnchorPoint: "Anchor-0" 449 1073 basechar 0
LayerCount: 2
Fore
SplineSet
895 99 m 1,0,-1
 895 99 l 1,1,2
 842 154 842 154 804 167 c 128,-1,3
 766 180 766 180 725 139 c 1,4,5
 708 139 708 139 530 139 c 1,6,7
 436 171 436 171 400.5 233 c 128,-1,8
 365 295 365 295 384 362 c 128,-1,9
 403 429 403 429 474 477 c 1,10,11
 559 527 559 527 661 480 c 128,-1,12
 763 433 763 433 833.5 328.5 c 128,-1,13
 904 224 904 224 895 99 c 1,0,-1
1034 277 m 0,15,16
 1027 393 1027 393 955.5 487.5 c 128,-1,17
 884 582 884 582 787.5 621.5 c 128,-1,18
 691 661 691 661 610 613 c 0,19,20
 569 587 569 587 527 548 c 1,21,22
 544 579 544 579 547.5 624 c 128,-1,23
 551 669 551 669 551 703 c 2,24,-1
 551 723 l 2,25,26
 550 862 550 862 552 917.5 c 128,-1,27
 554 973 554 973 563 988 c 0,28,29
 564 989 564 989 563 990 c 256,30,31
 562 991 562 991 561 990 c 2,32,-1
 443 872 l 1,33,34
 422 859 422 859 417.5 812.5 c 128,-1,35
 413 766 413 766 414 586 c 2,36,-1
 414 566 l 2,37,38
 415 533 415 533 411.5 489 c 128,-1,39
 408 445 408 445 391 413 c 1,40,-1
 367 389 l 2,41,42
 310 333 310 333 273 267 c 128,-1,43
 236 201 236 201 243 139 c 1,44,-1
 133 139 l 1,45,-1
 -4 3 l 1,46,-1
 195 3 l 2,47,48
 490 2 490 2 588 3 c 1,49,50
 635 49 635 49 679.5 25 c 128,-1,51
 724 1 724 1 796 -75 c 2,52,-1
 804 -83 l 1,53,-1
 889 2 l 1,54,-1
 890 2 l 1,55,-1
 1052 139 l 1,56,-1
 1003 139 l 1,57,14
 1037 206 1037 206 1034 277 c 0,15,16
EndSplineSet
EndChar

StartChar: zho.fina
Encoding: 165 65222 125
Width: 962
GlyphClass: 2
Flags: W
AnchorPoint: "Anchor-1" 494 -207 basechar 0
AnchorPoint: "Anchor-0" 569 1103 basechar 0
LayerCount: 2
Fore
SplineSet
992 99 m 1,0,-1
 992 99 l 1,1,2
 939 154 939 154 901 167 c 128,-1,3
 863 180 863 180 822 139 c 1,4,5
 805 139 805 139 627 139 c 1,6,7
 533 171 533 171 497.5 233 c 128,-1,8
 462 295 462 295 481 362 c 128,-1,9
 500 429 500 429 570 477 c 1,10,11
 656 527 656 527 758 480 c 128,-1,12
 860 433 860 433 930.5 328.5 c 128,-1,13
 1001 224 1001 224 992 99 c 1,0,-1
876 844 m 2,14,-1
 784 751 l 2,15,16
 783 750 783 750 782 751 c 256,17,18
 781 752 781 752 781 753 c 0,19,20
 787 785 787 785 752.5 820.5 c 128,-1,21
 718 856 718 856 698 874 c 1,22,-1
 801 977 l 1,23,24
 814 965 814 965 839 941 c 128,-1,25
 864 917 864 917 879 890.5 c 128,-1,26
 894 864 894 864 876 844 c 2,14,-1
1131 277 m 0,28,29
 1124 393 1124 393 1052 487.5 c 128,-1,30
 980 582 980 582 884 621.5 c 128,-1,31
 788 661 788 661 707 613 c 0,32,33
 666 587 666 587 624 548 c 1,34,35
 641 579 641 579 644.5 624 c 128,-1,36
 648 669 648 669 648 703 c 2,37,-1
 648 723 l 2,38,39
 647 862 647 862 649 917.5 c 128,-1,40
 651 973 651 973 660 988 c 0,41,42
 661 989 661 989 660 990 c 256,43,44
 659 991 659 991 658 990 c 2,45,-1
 540 872 l 1,46,47
 519 859 519 859 514.5 812.5 c 128,-1,48
 510 766 510 766 511 586 c 2,49,-1
 511 566 l 2,50,51
 512 533 512 533 508 489 c 128,-1,52
 504 445 504 445 488 413 c 1,53,-1
 464 389 l 2,54,55
 407 333 407 333 370 267 c 128,-1,56
 333 201 333 201 340 140 c 1,57,-1
 331 140 l 2,58,59
 294 141 294 141 264 136 c 128,-1,60
 234 131 234 131 210 107 c 2,61,-1
 91 -11 l 2,62,63
 90 -12 90 -12 91 -13 c 0,64,65
 92 -15 92 -15 93 -14 c 0,66,67
 123 3 123 3 181 3 c 0,68,69
 424 2 424 2 685 3 c 1,70,71
 732 49 732 49 776.5 25 c 128,-1,72
 821 1 821 1 893 -75 c 2,73,-1
 901 -83 l 1,74,-1
 986 2 l 1,75,-1
 987 2 l 1,76,-1
 1149 139 l 1,77,-1
 1100 139 l 1,78,27
 1134 206 1134 206 1131 277 c 0,28,29
EndSplineSet
EndChar

StartChar: zho.init
Encoding: 166 65223 126
Width: 1034
GlyphClass: 2
Flags: W
AnchorPoint: "Anchor-1" 447 -210 basechar 0
AnchorPoint: "Anchor-0" 447 1095 basechar 0
LayerCount: 2
Fore
SplineSet
563 988 m 1,0,-1
 563 988 l 1,1,2
 564 989 564 989 563 990 c 256,3,4
 562 991 562 991 561 990 c 2,5,-1
 443 872 l 2,6,7
 428 860 428 860 422 840 c 128,-1,8
 416 820 416 820 415 761.5 c 128,-1,9
 414 703 414 703 414 570 c 0,10,11
 414 540 414 540 411 493 c 128,-1,12
 408 446 408 446 391 413 c 1,13,-1
 367 389 l 2,14,15
 310 333 310 333 273 267 c 128,-1,16
 236 201 236 201 243 139 c 1,17,-1
 133 139 l 1,18,-1
 -4 3 l 1,19,20
 241 3 241 3 588 3 c 1,21,22
 636 51 636 51 682.5 24 c 128,-1,23
 729 -3 729 -3 804 -83 c 1,24,-1
 941 54 l 1,25,26
 1040 160 1040 160 1033.5 276.5 c 128,-1,27
 1027 393 1027 393 955.5 487.5 c 128,-1,28
 884 582 884 582 787.5 621.5 c 128,-1,29
 691 661 691 661 610 613 c 0,30,31
 569 587 569 587 527 548 c 1,32,33
 545 580 545 580 548 628 c 128,-1,34
 551 676 551 676 551 707 c 0,35,36
 551 859 551 859 552.5 915.5 c 128,-1,37
 554 972 554 972 563 988 c 1,0,-1
895 99 m 1,38,-1
 895 99 l 1,39,40
 842 154 842 154 804 167 c 128,-1,41
 766 180 766 180 725 139 c 1,42,43
 708 139 708 139 530 139 c 1,44,45
 436 171 436 171 400.5 233 c 128,-1,46
 365 295 365 295 384 362 c 128,-1,47
 403 429 403 429 474 477 c 1,48,49
 559 527 559 527 661 480 c 128,-1,50
 763 433 763 433 833.5 328.5 c 128,-1,51
 904 224 904 224 895 99 c 1,38,-1
779 844 m 2,52,-1
 687 751 l 2,53,54
 686 750 686 750 685 751 c 256,55,56
 684 752 684 752 684 753 c 0,57,58
 690 785 690 785 655.5 820.5 c 128,-1,59
 621 856 621 856 601 874 c 1,60,-1
 704 977 l 1,61,62
 717 965 717 965 742 941 c 128,-1,63
 767 917 767 917 782 890.5 c 128,-1,64
 797 864 797 864 779 844 c 2,52,-1
EndSplineSet
EndChar

StartChar: zho.medi
Encoding: 167 65224 127
Width: 868
GlyphClass: 2
Flags: W
AnchorPoint: "Anchor-1" 449 -202 basechar 0
AnchorPoint: "Anchor-0" 447 1098 basechar 0
LayerCount: 2
Fore
SplineSet
895 99 m 1,0,-1
 895 99 l 1,1,2
 842 154 842 154 804 167 c 128,-1,3
 766 180 766 180 725 139 c 1,4,5
 708 139 708 139 530 139 c 1,6,7
 436 171 436 171 400.5 233 c 128,-1,8
 365 295 365 295 384 362 c 128,-1,9
 403 429 403 429 474 477 c 1,10,11
 559 527 559 527 661 480 c 128,-1,12
 763 433 763 433 833.5 328.5 c 128,-1,13
 904 224 904 224 895 99 c 1,0,-1
779 844 m 2,14,-1
 687 751 l 2,15,16
 686 750 686 750 685 751 c 256,17,18
 684 752 684 752 684 753 c 0,19,20
 690 785 690 785 655.5 820.5 c 128,-1,21
 621 856 621 856 601 874 c 1,22,-1
 704 977 l 1,23,24
 717 965 717 965 742 941 c 128,-1,25
 767 917 767 917 782 890.5 c 128,-1,26
 797 864 797 864 779 844 c 2,14,-1
1034 277 m 0,28,29
 1027 393 1027 393 955.5 487.5 c 128,-1,30
 884 582 884 582 787.5 621.5 c 128,-1,31
 691 661 691 661 610 613 c 0,32,33
 569 587 569 587 527 548 c 1,34,35
 544 579 544 579 547.5 624 c 128,-1,36
 551 669 551 669 551 703 c 2,37,-1
 551 723 l 2,38,39
 550 862 550 862 552 917.5 c 128,-1,40
 554 973 554 973 563 988 c 0,41,42
 564 989 564 989 563 990 c 256,43,44
 562 991 562 991 561 990 c 2,45,-1
 443 872 l 1,46,47
 422 859 422 859 417.5 812.5 c 128,-1,48
 413 766 413 766 414 586 c 2,49,-1
 414 566 l 2,50,51
 415 533 415 533 411.5 489 c 128,-1,52
 408 445 408 445 391 413 c 1,53,-1
 367 389 l 2,54,55
 310 333 310 333 273 267 c 128,-1,56
 236 201 236 201 243 139 c 1,57,-1
 133 139 l 1,58,-1
 -4 3 l 1,59,-1
 195 3 l 2,60,61
 490 2 490 2 588 3 c 1,62,63
 635 49 635 49 679.5 25 c 128,-1,64
 724 1 724 1 796 -75 c 2,65,-1
 804 -83 l 1,66,-1
 889 2 l 1,67,-1
 890 2 l 1,68,-1
 1052 139 l 1,69,-1
 1003 139 l 1,70,27
 1037 206 1037 206 1034 277 c 0,28,29
EndSplineSet
EndChar

StartChar: ain.fina
Encoding: 169 65226 128
Width: 669
GlyphClass: 2
Flags: W
AnchorPoint: "Anchor-1" 285 -689 basechar 0
AnchorPoint: "Anchor-0" 280 850 basechar 0
LayerCount: 2
Fore
SplineSet
670 3 m 1,0,-1
 670 3 l 1,1,-1
 807 140 l 1,2,3
 671 140 671 140 525 186 c 128,-1,4
 379 232 379 232 293 314 c 128,-1,5
 207 396 207 396 237 506 c 1,6,7
 291 507 291 507 363 486 c 128,-1,8
 435 465 435 465 498 428 c 128,-1,9
 561 391 561 391 587 340.5 c 128,-1,10
 613 290 613 290 574 230 c 0,11,12
 574 229 574 229 575 228 c 256,13,14
 576 227 576 227 577 228 c 2,15,-1
 686 338 l 2,16,17
 758 415 758 415 723.5 478 c 128,-1,18
 689 541 689 541 602 583 c 128,-1,19
 515 625 515 625 430.5 638.5 c 128,-1,20
 346 652 346 652 318 629 c 2,21,-1
 182 492 l 2,22,23
 77 384 77 384 92.5 294.5 c 128,-1,24
 108 205 108 205 201 139 c 128,-1,25
 294 73 294 73 423 38 c 1,26,27
 411 28 411 28 400 17 c 2,28,-1
 263 -120 l 2,29,30
 194 -191 194 -191 194 -284.5 c 128,-1,31
 194 -378 194 -378 260 -477 c 0,32,33
 289 -517 289 -517 349.5 -603 c 128,-1,34
 410 -689 410 -689 449 -785 c 128,-1,35
 488 -881 488 -881 453 -949 c 0,36,37
 453 -950 453 -950 454 -951 c 0,38,39
 455 -951 455 -951 456 -950 c 2,40,-1
 574 -832 l 2,41,42
 617 -786 617 -786 604.5 -716 c 128,-1,43
 592 -646 592 -646 550 -570.5 c 128,-1,44
 508 -495 508 -495 463.5 -433 c 128,-1,45
 419 -371 419 -371 397 -340 c 0,46,47
 297 -189 297 -189 348 -60 c 1,48,49
 406 -30 406 -30 486 -13.5 c 128,-1,50
 566 3 566 3 670 3 c 1,0,-1
EndSplineSet
EndChar

StartChar: ain.init
Encoding: 170 65227 129
Width: 978
GlyphClass: 2
Flags: W
AnchorPoint: "Anchor-1" 447 -205 basechar 0
AnchorPoint: "Anchor-0" 402 850 basechar 0
LayerCount: 2
Fore
SplineSet
134 140 m 1,0,-1
 134 140 l 1,1,-1
 -2 3 l 1,2,3
 419 3 419 3 841 3 c 1,4,-1
 978 140 l 1,5,6
 842 140 842 140 696 186 c 128,-1,7
 550 232 550 232 464 314 c 128,-1,8
 378 396 378 396 408 506 c 1,9,10
 462 507 462 507 534.5 486 c 128,-1,11
 607 465 607 465 670 428 c 128,-1,12
 733 391 733 391 759 340.5 c 128,-1,13
 785 290 785 290 746 230 c 0,14,15
 745 229 745 229 746 228 c 256,16,17
 747 227 747 227 748 228 c 2,18,-1
 858 338 l 2,19,20
 930 415 930 415 895 478 c 128,-1,21
 860 541 860 541 773.5 583 c 128,-1,22
 687 625 687 625 602.5 638.5 c 128,-1,23
 518 652 518 652 490 629 c 2,24,-1
 353 492 l 2,25,26
 249 385 249 385 264 295 c 128,-1,27
 279 205 279 205 371 140 c 1,28,-1
 134 140 l 1,0,-1
EndSplineSet
EndChar

StartChar: ain.medi
Encoding: 171 65228 130
Width: 791
GlyphClass: 2
Flags: W
AnchorPoint: "Anchor-1" 402 -205 basechar 0
AnchorPoint: "Anchor-0" 449 850 basechar 0
LayerCount: 2
Fore
SplineSet
134 140 m 1,0,-1
 134 140 l 1,1,-1
 -3 3 l 1,2,3
 160 3 160 3 458 3 c 1,4,-1
 508 53 l 1,5,6
 651 3 651 3 794 3 c 1,7,-1
 930 140 l 1,8,9
 794 140 794 140 658.5 186 c 128,-1,10
 523 232 523 232 448.5 314 c 128,-1,11
 374 396 374 396 410 507 c 1,12,13
 475 506 475 506 557 471.5 c 128,-1,14
 639 437 639 437 682 376 c 128,-1,15
 725 315 725 315 674 236 c 0,16,17
 673 235 673 235 674 234 c 256,18,19
 675 233 675 233 677 234 c 2,20,-1
 784 341 l 2,21,22
 857 418 857 418 834 481 c 128,-1,23
 811 544 811 544 739.5 585 c 128,-1,24
 668 626 668 626 595 639 c 128,-1,25
 522 652 522 652 495 629 c 2,26,-1
 358 492 l 2,27,28
 254 385 254 385 261 295 c 128,-1,29
 268 205 268 205 350 140 c 1,30,-1
 134 140 l 1,0,-1
EndSplineSet
EndChar

StartChar: ghain.fina
Encoding: 173 65230 131
Width: 669
GlyphClass: 2
Flags: W
AnchorPoint: "Anchor-1" 288 -689 basechar 0
AnchorPoint: "Anchor-0" 285 1037 basechar 0
LayerCount: 2
Fore
SplineSet
670 3 m 1,0,-1
 807 140 l 1,2,3
 671 140 671 140 525 186 c 128,-1,4
 379 232 379 232 293 314 c 128,-1,5
 207 396 207 396 237 506 c 1,6,7
 291 507 291 507 363 486 c 128,-1,8
 435 465 435 465 498 428 c 128,-1,9
 561 391 561 391 587 340.5 c 128,-1,10
 613 290 613 290 574 230 c 0,11,12
 574 229 574 229 575 228 c 256,13,14
 576 227 576 227 577 228 c 2,15,-1
 686 338 l 2,16,17
 758 415 758 415 723.5 478 c 128,-1,18
 689 541 689 541 602 583 c 128,-1,19
 515 625 515 625 430.5 638.5 c 128,-1,20
 346 652 346 652 318 629 c 2,21,-1
 182 492 l 2,22,23
 77 384 77 384 92.5 294.5 c 128,-1,24
 108 205 108 205 201 139 c 128,-1,25
 294 73 294 73 423 38 c 1,26,27
 411 28 411 28 400 17 c 2,28,-1
 263 -120 l 2,29,30
 194 -191 194 -191 194 -284.5 c 128,-1,31
 194 -378 194 -378 260 -477 c 0,32,33
 289 -517 289 -517 349.5 -603 c 128,-1,34
 410 -689 410 -689 449 -785 c 128,-1,35
 488 -881 488 -881 453 -949 c 0,36,37
 453 -950 453 -950 454 -951 c 0,38,39
 455 -951 455 -951 456 -950 c 2,40,-1
 574 -832 l 2,41,42
 617 -786 617 -786 604.5 -716 c 128,-1,43
 592 -646 592 -646 550 -570.5 c 128,-1,44
 508 -495 508 -495 463.5 -433 c 128,-1,45
 419 -371 419 -371 397 -340 c 0,46,47
 297 -189 297 -189 348 -60 c 1,48,49
 406 -30 406 -30 486 -13.5 c 128,-1,50
 566 3 566 3 670 3 c 1,0,-1
488 844 m 2,51,-1
 396 751 l 2,52,53
 395 750 395 750 394 751 c 256,54,55
 393 752 393 752 393 753 c 0,56,57
 399 785 399 785 364.5 820.5 c 128,-1,58
 330 856 330 856 310 874 c 1,59,-1
 413 977 l 1,60,61
 426 965 426 965 451 941 c 128,-1,62
 476 917 476 917 491 890.5 c 128,-1,63
 506 864 506 864 488 844 c 2,51,-1
EndSplineSet
EndChar

StartChar: ghain.init
Encoding: 174 65231 132
Width: 978
GlyphClass: 2
Flags: W
AnchorPoint: "Anchor-1" 408 -205 basechar 0
AnchorPoint: "Anchor-0" 444 1070 basechar 0
LayerCount: 2
Fore
SplineSet
134 140 m 1,0,-1
 134 140 l 1,1,-1
 -2 3 l 1,2,3
 419 3 419 3 841 3 c 1,4,-1
 978 140 l 1,5,6
 842 140 842 140 696 186 c 128,-1,7
 550 232 550 232 464 314 c 128,-1,8
 378 396 378 396 408 506 c 1,9,10
 462 507 462 507 534.5 486 c 128,-1,11
 607 465 607 465 670 428 c 128,-1,12
 733 391 733 391 759 340.5 c 128,-1,13
 785 290 785 290 746 230 c 0,14,15
 745 229 745 229 746 228 c 256,16,17
 747 227 747 227 748 228 c 2,18,-1
 858 338 l 2,19,20
 930 415 930 415 895 478 c 128,-1,21
 860 541 860 541 773.5 583 c 128,-1,22
 687 625 687 625 602.5 638.5 c 128,-1,23
 518 652 518 652 490 629 c 2,24,-1
 353 492 l 2,25,26
 249 385 249 385 264 295 c 128,-1,27
 279 205 279 205 371 140 c 1,28,-1
 134 140 l 1,0,-1
659 844 m 2,29,-1
 567 751 l 2,30,31
 566 750 566 750 565 751 c 256,32,33
 564 752 564 752 564 753 c 0,34,35
 570 785 570 785 535.5 820.5 c 128,-1,36
 501 856 501 856 481 874 c 1,37,-1
 584 977 l 1,38,39
 597 965 597 965 622 941 c 128,-1,40
 647 917 647 917 662 890.5 c 128,-1,41
 677 864 677 864 659 844 c 2,29,-1
EndSplineSet
EndChar

StartChar: ghain.medi
Encoding: 175 65232 133
Width: 792
GlyphClass: 2
Flags: W
AnchorPoint: "Anchor-1" 399 -205 basechar 0
AnchorPoint: "Anchor-0" 447 1051 basechar 0
LayerCount: 2
Fore
SplineSet
134 140 m 1,0,-1
 134 140 l 1,1,-1
 -3 3 l 1,2,3
 160 3 160 3 458 3 c 1,4,-1
 508 53 l 1,5,6
 651 3 651 3 794 3 c 1,7,-1
 930 140 l 1,8,9
 794 140 794 140 658.5 186 c 128,-1,10
 523 232 523 232 448.5 314 c 128,-1,11
 374 396 374 396 410 507 c 1,12,13
 475 506 475 506 557 471.5 c 128,-1,14
 639 437 639 437 682 376 c 128,-1,15
 725 315 725 315 674 236 c 0,16,17
 673 235 673 235 674 234 c 256,18,19
 675 233 675 233 677 234 c 2,20,-1
 784 341 l 2,21,22
 857 418 857 418 834 481 c 128,-1,23
 811 544 811 544 739.5 585 c 128,-1,24
 668 626 668 626 595 639 c 128,-1,25
 522 652 522 652 495 629 c 2,26,-1
 358 492 l 2,27,28
 254 385 254 385 261 295 c 128,-1,29
 268 205 268 205 350 140 c 1,30,-1
 134 140 l 1,0,-1
657 844 m 2,31,-1
 564 751 l 2,32,33
 564 750 564 750 562 751 c 0,34,35
 561 752 561 752 562 753 c 0,36,37
 568 785 568 785 533.5 820.5 c 128,-1,38
 499 856 499 856 479 874 c 1,39,-1
 582 977 l 1,40,41
 595 965 595 965 620 941 c 128,-1,42
 645 917 645 917 659.5 890.5 c 128,-1,43
 674 864 674 864 657 844 c 2,31,-1
EndSplineSet
EndChar

StartChar: fa.fina
Encoding: 177 65234 134
Width: 906
GlyphClass: 2
Flags: W
AnchorPoint: "Anchor-1" 447 -205 basechar 0
AnchorPoint: "Anchor-0" 494 847 basechar 0
LayerCount: 2
Fore
SplineSet
915 309 m 1,0,1
 854 348 854 348 798 400 c 128,-1,2
 742 452 742 452 740 529 c 1,3,4
 780 490 780 490 835 438 c 128,-1,5
 890 386 890 386 915 309 c 1,0,1
930 843 m 1,6,-1
 930 843 l 1,7,-1
 838 751 l 2,8,9
 837 750 837 750 836 750 c 0,10,11
 835 751 835 751 835 752 c 0,12,13
 841 784 841 784 806.5 820 c 128,-1,14
 772 856 772 856 752 874 c 1,15,-1
 855 976 l 1,16,17
 868 964 868 964 893 940 c 128,-1,18
 918 916 918 916 933 889.5 c 128,-1,19
 948 863 948 863 930 843 c 1,6,-1
989 197 m 0,21,22
 1062 309 1062 309 1059.5 388.5 c 128,-1,23
 1057 468 1057 468 1014.5 523.5 c 128,-1,24
 972 579 972 579 924 620 c 0,25,26
 886 653 886 653 865 681.5 c 128,-1,27
 844 710 844 710 857 738 c 0,28,29
 857 739 857 739 856 740 c 0,30,31
 855 740 855 740 854 739 c 2,32,-1
 734 619 l 2,33,34
 614 496 614 496 605 414 c 128,-1,35
 596 332 596 332 648 277 c 128,-1,36
 700 222 700 222 763 183 c 0,37,38
 810 153 810 153 838.5 125 c 128,-1,39
 867 97 867 97 855 67 c 1,40,41
 786 140 786 140 742 163.5 c 128,-1,42
 698 187 698 187 651 139 c 1,43,44
 448 142 448 142 348.5 205 c 128,-1,45
 249 268 249 268 232.5 352 c 128,-1,46
 216 436 216 436 260 502 c 0,47,48
 261 503 261 503 260 504 c 256,49,50
 259 505 259 505 258 504 c 2,51,-1
 145 391 l 2,52,53
 85 330 85 330 91.5 239.5 c 128,-1,54
 98 149 98 149 197 77.5 c 128,-1,55
 296 6 296 6 515 2 c 1,56,57
 562 50 562 50 606 26.5 c 128,-1,58
 650 3 650 3 720 -72 c 2,59,-1
 731 -83 l 1,60,-1
 816 2 l 1,61,-1
 907 2 l 1,62,-1
 1043 139 l 1,63,-1
 945 139 l 1,64,20
 968 167 968 167 989 197 c 0,21,22
EndSplineSet
EndChar

StartChar: fa.init
Encoding: 178 65235 135
Width: 690
GlyphClass: 2
Flags: W
AnchorPoint: "Anchor-1" 288 -205 basechar 0
AnchorPoint: "Anchor-0" 399 1090 basechar 0
LayerCount: 2
Fore
SplineSet
136 139 m 1,0,-1
 136 139 l 1,1,-1
 -1 3 l 1,2,3
 114 3 114 3 145 2 c 1,4,5
 149 6 149 6 159 15 c 0,6,7
 202 50 202 50 246.5 20.5 c 128,-1,8
 291 -9 291 -9 362 -83 c 1,9,-1
 499 54 l 2,10,11
 566 120 566 120 620 197 c 0,12,13
 702 325 702 325 689 411.5 c 128,-1,14
 676 498 676 498 619.5 556 c 128,-1,15
 563 614 563 614 517 656 c 128,-1,16
 471 698 471 698 487 738 c 0,17,18
 488 739 488 739 487 740 c 0,19,20
 486 740 486 740 485 739 c 2,21,-1
 364 619 l 2,22,23
 256 508 256 508 239.5 430.5 c 128,-1,24
 223 353 223 353 261.5 299.5 c 128,-1,25
 300 246 300 246 358.5 207.5 c 128,-1,26
 417 169 417 169 457.5 136 c 128,-1,27
 498 103 498 103 486 67 c 1,28,29
 417 140 417 140 373 163.5 c 128,-1,30
 329 187 329 187 282 139 c 1,31,32
 282 139 282 139 212 139 c 128,-1,33
 142 139 142 139 136 139 c 1,0,-1
546 309 m 1,34,35
 485 348 485 348 429 400 c 128,-1,36
 373 452 373 452 371 529 c 1,37,38
 410 490 410 490 465.5 438 c 128,-1,39
 521 386 521 386 546 309 c 1,34,35
561 843 m 1,40,-1
 561 843 l 1,41,-1
 468 751 l 2,42,43
 467 750 467 750 466 750 c 0,44,45
 465 751 465 751 465 752 c 0,46,47
 471 784 471 784 436.5 820 c 128,-1,48
 402 856 402 856 382 874 c 1,49,-1
 485 976 l 1,50,51
 499 964 499 964 524 940 c 128,-1,52
 549 916 549 916 563.5 889.5 c 128,-1,53
 578 863 578 863 561 843 c 1,40,-1
EndSplineSet
EndChar

StartChar: fa.medi
Encoding: 179 65236 136
Width: 536
GlyphClass: 2
Flags: W
AnchorPoint: "Anchor-1" 285 -207 basechar 0
AnchorPoint: "Anchor-0" 405 1081 basechar 0
LayerCount: 2
Fore
SplineSet
561 843 m 1,0,-1
 561 843 l 1,1,-1
 468 751 l 2,2,3
 467 750 467 750 466 750 c 0,4,5
 465 751 465 751 465 752 c 0,6,7
 471 784 471 784 436.5 820 c 128,-1,8
 402 856 402 856 382 874 c 1,9,-1
 485 976 l 1,10,11
 499 964 499 964 524 940 c 128,-1,12
 549 916 549 916 563.5 889.5 c 128,-1,13
 578 863 578 863 561 843 c 1,0,-1
546 309 m 1,14,15
 538 314 538 314 531 320 c 0,16,17
 472 357 472 357 422 406.5 c 128,-1,18
 372 456 372 456 371 529 c 1,19,20
 390 508 390 508 418 483 c 0,21,22
 456 450 456 450 492.5 408 c 128,-1,23
 529 366 529 366 546 309 c 1,14,15
620 197 m 0,25,26
 692 309 692 309 690 388.5 c 128,-1,27
 688 468 688 468 645.5 523.5 c 128,-1,28
 603 579 603 579 555 620 c 0,29,30
 517 653 517 653 495.5 681.5 c 128,-1,31
 474 710 474 710 487 738 c 0,32,33
 488 739 488 739 487 740 c 0,34,35
 486 740 486 740 485 739 c 2,36,-1
 364 619 l 2,37,38
 245 496 245 496 236 414 c 128,-1,39
 227 332 227 332 278.5 277 c 128,-1,40
 330 222 330 222 394 183 c 0,41,42
 440 153 440 153 468.5 125 c 128,-1,43
 497 97 497 97 486 67 c 1,44,45
 417 140 417 140 373 163.5 c 128,-1,46
 329 187 329 187 282 139 c 1,47,-1
 136 139 l 1,48,-1
 -1 3 l 1,49,50
 84 3 84 3 127 2 c 2,51,-1
 145 2 l 1,52,-1
 150 7 l 2,53,54
 155 11 155 11 159 15 c 0,55,56
 201 48 201 48 243 22.5 c 128,-1,57
 285 -3 285 -3 350 -72 c 0,58,59
 356 -77 356 -77 362 -83 c 1,60,-1
 447 2 l 1,61,-1
 537 2 l 1,62,-1
 674 139 l 1,63,-1
 576 139 l 1,64,24
 599 167 599 167 620 197 c 0,25,26
EndSplineSet
EndChar

StartChar: qaf.fina
Encoding: 181 65238 137
Width: 712
GlyphClass: 2
Flags: W
AnchorPoint: "Anchor-1" 302 -202 basechar 0
AnchorPoint: "Anchor-0" 449 1070 basechar 0
LayerCount: 2
Fore
SplineSet
823 843 m 1,0,-1
 823 843 l 1,1,-1
 730 751 l 2,2,3
 729 750 729 750 728 750 c 0,4,5
 727 751 727 751 727 752 c 0,6,7
 733 784 733 784 699 820 c 128,-1,8
 665 856 665 856 644 874 c 1,9,-1
 747 976 l 1,10,11
 761 964 761 964 786 940 c 128,-1,12
 811 916 811 916 825.5 889.5 c 128,-1,13
 840 863 840 863 823 843 c 1,0,-1
651 843 m 1,14,-1
 651 843 l 1,15,-1
 559 751 l 2,16,17
 558 750 558 750 557 750 c 0,18,19
 556 751 556 751 556 752 c 0,20,21
 562 784 562 784 527.5 820 c 128,-1,22
 493 856 493 856 473 874 c 1,23,-1
 576 976 l 1,24,25
 589 964 589 964 614 940 c 128,-1,26
 639 916 639 916 654 889.5 c 128,-1,27
 669 863 669 863 651 843 c 1,14,-1
722 309 m 1,28,29
 715 314 715 314 707 320 c 0,30,31
 649 357 649 357 598.5 406.5 c 128,-1,32
 548 456 548 456 547 529 c 1,33,34
 567 508 567 508 594 483 c 0,35,36
 632 450 632 450 668.5 407.5 c 128,-1,37
 705 365 705 365 722 309 c 1,28,29
796 197 m 0,39,40
 869 309 869 309 866.5 388.5 c 128,-1,41
 864 468 864 468 821.5 523.5 c 128,-1,42
 779 579 779 579 731 620 c 0,43,44
 693 653 693 653 672 681 c 128,-1,45
 651 709 651 709 664 737 c 0,46,47
 664 739 664 739 663 739 c 0,48,49
 662 740 662 740 661 739 c 2,50,-1
 541 619 l 2,51,52
 421 496 421 496 411 414 c 128,-1,53
 401 332 401 332 451 278 c 128,-1,54
 501 224 501 224 563 185 c 0,55,56
 610 154 610 154 638 125 c 128,-1,57
 666 96 666 96 648 64 c 0,58,59
 625 30 625 30 590 -3 c 1,60,61
 578 4 578 4 565 11 c 0,62,63
 485 55 485 55 403.5 110.5 c 128,-1,64
 322 166 322 166 271 238.5 c 128,-1,65
 220 311 220 311 230 406.5 c 128,-1,66
 240 502 240 502 343 626 c 0,67,68
 344 627 344 627 343 628 c 0,69,70
 341 629 341 629 340 628 c 2,71,-1
 262 549 l 2,72,73
 126 411 126 411 100.5 305 c 128,-1,74
 75 199 75 199 123.5 119.5 c 128,-1,75
 172 40 172 40 257.5 -19.5 c 128,-1,76
 343 -79 343 -79 429 -126 c 0,77,78
 451 -138 451 -138 471 -150 c 1,79,80
 526 -96 526 -96 577 -44 c 0,81,82
 600 -21 600 -21 624 2 c 1,83,-1
 713 2 l 1,84,-1
 850 139 l 1,85,-1
 752 139 l 1,86,38
 775 167 775 167 796 197 c 0,39,40
EndSplineSet
EndChar

StartChar: qaf.init
Encoding: 182 65239 138
Width: 690
GlyphClass: 2
Flags: W
AnchorPoint: "Anchor-1" 285 -202 basechar 0
AnchorPoint: "Anchor-0" 402 1115 basechar 0
LayerCount: 2
Fore
SplineSet
136 139 m 1,0,-1
 136 139 l 1,1,-1
 -1 3 l 1,2,3
 114 3 114 3 145 2 c 1,4,5
 149 6 149 6 159 15 c 0,6,7
 202 50 202 50 246.5 20.5 c 128,-1,8
 291 -9 291 -9 362 -83 c 1,9,-1
 499 54 l 2,10,11
 566 120 566 120 620 197 c 0,12,13
 702 325 702 325 689 411.5 c 128,-1,14
 676 498 676 498 619.5 556 c 128,-1,15
 563 614 563 614 517 656 c 128,-1,16
 471 698 471 698 487 738 c 0,17,18
 488 739 488 739 487 740 c 0,19,20
 486 740 486 740 485 739 c 2,21,-1
 364 619 l 2,22,23
 256 508 256 508 239.5 430.5 c 128,-1,24
 223 353 223 353 261.5 299.5 c 128,-1,25
 300 246 300 246 358.5 207.5 c 128,-1,26
 417 169 417 169 457.5 136 c 128,-1,27
 498 103 498 103 486 67 c 1,28,29
 417 140 417 140 373 163.5 c 128,-1,30
 329 187 329 187 282 139 c 1,31,32
 282 139 282 139 212 139 c 128,-1,33
 142 139 142 139 136 139 c 1,0,-1
546 309 m 1,34,35
 485 348 485 348 429 400 c 128,-1,36
 373 452 373 452 371 529 c 1,37,38
 410 490 410 490 465.5 438 c 128,-1,39
 521 386 521 386 546 309 c 1,34,35
646 843 m 1,40,-1
 646 843 l 1,41,-1
 554 751 l 2,42,43
 553 750 553 750 552 750 c 0,44,45
 551 751 551 751 551 752 c 0,46,47
 557 784 557 784 522.5 820 c 128,-1,48
 488 856 488 856 468 874 c 1,49,-1
 571 976 l 1,50,51
 584 964 584 964 609 940 c 128,-1,52
 634 916 634 916 649 889.5 c 128,-1,53
 664 863 664 863 646 843 c 1,40,-1
475 843 m 1,54,-1
 475 843 l 1,55,-1
 382 751 l 2,56,57
 382 750 382 750 380 750 c 0,58,59
 379 751 379 751 380 752 c 0,60,61
 386 784 386 784 351.5 820 c 128,-1,62
 317 856 317 856 297 874 c 1,63,-1
 400 976 l 1,64,65
 413 964 413 964 438 940 c 128,-1,66
 463 916 463 916 477.5 889.5 c 128,-1,67
 492 863 492 863 475 843 c 1,54,-1
EndSplineSet
EndChar

StartChar: qaf.medi
Encoding: 183 65240 139
Width: 536
GlyphClass: 2
Flags: W
AnchorPoint: "Anchor-1" 285 -207 basechar 0
AnchorPoint: "Anchor-0" 288 1081 basechar 0
LayerCount: 2
Fore
SplineSet
546 309 m 1,0,1
 485 348 485 348 429 400 c 128,-1,2
 373 452 373 452 371 529 c 1,3,4
 410 490 410 490 465.5 438 c 128,-1,5
 521 386 521 386 546 309 c 1,0,1
646 843 m 1,6,-1
 646 843 l 1,7,-1
 554 751 l 2,8,9
 553 750 553 750 552 750 c 0,10,11
 551 751 551 751 551 752 c 0,12,13
 557 784 557 784 522.5 820 c 128,-1,14
 488 856 488 856 468 874 c 1,15,-1
 571 976 l 1,16,17
 584 964 584 964 609 940 c 128,-1,18
 634 916 634 916 649 889.5 c 128,-1,19
 664 863 664 863 646 843 c 1,6,-1
475 843 m 1,20,-1
 475 843 l 1,21,-1
 382 751 l 2,22,23
 382 750 382 750 380 750 c 0,24,25
 379 751 379 751 380 752 c 0,26,27
 386 784 386 784 351.5 820 c 128,-1,28
 317 856 317 856 297 874 c 1,29,-1
 400 976 l 1,30,31
 413 964 413 964 438 940 c 128,-1,32
 463 916 463 916 477.5 889.5 c 128,-1,33
 492 863 492 863 475 843 c 1,20,-1
620 197 m 0,35,36
 692 309 692 309 690 388.5 c 128,-1,37
 688 468 688 468 645.5 523.5 c 128,-1,38
 603 579 603 579 555 620 c 0,39,40
 517 653 517 653 495.5 681.5 c 128,-1,41
 474 710 474 710 487 738 c 0,42,43
 488 739 488 739 487 740 c 0,44,45
 486 740 486 740 485 739 c 2,46,-1
 364 619 l 2,47,48
 245 496 245 496 236 414 c 128,-1,49
 227 332 227 332 278.5 277 c 128,-1,50
 330 222 330 222 394 183 c 0,51,52
 440 153 440 153 468.5 125 c 128,-1,53
 497 97 497 97 486 67 c 1,54,55
 417 140 417 140 373 163.5 c 128,-1,56
 329 187 329 187 282 139 c 1,57,-1
 136 139 l 1,58,-1
 -1 3 l 1,59,60
 84 3 84 3 127 2 c 2,61,-1
 145 2 l 1,62,-1
 150 7 l 2,63,64
 155 11 155 11 159 15 c 0,65,66
 201 48 201 48 243 22.5 c 128,-1,67
 285 -3 285 -3 350 -72 c 0,68,69
 356 -77 356 -77 362 -83 c 1,70,-1
 447 2 l 1,71,-1
 537 2 l 1,72,-1
 674 139 l 1,73,-1
 576 139 l 1,74,34
 599 167 599 167 620 197 c 0,35,36
EndSplineSet
EndChar

StartChar: kaf.arab.fina
Encoding: 185 65242 140
Width: 1005
GlyphClass: 2
Flags: W
AnchorPoint: "Anchor-1" 447 -207 basechar 0
AnchorPoint: "Anchor-0" 449 566 basechar 0
LayerCount: 2
Fore
SplineSet
625 231 m 1,0,-1
 625 231 l 1,1,-1
 677 283 l 1,2,3
 609 283 609 283 566 307.5 c 128,-1,4
 523 332 523 332 537 379 c 1,5,6
 560 373 560 373 584.5 354.5 c 128,-1,7
 609 336 609 336 602 313 c 0,8,9
 601 312 601 312 602 311 c 0,10,11
 603 311 603 311 604 312 c 2,12,-1
 646 354 l 2,13,14
 665 375 665 375 648 394.5 c 128,-1,15
 631 414 631 414 606 424.5 c 128,-1,16
 581 435 581 435 573 431 c 2,17,-1
 521 379 l 2,18,19
 464 318 464 318 487 282 c 1,20,21
 472 279 472 279 463 271 c 2,22,-1
 420 227 l 2,23,24
 419 227 419 227 420 226 c 0,25,26
 420 225 420 225 421 225 c 0,27,28
 446 233 446 233 518.5 232.5 c 128,-1,29
 591 232 591 232 625 231 c 1,0,-1
1059 479 m 1,30,-1
 1173 593 l 1,31,32
 1060 703 1060 703 1059 849 c 1,33,-1
 923 713 l 1,34,-1
 923 168 l 1,35,36
 885 181 885 181 843 139 c 1,37,-1
 387 139 l 2,38,39
 312 140 312 140 272.5 135 c 128,-1,40
 233 130 233 130 210 107 c 2,41,-1
 91 -13 l 2,42,43
 90 -14 90 -14 91 -15 c 256,44,45
 92 -16 92 -16 93 -15 c 0,46,47
 132 7 132 7 247 2 c 1,48,-1
 268 2 l 2,49,50
 423 3 423 3 706 2 c 1,51,52
 753 50 753 50 797 26.5 c 128,-1,53
 841 3 841 3 911 -71 c 2,54,-1
 923 -83 l 1,55,-1
 1008 3 l 1,56,57
 1024 2 1024 2 1028 2 c 2,58,-1
 1165 139 l 1,59,-1
 1059 139 l 1,60,-1
 1059 479 l 1,30,-1
EndSplineSet
EndChar

StartChar: kaf.arab.init
Encoding: 186 65243 141
Width: 1174
GlyphClass: 2
Flags: W
AnchorPoint: "Anchor-1" 444 -205 basechar 0
AnchorPoint: "Anchor-0" 399 923 basechar 0
LayerCount: 2
Fore
SplineSet
936 -83 m 1,0,-1
 937 -83 l 1,1,2
 986 -33 986 -33 1073 54 c 0,3,4
 1181 165 1181 165 1173.5 231.5 c 128,-1,5
 1166 298 1166 298 1082 335 c 128,-1,6
 998 372 998 372 875.5 395.5 c 128,-1,7
 753 419 753 419 630 444 c 128,-1,8
 507 469 507 469 421 510 c 128,-1,9
 335 551 335 551 325 623 c 1,10,11
 436 673 436 673 564 690.5 c 128,-1,12
 692 708 692 708 801.5 697 c 128,-1,13
 911 686 911 686 967.5 651 c 128,-1,14
 1024 616 1024 616 992 561 c 0,15,16
 991 559 991 559 992 558 c 0,17,18
 993 558 993 558 994 558 c 2,19,-1
 1108 672 l 1,20,21
 1176 746 1176 746 1103.5 789 c 128,-1,22
 1031 832 1031 832 884 837.5 c 128,-1,23
 737 843 737 843 582 803.5 c 128,-1,24
 427 764 427 764 329 672 c 1,25,-1
 193 535 l 1,26,27
 172 445 172 445 248.5 394.5 c 128,-1,28
 325 344 325 344 453 316 c 128,-1,29
 581 288 581 288 714 264 c 128,-1,30
 847 240 847 240 939 201 c 128,-1,31
 1031 162 1031 162 1037 91 c 1,32,33
 979 151 979 151 939.5 167 c 128,-1,34
 900 183 900 183 857 139 c 1,35,-1
 137 139 l 1,36,-1
 0 2 l 1,37,-1
 720 2 l 1,38,39
 769 52 769 52 815 25 c 128,-1,40
 861 -2 861 -2 936 -83 c 1,0,-1
EndSplineSet
EndChar

StartChar: kaf.arab.medi
Encoding: 187 65244 142
Width: 1019
GlyphClass: 2
Flags: W
AnchorPoint: "Anchor-1" 447 -210 basechar 0
AnchorPoint: "Anchor-0" 402 906 basechar 0
LayerCount: 2
Fore
SplineSet
1170 251 m 0,1,2
 1144 321 1144 321 1028.5 356.5 c 128,-1,3
 913 392 913 392 765 417 c 0,4,5
 658 436 658 436 560 460.5 c 128,-1,6
 462 485 462 485 397.5 523 c 128,-1,7
 333 561 333 561 325 623 c 1,8,9
 436 673 436 673 564 690.5 c 128,-1,10
 692 708 692 708 801.5 697 c 128,-1,11
 911 686 911 686 967.5 651 c 128,-1,12
 1024 616 1024 616 992 561 c 0,13,14
 991 559 991 559 992 558 c 2,15,-1
 994 558 l 1,16,-1
 1108 672 l 1,17,18
 1176 746 1176 746 1103.5 789 c 128,-1,19
 1031 832 1031 832 884 837.5 c 128,-1,20
 737 843 737 843 582 803.5 c 128,-1,21
 427 764 427 764 329 672 c 1,22,-1
 193 535 l 1,23,24
 173 454 173 454 233.5 406 c 128,-1,25
 294 358 294 358 400.5 330 c 128,-1,26
 507 302 507 302 629 280 c 0,27,28
 733 262 733 262 825 239.5 c 128,-1,29
 917 217 917 217 975.5 182 c 128,-1,30
 1034 147 1034 147 1037 91 c 1,31,32
 979 151 979 151 939.5 167 c 128,-1,33
 900 183 900 183 857 139 c 1,34,-1
 137 139 l 1,35,-1
 0 2 l 1,36,-1
 720 2 l 1,37,38
 767 50 767 50 811 26.5 c 128,-1,39
 855 3 855 3 925 -71 c 0,40,41
 931 -77 931 -77 936 -83 c 1,42,-1
 937 -83 l 1,43,44
 952 -67 952 -67 1022 2 c 1,45,-1
 1184 139 l 1,46,-1
 1143 139 l 1,47,0
 1187 207 1187 207 1170 251 c 0,1,2
EndSplineSet
EndChar

StartChar: lam.fina
Encoding: 189 65246 143
Width: 664
GlyphClass: 2
Flags: W
AnchorPoint: "Anchor-1" 335 -436 basechar 0
AnchorPoint: "Anchor-0" 447 614 basechar 0
LayerCount: 2
Fore
SplineSet
801 362 m 1,0,-1
 801 362 l 1,1,2
 801 386 801 386 801 743 c 1,3,-1
 664 606 l 1,4,-1
 664 225 l 2,5,6
 664 76 664 76 664 -42 c 128,-1,7
 664 -160 664 -160 656 -235 c 1,8,9
 568 -237 568 -237 471.5 -187.5 c 128,-1,10
 375 -138 375 -138 305 -51.5 c 128,-1,11
 235 35 235 35 228 145 c 128,-1,12
 221 255 221 255 314 375 c 0,13,14
 315 376 315 376 314 377 c 256,15,16
 313 378 313 378 312 377 c 2,17,-1
 219 285 l 2,18,19
 103 165 103 165 93 52 c 128,-1,20
 83 -61 83 -61 142.5 -153 c 128,-1,21
 202 -245 202 -245 296 -302.5 c 128,-1,22
 390 -360 390 -360 482 -370.5 c 128,-1,23
 574 -381 574 -381 628 -331 c 2,24,-1
 765 -194 l 2,25,26
 795 -160 795 -160 798 -10 c 128,-1,27
 801 140 801 140 801 362 c 1,0,-1
EndSplineSet
EndChar

StartChar: lam.init
Encoding: 190 65247 144
Width: 412
GlyphClass: 2
Flags: W
AnchorPoint: "Anchor-1" 224 -202 basechar 0
AnchorPoint: "Anchor-0" 230 975 basechar 0
LayerCount: 2
Fore
SplineSet
412 883 m 2,0,-1
 412 884 l 1,1,-1
 276 747 l 1,2,-1
 276 152 l 1,3,4
 180 196 180 196 117 139 c 1,5,-1
 -1 21 l 2,6,7
 -2 20 -2 20 -2 19 c 0,8,9
 -1 18 -1 18 0 19 c 0,10,11
 55 49 55 49 128.5 19.5 c 128,-1,12
 202 -10 202 -10 275 -83 c 1,13,14
 344 -15 344 -15 412 54 c 1,15,16
 412 514 412 514 412 883 c 2,0,-1
EndSplineSet
EndChar

StartChar: lam.medi
Encoding: 191 65248 145
Width: 275
GlyphClass: 2
Flags: W
AnchorPoint: "Anchor-1" 235 -210 basechar 0
AnchorPoint: "Anchor-0" 280 995 basechar 0
LayerCount: 2
Fore
SplineSet
412 883 m 2,0,-1
 412 884 l 1,1,-1
 276 747 l 1,2,-1
 276 152 l 1,3,4
 180 196 180 196 117 139 c 1,5,-1
 -1 21 l 2,6,7
 -2 20 -2 20 -2 19 c 0,8,9
 -1 18 -1 18 0 19 c 0,10,11
 55 49 55 49 128.5 19.5 c 128,-1,12
 202 -10 202 -10 275 -83 c 1,13,14
 344 -15 344 -15 412 54 c 1,15,16
 412 514 412 514 412 883 c 2,0,-1
EndSplineSet
EndChar

